<svg width="79" height="79" viewBox="0 0 79 79" fill="none" xmlns="http://www.w3.org/2000/svg">
<mask id="mask0" mask-type="alpha" maskUnits="userSpaceOnUse" x="0" y="0" width="79" height="79">
<path fill-rule="evenodd" clip-rule="evenodd" d="M0 0.534037H78.1327V78.4577H0V0.534037Z" fill="white"/>
</mask>
<g mask="url(#mask0)">
<path fill-rule="evenodd" clip-rule="evenodd" d="M44.3399 61.1187C45.5927 61.3408 46.6783 61.0322 47.4959 60.0918C48.33 59.1322 48.6536 58.0081 48.2173 56.6075C47.4281 58.6468 46.2004 60.1506 44.3399 61.1187ZM20.343 61.1726C18.2615 60.0608 16.942 58.3414 16.2339 56.0323C15.1905 58.8198 17.3954 61.5459 20.343 61.1726ZM63.5693 2.95062C63.5693 3.77832 63.5698 4.55849 63.5693 5.33866C63.5677 6.79915 63.5677 6.79969 64.9609 7.09552C65.0201 7.10781 65.0858 7.08912 65.214 7.08057C65.4036 5.60193 65.5921 4.12915 65.7907 2.57682C64.9999 2.70978 64.3057 2.82673 63.5693 2.95062ZM35.9118 65.6305C37.6083 64.657 37.8315 62.8681 38.8162 61.6735C37.8006 61.1203 36.8629 60.6098 35.9118 60.0918V65.6305ZM29.499 66.1079C29.5791 66.0742 29.6597 66.0406 29.7404 66.0069C29.664 64.8279 29.5892 63.6488 29.5097 62.4703C29.4616 61.7558 29.4093 61.0413 29.3511 60.3278C29.318 59.9161 29.0638 59.742 28.721 59.9503C27.9803 60.3994 27.2744 60.9067 26.5316 61.406C27.5072 62.9519 28.5031 64.5294 29.499 66.1079ZM67.2651 5.8449C67.0509 7.49816 66.8512 9.03928 66.6707 10.4314C67.2822 10.8389 67.7964 11.1817 68.3475 11.5491C68.7186 9.81625 69.0855 8.10372 69.4684 6.31588C68.7389 6.15996 68.0527 6.01311 67.2651 5.8449ZM21.6871 31.6237C21.6108 32.067 21.5173 32.4103 21.4986 32.7574C21.458 33.5157 21.7266 33.8131 22.4758 33.7491C22.9783 33.7058 23.5038 33.5979 23.9588 33.3886C26.7692 32.0979 28.8304 30.0255 30.1612 27.2417C30.3876 26.7675 30.4976 26.2239 30.5798 25.6995C30.6492 25.259 30.5339 24.7768 29.9892 24.7464C29.4392 24.7159 28.8806 24.8334 28.3845 24.8804C28.4732 25.5922 28.6927 26.1684 28.5816 26.672C28.1827 28.4806 27.0426 29.8274 25.5901 30.9066C24.4474 31.7556 23.2256 32.3943 21.6871 31.6237ZM55.2789 21.3266C55.2485 21.4094 55.2175 21.4922 55.1865 21.5749C55.7734 21.9637 56.3261 22.4224 56.953 22.7294C60.5036 24.4687 64.2795 25.2809 68.2215 25.3161C69.1875 25.3252 70.1791 25.3434 71.0634 24.8457C71.0522 24.7784 71.0559 24.7496 71.0437 24.7351C69.9869 23.5112 68.4965 23.0509 67.0632 22.4961C66.9719 22.4603 66.7626 22.5714 66.6884 22.6728C65.206 24.694 60.5794 23.9769 59.7319 21.2855C59.6876 21.144 59.5317 20.9432 59.4147 20.9341C58.0119 20.8231 56.6139 20.8081 55.2789 21.3266ZM16.3589 27.6962C12.1157 24.6636 8.20362 21.0676 3.08576 19.2867C2.76536 20.312 2.42948 21.3886 2.07864 22.5105C6.88731 24.2567 11.6228 25.9762 16.3589 27.6962ZM25.8587 28.0241C26.5268 27.1964 26.8755 26.4797 26.4563 25.4128C25.1357 22.0465 23.9305 18.6347 22.6777 15.2412C22.5885 14.9987 22.4806 14.7627 22.3648 14.4839C21.23 15.0212 20.1508 15.5322 19.0326 16.0614C21.3176 20.0658 23.5641 24.002 25.8587 28.0241ZM10.927 14.273C11.8562 13.4517 12.2188 13.4667 13.0048 14.3093C14.5321 15.9471 16.0566 17.5876 17.5833 19.2253C18.402 20.1038 19.2232 20.9795 20.0429 21.8558C20.028 21.6102 19.9324 21.4195 19.8272 21.2348C18.953 19.699 18.0767 18.1643 17.2015 16.629C16.5281 15.4473 16.6168 15.1482 17.8103 14.5555C17.9278 14.4973 18.0404 14.4284 18.2118 14.3328C17.2667 12.5348 16.3354 10.762 15.3651 8.91593C13.3135 10.1927 11.3078 11.4401 9.24278 12.725C9.82217 13.2579 10.3626 13.754 10.927 14.273ZM61.7814 8.3296C61.7462 8.4914 61.7211 8.55548 61.7195 8.62063C61.6271 12.4676 61.5315 16.314 61.4514 20.1604C61.4354 20.9277 61.8461 21.4548 62.6818 21.7191C63.5431 21.9915 64.4247 22.2024 65.2113 21.5002C65.2759 21.4425 65.3229 21.3597 65.364 21.2812C66.4336 19.2189 67.507 17.1588 68.5568 15.0863C68.6311 14.9394 68.5942 14.6527 68.4933 14.5165C68.1531 14.0551 67.7612 13.6322 67.311 13.103C67.115 13.5404 67.0184 13.7401 66.9351 13.9441C66.1159 15.9498 65.2989 17.956 64.4803 19.9617C64.3874 20.1892 64.3078 20.4252 64.1876 20.6372C63.9313 21.0895 63.5105 21.2444 63.0411 21.0799C62.5611 20.9117 62.3614 20.516 62.4703 20.005C62.5114 19.8106 62.584 19.6189 62.6679 19.4379C63.6115 17.3991 64.3126 15.302 64.4621 13.0325C64.5502 11.7023 64.782 10.3818 64.9545 9.01205C63.8646 8.77762 62.8462 8.55868 61.7814 8.3296ZM12.0457 16.0293C10.8272 17.2527 9.67906 18.4051 8.508 19.581C8.63028 19.6744 8.79956 19.8117 8.97632 19.9388C13.471 23.1577 17.9662 26.3761 22.462 29.594C23.2779 30.1782 23.704 30.1269 24.4522 29.3382C20.3041 24.8889 16.1549 20.438 12.0457 16.0293ZM31.2997 60.4843C31.2997 60.7668 31.2895 60.9457 31.3013 61.123C31.4337 63.0876 31.5773 65.0516 31.7018 67.0162C31.7552 67.8636 31.3376 68.2983 30.5168 68.2572C29.2523 68.1937 28.2446 67.6698 27.5622 66.5682C26.6672 65.1232 25.7711 63.6782 24.8388 62.2572C24.7021 62.0484 24.3256 61.8145 24.1243 61.8626C23.4867 62.0147 22.8795 62.2951 22.2366 62.5354C24.418 66.9831 26.5155 71.2562 28.6078 75.5319C28.9399 76.2117 29.4905 76.5129 30.2226 76.5257C31.5207 76.5481 32.8199 76.5444 34.1165 76.5935C35.1567 76.6325 35.8274 76.2229 36.2744 75.2547C38.1573 71.1761 40.0845 67.1187 41.9935 63.0523C42.0848 62.8574 42.1591 62.6545 42.245 62.4468C42.1062 62.349 42.0154 62.286 41.9257 62.2219C41.0628 61.6105 40.9581 61.6319 40.4519 62.5215C39.8773 63.5318 39.3006 64.5416 38.7265 65.5525C37.9212 66.9719 36.606 67.6057 35.012 67.3403C34.3402 67.2282 34.0337 66.895 34.0225 66.2056C34.0076 65.3106 34.0182 64.4151 34.0182 63.5196C34.0182 62.4964 34.0182 61.4727 34.0182 60.4843H31.2997ZM40.7733 48.6108C40.902 49.1838 41.0489 49.7002 41.1269 50.2272C41.2048 50.7559 41.2497 51.2952 41.2433 51.8292C41.2369 52.3969 40.8278 52.7771 40.3162 52.7798C39.8036 52.7819 39.4234 52.4022 39.3796 51.8356C39.3679 51.6797 39.3785 51.5227 39.3732 51.3657C39.2135 46.4647 33.7988 43.1875 29.397 45.3337C27.018 46.4935 25.675 48.3967 25.3514 51.025C25.3135 51.3299 25.3189 51.7395 25.1314 51.9029C24.8703 52.1315 24.434 52.2976 24.0949 52.2644C23.6138 52.218 23.4087 51.7678 23.4621 51.3048C23.5663 50.4061 23.7233 49.5138 23.8578 48.6183C21.4821 48.3844 19.0193 50.0825 18.2343 52.501C17.4055 55.0525 18.4548 57.8389 20.7505 59.1824C22.7674 60.3636 25.7279 60.1826 27.0095 58.7857C26.8739 58.6692 26.7382 58.5544 26.6042 58.4375C26.0082 57.9184 25.8849 57.3882 26.2544 56.9375C26.6496 56.4558 27.1595 56.506 27.8281 57.0347C28.9746 57.9414 30.2578 58.5138 31.7397 58.626C33.7144 58.776 35.4435 58.21 36.9622 56.9535C37.4599 56.5418 38.0457 56.5685 38.3912 56.9957C38.7233 57.4069 38.6464 57.9291 38.1829 58.3622C38.0083 58.5245 37.8219 58.6751 37.6377 58.8337C39.1916 60.2285 42.1473 60.3476 44.0035 59.1183C46.3339 57.574 47.2748 54.9115 46.3782 52.3969C45.5275 50.0094 43.163 48.4004 40.7733 48.6108ZM49.8754 24.2497C50.4628 24.9754 50.8382 25.5335 51.3054 25.9986C52.6831 27.3699 54.3428 28.2563 56.2214 28.7556C56.8889 28.9329 57.1506 29.3948 56.9845 29.947C56.8318 30.4543 56.3667 30.6919 55.7419 30.5376C53.0698 29.8781 50.8494 28.495 49.1112 26.3542C48.9078 26.1038 48.7331 25.8304 48.4896 25.4892C47.9861 26.1033 47.5413 26.6597 47.081 27.2028C46.7493 27.5942 46.7445 27.9301 47.0275 28.3941C49.4423 32.3452 51.8255 36.3155 54.2184 40.2799C55.8711 43.0172 57.5239 45.755 59.0751 48.3235C60.3412 47.8109 61.5401 47.2897 62.7661 46.8427C63.4982 46.5763 64.2757 46.4353 65.0276 46.2206C67.5951 45.4891 70.1279 44.6726 72.2825 43.0129C73.5519 42.0341 74.559 40.8368 75.3301 39.2525C75.1095 39.3246 75.0332 39.3465 74.959 39.3737C72.3514 40.3199 69.7525 39.9013 67.1583 39.3112C66.6109 39.1868 66.3012 38.8349 66.3776 38.2395C66.4507 37.6644 66.9393 37.392 67.6586 37.5122C68.6284 37.674 69.5944 37.8673 70.5689 37.9922C72.3808 38.2245 74.0939 37.9041 75.6521 36.9232C75.8748 36.7833 76.1359 36.5291 76.169 36.2978C76.2603 35.6603 76.3009 35.0024 76.2534 34.3605C76.0238 31.2499 74.4607 28.84 72.1838 26.8316C72.0422 26.7072 71.7512 26.6821 71.5451 26.7125C70.6207 26.8493 69.7065 27.1221 68.7806 27.1648C65.7085 27.3064 62.7175 26.7708 59.7928 25.864C57.6728 25.2061 55.5844 24.4687 53.9402 22.8667C53.8505 22.7791 53.6406 22.7177 53.5322 22.7604C52.3766 23.2148 51.2307 23.6933 49.8754 24.2497ZM66.6424 64.4973C66.1058 65.0799 65.6188 65.663 65.0735 66.1858C64.5924 66.6477 64.0274 66.6221 63.6494 66.2034C63.29 65.8061 63.3509 65.3207 63.7962 64.8332C64.1572 64.438 64.539 64.052 64.8386 63.6125C65.2962 62.9418 65.347 62.2956 64.8744 61.516C58.2394 50.5743 51.6445 39.6092 45.0213 28.6606C43.9709 26.9245 42.4779 25.6942 40.4465 25.0523C40.5523 26.6522 40.3317 28.1399 39.8186 29.5951C39.3241 30.9979 38.5124 32.1855 37.5079 33.2551C37.0845 33.7063 36.5329 33.7523 36.1345 33.4132C35.7019 33.0447 35.7014 32.5225 36.1366 31.9906C36.2504 31.8518 36.3759 31.7236 36.4928 31.588C38.0798 29.7467 38.7586 27.6059 38.5519 25.1939C38.5311 24.9455 38.3015 24.5215 38.1418 24.5087C36.3791 24.3667 34.6137 24.2978 32.8814 24.8099C32.5038 24.9215 32.4526 25.1025 32.4173 25.4694C32.3463 26.217 32.263 26.995 31.9933 27.686C31.0134 30.2001 29.2592 32.1257 27.1238 33.7165C25.5543 34.886 23.8642 35.7703 21.8003 35.6362C21.7389 35.7959 21.6732 35.9369 21.6305 36.0837C21.0303 38.1519 21.0832 40.2425 21.4682 42.332C21.7395 43.8064 22.3359 45.1489 23.2934 46.3157C23.8044 46.9383 24.7074 46.9009 25.2249 46.3194C25.8165 45.6541 26.4061 44.9465 27.1254 44.4413C31.2388 41.5524 36.4827 42.4047 39.5542 46.3846C39.7075 46.5832 40.0455 46.7023 40.313 46.7375C41.2806 46.8668 42.2541 46.957 43.2271 47.0307C43.4535 47.0478 43.7499 47.0126 43.9117 46.8785C45.8661 45.2594 47.2705 43.2409 48.1911 40.8801C48.4758 40.1507 48.9377 39.8714 49.4994 40.0802C50.0356 40.2788 50.2113 40.8384 49.9357 41.554C49.0455 43.8646 47.7324 45.8976 45.9195 47.5935C45.747 47.7554 45.5158 47.8552 45.2477 48.0245C47.1328 49.4161 48.0956 51.0977 48.4859 53.1413C48.5601 53.5284 48.7508 53.9337 49.0001 54.2397C50.1739 55.681 50.5381 57.2947 50.113 59.0852C49.8423 60.2248 49.202 61.1545 48.2632 61.9427C48.5083 62.1045 48.6867 62.231 48.8731 62.3437C50.3282 63.2232 51.8042 64.0696 53.231 64.9929C53.8232 65.3763 54.3722 65.4174 54.9067 65.0527C55.6207 64.5662 56.2946 64.0162 56.953 63.455C57.3914 63.0811 57.832 62.9797 58.2789 63.3433C58.7382 63.7166 58.7601 64.2373 58.3777 64.6484C57.864 65.2006 57.2681 65.678 56.6967 66.1741C56.5066 66.3391 56.2812 66.464 56.0313 66.6349C56.2423 66.7732 56.387 66.8747 56.5376 66.9655C61.0568 69.6942 65.5771 72.4224 70.098 75.149C70.8434 75.5986 71.488 75.5874 71.936 75.1266C72.4171 74.6316 72.4262 74.0751 71.9547 73.2928C70.6159 71.0698 69.2745 68.8483 67.9337 66.6269C67.4968 65.9039 67.0579 65.1824 66.6424 64.4973ZM19.9276 13.5596C20.6976 13.197 21.4036 12.8611 22.1127 12.5316C23.162 12.0441 23.5476 12.2022 23.9427 13.2755C25.0631 16.3166 26.1823 19.3583 27.3037 22.3994C27.3956 22.6483 27.5018 22.8912 27.5996 23.1342C28.2227 23.0295 28.8085 22.895 29.4018 22.8437C29.7959 22.8101 30.2685 22.7743 30.5852 22.9532C31.3013 23.358 31.9362 23.1043 32.6298 22.9585C36.7 22.1015 40.5993 22.3407 44.0943 24.8953C44.5797 25.2499 45.0128 25.6755 45.4907 26.0856C45.9628 25.5554 46.4209 24.9877 46.9341 24.474C48.5975 22.8095 50.5995 21.7106 52.8284 20.9886C53.0943 20.9021 53.3661 20.6949 53.5349 20.469C54.3311 19.4026 55.5005 19.1912 56.6897 19.0977C57.6392 19.0224 58.5993 19.0822 59.6011 19.0822C59.6187 18.6913 59.6353 18.4286 59.6412 18.1653C59.7186 14.7403 59.7859 11.3152 59.8745 7.89012C59.9151 6.31161 60.0582 6.19894 61.6949 6.32656C61.6949 5.2607 61.6944 4.19964 61.6955 3.13858C61.6971 1.35502 61.6981 1.35823 63.4694 1.06773C64.4189 0.912339 65.3651 0.739857 66.314 0.581793C67.491 0.385815 67.9021 0.783111 67.7574 1.95738C67.6768 2.61687 67.6068 3.27742 67.5273 3.9759C68.5248 4.19003 69.4604 4.39135 70.3965 4.59106C71.4111 4.80787 71.6337 5.14856 71.4185 6.14607C70.9529 8.30984 70.5006 10.4768 70.0168 12.6368C69.9185 13.0758 69.9607 13.3967 70.3286 13.6883C70.884 14.1288 70.9422 14.6404 70.5924 15.2849C69.6323 17.0536 68.7229 18.8489 67.7542 20.7083C67.9935 20.8092 68.2167 20.8866 68.4244 20.9939C69.4748 21.537 70.5583 22.0267 71.5552 22.6547C72.3343 23.1449 72.9682 23.8172 73.036 24.8558C73.0499 25.0694 73.3132 25.2916 73.5027 25.4646C75.5976 27.3816 77.2092 29.6186 77.8159 32.4296C78.8224 37.0935 77.4116 40.9976 73.8643 44.1327C71.5168 46.2073 68.6022 47.1199 65.6727 47.9775C64.5791 48.2974 63.478 48.5943 62.3875 48.9253C61.9833 49.0476 61.5865 49.2126 61.2085 49.4017C60.2072 49.902 60.1549 50.1124 60.7311 51.0667C65.0201 58.1726 69.3108 65.2775 73.5967 72.3856C74.5937 74.0399 74.3128 75.7508 72.847 76.7889C71.6791 77.6161 70.4632 77.559 69.2606 76.8338C63.8971 73.5983 58.5342 70.3601 53.1712 67.1235C51.141 65.898 49.1037 64.6831 47.0847 63.44C46.5715 63.1239 46.0594 63.0678 45.4645 63.0203C44.2753 62.9252 43.8123 63.4784 43.3611 64.4818C41.5994 68.3961 39.7176 72.2558 37.9116 76.1503C37.1902 77.7074 35.9999 78.463 34.313 78.4577C32.9027 78.4534 31.4914 78.4278 30.0816 78.3867C28.6003 78.3439 27.5456 77.6225 26.8968 76.2987C24.8489 72.1228 22.7968 67.9496 20.7665 63.7652C20.5561 63.3316 20.3377 63.1586 19.8245 63.1426C17.335 63.0657 15.4703 61.9144 14.5326 59.5888C13.6056 57.2883 14.0125 55.1609 15.7757 53.3356C16.0208 53.0815 16.1875 52.7157 16.2948 52.3718C17.0301 50.0222 18.4404 48.2749 20.7345 47.2934C20.9192 47.2144 21.1061 47.1402 21.2898 47.0579C21.3272 47.0414 21.3544 47.0024 21.4228 46.9405C19.5746 44.3207 19.1528 41.3409 19.3744 38.2416C19.4497 37.1832 19.7706 36.1419 19.9751 35.0921C20.012 34.902 20.1188 34.6558 20.0419 34.5239C19.3829 33.3929 19.5949 32.2378 19.9265 31.0134C19.7151 30.9279 19.5196 30.8425 19.3194 30.7699C13.29 28.5778 7.26004 26.3879 1.23011 24.1979C-0.096343 23.7163 -0.199939 23.5101 0.218183 22.1762C0.673151 20.7259 1.12331 19.2739 1.58309 17.8257C1.84528 16.9996 2.34083 16.7657 3.12154 17.1256C4.11638 17.5844 5.0904 18.0879 6.08951 18.537C6.2636 18.6155 6.59628 18.6096 6.7175 18.4959C7.69098 17.5763 8.63135 16.6221 9.63153 15.6299C8.82786 14.8919 8.07279 14.2004 7.32092 13.5057C6.5039 12.7517 6.55409 12.1952 7.50835 11.5987C9.99412 10.0459 12.4836 8.49888 14.9742 6.95348C15.7848 6.45045 16.2494 6.58449 16.7006 7.43835C17.7649 9.4542 18.8265 11.4711 19.9276 13.5596Z" fill="#202F5A"/>
</g>
<path fill-rule="evenodd" clip-rule="evenodd" d="M66.6425 64.4973C67.0579 65.1824 67.4969 65.9038 67.9332 66.6269C69.2746 68.8483 70.616 71.0703 71.9547 73.2928C72.4262 74.0751 72.4166 74.632 71.936 75.1265C71.4875 75.5874 70.8435 75.5986 70.0975 75.149C65.5771 72.4224 61.0568 69.6942 56.5376 66.9654C56.3865 66.8746 56.2423 66.7732 56.0308 66.6349C56.2813 66.464 56.5066 66.339 56.6967 66.174C57.2681 65.6779 57.8641 65.2005 58.3778 64.6484C58.7601 64.2372 58.7382 63.7171 58.279 63.3433C57.832 62.9796 57.3915 63.0811 56.953 63.4549C56.2946 64.0161 55.6207 64.5662 54.9068 65.0532C54.3717 65.4173 53.8233 65.3762 53.2311 64.9928C51.8042 64.0695 50.3277 63.2231 48.8731 62.3436C48.6867 62.231 48.5084 62.1044 48.2633 61.9426C49.202 61.1544 49.8423 60.2247 50.1125 59.0852C50.5381 57.2947 50.1734 55.6809 49.0002 54.2402C48.7508 53.9342 48.5602 53.5284 48.4859 53.1412C48.0956 51.0976 47.1328 49.416 45.2478 48.0244C45.5158 47.8552 45.7471 47.7553 45.9195 47.5935C47.7325 45.8975 49.0456 43.8646 49.9358 41.554C50.2113 40.8384 50.0356 40.2788 49.4995 40.0801C48.9372 39.8713 48.4758 40.1506 48.1912 40.88C47.2706 43.2409 45.8661 45.2594 43.9117 46.8785C43.7494 47.0125 43.4535 47.0477 43.2271 47.0307C42.2536 46.9575 41.2807 46.8667 40.3131 46.7375C40.0455 46.7022 39.7075 46.5832 39.5543 46.3845C36.4827 42.4046 31.2388 41.5524 27.1254 44.4413C26.4056 44.9465 25.8166 45.654 25.2249 46.3194C24.7075 46.9009 23.8045 46.9383 23.2934 46.3156C22.336 45.1488 21.7395 43.8064 21.4682 42.332C21.0832 40.2425 21.0298 38.1518 21.6306 36.0842C21.6733 35.9368 21.739 35.7958 21.7998 35.6362C23.8643 35.7702 25.5544 34.8859 27.1238 33.7164C29.2593 32.1257 31.0135 30.2 31.9934 27.686C32.263 26.995 32.3463 26.2169 32.4174 25.4693C32.4521 25.1025 32.5039 24.9215 32.8814 24.8099C34.6137 24.2977 36.3786 24.3666 38.1418 24.5087C38.3015 24.5215 38.5306 24.9455 38.5519 25.1938C38.7581 27.6059 38.0799 29.7467 36.4928 31.5879C36.3759 31.7235 36.2499 31.8517 36.1367 31.9905C35.7015 32.5224 35.702 33.0452 36.1345 33.4131C36.5329 33.7522 37.0845 33.7063 37.508 33.2551C38.5124 32.1855 39.3241 30.9978 39.8186 29.595C40.3318 28.1399 40.5523 26.6522 40.4466 25.0528C42.4779 25.6942 43.971 26.9245 45.0214 28.6605C51.6446 39.6091 58.2395 50.5743 64.8744 61.5159C65.347 62.2956 65.2963 62.9417 64.8386 63.613C64.5391 64.0524 64.1572 64.438 63.7963 64.8331C63.3509 65.3207 63.29 65.8061 63.6494 66.2034C64.0275 66.622 64.5925 66.6477 65.0736 66.1858C65.6188 65.663 66.1058 65.0799 66.6425 64.4973Z" fill="#FA6400" fill-opacity="0.504343"/>
<path fill-rule="evenodd" clip-rule="evenodd" d="M49.8755 24.2497C51.2302 23.6933 52.3767 23.2148 53.5323 22.7604C53.6407 22.7177 53.8501 22.7791 53.9403 22.8667C55.584 24.4687 57.673 25.2061 59.7929 25.864C62.7177 26.7708 65.7086 27.3064 68.7807 27.1648C69.7066 27.1221 70.6209 26.8493 71.5452 26.7125C71.7513 26.6821 72.0424 26.7072 72.1839 26.8316C74.4603 28.84 76.0239 31.2499 76.2535 34.3605C76.301 35.0024 76.2599 35.6603 76.1691 36.2978C76.1355 36.5291 75.8743 36.7833 75.6522 36.9232C74.094 37.9041 72.3809 38.2245 70.5691 37.9922C69.5945 37.8673 68.6285 37.674 67.6588 37.5122C66.9395 37.392 66.4508 37.6644 66.3777 38.2395C66.3013 38.8349 66.6105 39.1868 67.1584 39.3112C69.7526 39.9013 72.351 40.3199 74.9585 39.3737C75.0333 39.3465 75.1097 39.324 75.3297 39.2525C74.5591 40.8368 73.552 42.0341 72.2821 43.0124C70.128 44.6726 67.5947 45.4891 65.0277 46.2206C64.2759 46.4353 63.4978 46.5763 62.7657 46.8427C61.5402 47.2897 60.3408 47.8109 59.0747 48.3235C57.524 45.7545 55.8712 43.0172 54.2185 40.2799C51.8257 36.3155 49.4419 32.3452 47.0277 28.3941C46.7446 27.9301 46.7495 27.5942 47.0811 27.2028C47.5408 26.6597 47.9857 26.1033 48.4898 25.4892C48.7333 25.8304 48.9079 26.1038 49.1113 26.3542C50.8495 28.495 53.0699 29.8781 55.7415 30.5376C56.3668 30.6919 56.8319 30.4543 56.9846 29.947C57.1507 29.3948 56.889 28.9329 56.2215 28.7556C54.3429 28.2563 52.6833 27.3699 51.3055 25.9986C50.8378 25.5335 50.4629 24.9754 49.8755 24.2497Z" fill="#B620E0" fill-opacity="0.150377"/>
<path fill-rule="evenodd" clip-rule="evenodd" d="M40.7734 48.611C43.1626 48.4001 45.5276 50.0096 46.3783 52.3966C47.2744 54.9117 46.334 57.5742 44.0036 59.118C42.1474 60.3478 39.1917 60.2287 37.6378 58.8339C37.822 58.6748 38.0084 58.5247 38.1825 58.3619C38.6465 57.9293 38.7234 57.4065 38.3907 56.9954C38.0452 56.5682 37.46 56.5415 36.9623 56.9532C35.4436 58.2097 33.7145 58.7757 31.7398 58.6262C30.2579 58.5135 28.9747 57.9416 27.8277 57.0343C27.1591 56.5057 26.6497 56.4555 26.2545 56.9377C25.8845 57.3884 26.0078 57.9187 26.6043 58.4377C26.7383 58.5546 26.874 58.6695 27.0096 58.7853C25.728 60.1828 22.7675 60.3638 20.75 59.1826C18.4549 57.8386 17.4056 55.0527 18.2338 52.5007C19.0188 50.0827 21.4822 48.3841 23.8579 48.6185C23.7228 49.5135 23.5664 50.4063 23.4622 51.3051C23.4083 51.768 23.6139 52.2177 24.095 52.2647C24.4341 52.2978 24.8704 52.1312 25.1315 51.9031C25.319 51.7397 25.3136 51.3302 25.351 51.0247C25.6751 48.3969 27.0181 46.4932 29.3966 45.3339C33.7983 43.1877 39.2136 46.4649 39.3733 51.3659C39.3786 51.5224 39.368 51.6799 39.3797 51.8359C39.4235 52.4024 39.8037 52.7821 40.3163 52.7794C40.8279 52.7773 41.2364 52.3966 41.2434 51.8289C41.2498 51.2955 41.2049 50.7556 41.1264 50.2269C41.049 49.7004 40.9016 49.1835 40.7734 48.611Z" fill="#C5EE9A"/>
<path fill-rule="evenodd" clip-rule="evenodd" d="M31.2996 60.4845H34.0182C34.0182 61.4729 34.0182 62.496 34.0182 63.5197C34.0182 64.4152 34.0075 65.3108 34.0225 66.2057C34.0337 66.8946 34.3402 67.2284 35.012 67.3405C36.606 67.6059 37.9212 66.972 38.7265 65.5527C39.3005 64.5418 39.8773 63.532 40.4518 62.5211C40.9581 61.632 41.0627 61.6107 41.9257 62.2221C42.0154 62.2862 42.1062 62.3492 42.245 62.4469C42.159 62.6546 42.0848 62.8576 41.9935 63.0525C40.0839 67.1183 38.1572 71.1762 36.2744 75.2549C35.8274 76.2225 35.1567 76.6326 34.1165 76.5936C32.8194 76.5445 31.5207 76.5483 30.2225 76.5253C29.4904 76.5125 28.9399 76.2118 28.6072 75.5321C26.5155 71.2563 24.418 66.9832 22.2366 62.535C22.8795 62.2953 23.4867 62.0149 24.1243 61.8627C24.3256 61.8147 24.7021 62.048 24.8388 62.2573C25.7711 63.6783 26.6672 65.1233 27.5622 66.5678C28.2446 67.67 29.2523 68.1938 30.5168 68.2568C31.3375 68.2985 31.7551 67.8638 31.7017 67.0164C31.5773 65.0512 31.4337 63.0877 31.3012 61.1231C31.2889 60.9458 31.2996 60.7664 31.2996 60.4845Z" fill="#93BC67"/>
<path fill-rule="evenodd" clip-rule="evenodd" d="M12.0456 16.0293C16.1552 20.438 20.3044 24.8889 24.452 29.3382C23.7044 30.1269 23.2777 30.1782 22.4618 29.594C17.9666 26.3761 13.4708 23.1577 8.97666 19.9388C8.79938 19.8117 8.6301 19.6744 8.50781 19.581C9.67887 18.4051 10.8275 17.2527 12.0456 16.0293Z" fill="#C5EE9A"/>
<path fill-rule="evenodd" clip-rule="evenodd" d="M61.7816 8.32976C62.8459 8.55884 63.8648 8.77778 64.9547 9.01221C64.7822 10.3819 64.5499 11.7025 64.4623 13.0327C64.3128 15.3022 63.6117 17.3992 62.6681 19.4375C62.5842 19.6191 62.5116 19.8108 62.47 20.0051C62.361 20.5156 62.5607 20.9113 63.0413 21.0795C63.5107 21.2445 63.931 21.0897 64.1873 20.6374C64.308 20.4249 64.3876 20.1894 64.4805 19.9619C65.2991 17.9562 66.1156 15.9499 66.9347 13.9442C67.0186 13.7397 67.1152 13.5405 67.3112 13.1032C67.7614 13.6318 68.1533 14.0553 68.4935 14.5161C68.5944 14.6529 68.6307 14.9396 68.5565 15.0865C67.5072 17.1589 66.4333 19.2191 65.3637 21.2814C65.3231 21.3599 65.2756 21.4421 65.211 21.5003C64.4249 22.2025 63.5428 21.9916 62.682 21.7193C61.8462 21.4549 61.4356 20.9279 61.4516 20.1605C61.5317 16.3136 61.6273 12.4672 61.7197 8.62079C61.7208 8.55564 61.7464 8.49103 61.7816 8.32976Z" fill="#C5EE9A"/>
<path fill-rule="evenodd" clip-rule="evenodd" d="M10.9268 14.2729C10.3624 13.7543 9.82248 13.2577 9.24255 12.7253C11.3075 11.4405 13.3132 10.1926 15.3654 8.9163C16.3351 10.7623 17.267 12.5347 18.2116 14.3332C18.0402 14.4288 17.9281 14.4971 17.8106 14.5559C16.6166 15.1486 16.5279 15.4477 17.2018 16.6289C18.0765 18.1641 18.9528 19.6988 19.827 21.2346C19.9327 21.4199 20.0278 21.61 20.0427 21.8562C19.223 20.9794 18.4017 20.1036 17.5831 19.2257C16.0564 17.5874 14.5318 15.9469 13.0046 14.3092C12.2185 13.4665 11.8559 13.4521 10.9268 14.2729Z" fill="#C5EE9A"/>
<path fill-rule="evenodd" clip-rule="evenodd" d="M25.8587 28.0239C23.5636 24.0023 21.3176 20.0657 19.0326 16.0618C20.1508 15.532 21.23 15.0215 22.3648 14.4843C22.4806 14.7625 22.588 14.9986 22.6777 15.2415C23.9299 18.6346 25.1357 22.0463 26.4563 25.4126C26.8755 26.4796 26.5262 27.1962 25.8587 28.0239Z" fill="#C5EE9A"/>
<path fill-rule="evenodd" clip-rule="evenodd" d="M16.3588 27.6962C11.6228 25.9762 6.88675 24.2567 2.07861 22.5106C2.42945 21.3881 2.76534 20.3121 3.08574 19.2868C8.20359 21.0672 12.1157 24.6636 16.3588 27.6962Z" fill="#C5EE9A"/>
<path fill-rule="evenodd" clip-rule="evenodd" d="M55.2789 21.3268C56.6139 20.8083 58.0119 20.8233 59.4147 20.9338C59.5317 20.9429 59.6876 21.1437 59.7319 21.2852C60.5794 23.9765 65.206 24.6937 66.6883 22.6731C66.7626 22.5716 66.9719 22.4605 67.0632 22.4958C68.4959 23.0506 69.9869 23.5114 71.0437 24.7348C71.0559 24.7492 71.0522 24.7781 71.0634 24.8459C70.1791 25.3431 69.1875 25.3249 68.2215 25.3163C64.2789 25.2811 60.5036 24.4689 56.953 22.7291C56.3261 22.4226 55.7734 21.9639 55.1865 21.5751C55.2175 21.4924 55.2485 21.4096 55.2789 21.3268Z" fill="#C5EE9A"/>
<path fill-rule="evenodd" clip-rule="evenodd" d="M21.6869 31.6237C23.2259 32.3948 24.4477 31.7561 25.5899 30.9065C27.0424 29.8273 28.183 28.4806 28.5819 26.6719C28.693 26.1683 28.4735 25.5922 28.3843 24.8803C28.8804 24.8333 29.439 24.7159 29.989 24.7463C30.5342 24.7767 30.649 25.2589 30.5802 25.6995C30.4979 26.2239 30.3874 26.7675 30.161 27.2417C28.8308 30.0254 26.7695 32.0979 23.9591 33.3886C23.5036 33.5979 22.9787 33.7058 22.4762 33.749C21.7264 33.8131 21.4584 33.5157 21.4989 32.7574C21.5171 32.4103 21.6106 32.0669 21.6869 31.6237Z" fill="#C5EE9A"/>
<path fill-rule="evenodd" clip-rule="evenodd" d="M67.265 5.845C68.0526 6.01321 68.7388 6.16006 69.4683 6.31599C69.0854 8.10382 68.7185 9.81636 68.3474 11.5487C67.7963 11.1818 67.2821 10.839 66.6707 10.4315C66.8511 9.03939 67.0509 7.49773 67.265 5.845Z" fill="#C5EE9A"/>
<path fill-rule="evenodd" clip-rule="evenodd" d="M29.4988 66.1076C28.5029 64.5296 27.507 62.9517 26.5314 61.4063C27.2747 60.907 27.9801 60.3997 28.7208 59.95C29.0636 59.7423 29.3178 59.9159 29.3514 60.3276C29.4091 61.0415 29.4614 61.7555 29.51 62.47C29.5891 63.6491 29.6638 64.8281 29.7402 66.0072C29.6601 66.0408 29.5794 66.074 29.4988 66.1076Z" fill="white"/>
<path fill-rule="evenodd" clip-rule="evenodd" d="M35.9116 65.6303V60.0917C36.8627 60.6096 37.8004 61.1201 38.816 61.6734C37.8314 62.8685 37.6081 64.6568 35.9116 65.6303Z" fill="white"/>
<path fill-rule="evenodd" clip-rule="evenodd" d="M63.5692 2.9504C64.3056 2.82652 64.9998 2.7101 65.7906 2.57714C65.592 4.12948 65.4035 5.60225 65.2139 7.08036C65.0858 7.0889 65.0201 7.10759 64.9608 7.09531C63.5676 6.79947 63.5676 6.79894 63.5692 5.33898C63.5697 4.55828 63.5692 3.7781 63.5692 2.9504Z" fill="#C5EE9A"/>
<path fill-rule="evenodd" clip-rule="evenodd" d="M20.3432 61.1728C17.3955 61.5455 15.1906 58.82 16.2341 56.032C16.9421 58.3415 18.2617 60.061 20.3432 61.1728Z" fill="#C5EE9A"/>
<path fill-rule="evenodd" clip-rule="evenodd" d="M44.3398 61.1187C46.2003 60.1506 47.428 58.6468 48.2172 56.6075C48.6535 58.0081 48.3299 59.1322 47.4958 60.0918C46.6782 61.0322 45.5926 61.3408 44.3398 61.1187Z" fill="#C5EE9A"/>
</svg>
