<svg width="146" height="77" viewBox="0 0 146 77" fill="none" xmlns="http://www.w3.org/2000/svg">
<path d="M8.64658 1.61203C9.49688 1.61203 10.2196 1.73249 10.8149 1.97341C11.4101 2.21433 11.9911 2.55445 12.558 2.99378C12.7139 3.12132 12.8485 3.1851 12.9619 3.1851C13.2453 3.1851 13.4295 2.75994 13.5146 1.90964H14.0035C13.9468 2.8308 13.9185 4.46055 13.9185 6.79889H13.4295C13.2737 5.87773 13.1319 5.21874 13.0044 4.82193C12.8768 4.41095 12.6643 4.02123 12.3667 3.65276C11.9415 3.10007 11.3959 2.68909 10.7298 2.41982C10.0779 2.13639 9.36934 1.99467 8.60406 1.99467C7.6829 1.99467 6.87511 2.29936 6.1807 2.90875C5.50046 3.51813 4.96902 4.38969 4.58638 5.52343C4.20374 6.643 4.01242 7.96097 4.01242 9.47735C4.01242 11.0221 4.21791 12.3471 4.62889 13.4525C5.03987 14.5579 5.60674 15.4011 6.3295 15.9822C7.06643 16.549 7.89548 16.8325 8.81664 16.8325C9.52523 16.8325 10.2126 16.6978 10.8786 16.4286C11.5447 16.1593 12.0691 15.7554 12.4517 15.2169C12.7351 14.8201 12.9406 14.3949 13.0682 13.9414C13.1957 13.4879 13.3162 12.7935 13.4295 11.8582H13.9185C13.9185 14.2957 13.9468 15.9963 14.0035 16.96H13.5146C13.4721 16.5065 13.4083 16.1877 13.3233 16.0034C13.2524 15.805 13.1461 15.7058 13.0044 15.7058C12.891 15.7058 12.7422 15.7625 12.558 15.8759C11.9203 16.3294 11.3109 16.6766 10.7298 16.9175C10.1488 17.1443 9.44728 17.2576 8.62532 17.2576C7.27901 17.2576 6.09567 16.9529 5.0753 16.3436C4.06911 15.7342 3.28258 14.8555 2.71571 13.7076C2.16301 12.5455 1.88666 11.1638 1.88666 9.56238C1.88666 8.00349 2.1701 6.62174 2.73697 5.41714C3.31801 4.21255 4.11871 3.27721 5.13908 2.61114C6.17361 1.94507 7.34278 1.61203 8.64658 1.61203ZM21.22 5.71475C22.6655 5.71475 23.8276 6.19659 24.7062 7.16027C25.599 8.10977 26.0454 9.55529 26.0454 11.4968C26.0454 13.4383 25.599 14.8839 24.7062 15.8334C23.8276 16.7829 22.6655 17.2576 21.22 17.2576C19.7744 17.2576 18.6053 16.7829 17.7124 15.8334C16.8338 14.8839 16.3945 13.4383 16.3945 11.4968C16.3945 9.55529 16.8338 8.10977 17.7124 7.16027C18.6053 6.19659 19.7744 5.71475 21.22 5.71475ZM21.22 6.1399C20.3696 6.1399 19.6965 6.57923 19.2005 7.45787C18.7045 8.32235 18.4565 9.66866 18.4565 11.4968C18.4565 13.325 18.7045 14.6713 19.2005 15.5358C19.6965 16.4002 20.3696 16.8325 21.22 16.8325C22.0703 16.8325 22.7434 16.4002 23.2394 15.5358C23.7354 14.6713 23.9834 13.325 23.9834 11.4968C23.9834 9.66866 23.7354 8.32235 23.2394 7.45787C22.7434 6.57923 22.0703 6.1399 21.22 6.1399ZM35.6117 6.07613C36.2352 6.07613 36.7738 6.05487 37.2273 6.01236V6.43751C36.9438 6.46585 36.6887 6.5934 36.462 6.82015C36.2494 7.04689 36.0439 7.41536 35.8455 7.92554L32.3593 17.0663H31.9979L28.0865 7.64919C27.8739 7.16735 27.6684 6.84849 27.47 6.6926C27.2716 6.53671 27.0661 6.45877 26.8535 6.45877V6.01236C27.5905 6.06904 28.214 6.09739 28.7242 6.09739C29.8154 6.09739 30.7366 6.06904 31.4877 6.01236V6.45877C30.9634 6.45877 30.5807 6.50128 30.3398 6.58631C30.0989 6.65717 29.9784 6.85558 29.9784 7.18153C29.9784 7.37993 30.0564 7.69171 30.2123 8.11686L32.8269 14.5792L35.1653 8.43572C35.3212 8.01057 35.3991 7.67754 35.3991 7.43662C35.3991 7.11067 35.2716 6.87683 35.0165 6.73512C34.7755 6.57923 34.3787 6.48002 33.826 6.43751V6.01236C34.563 6.05487 35.1582 6.07613 35.6117 6.07613ZM40.3363 0.697956C40.7048 0.697956 41.0237 0.832588 41.2929 1.10185C41.5622 1.37111 41.6968 1.68998 41.6968 2.05844C41.6968 2.42691 41.5622 2.74577 41.2929 3.01504C41.0237 3.2843 40.7048 3.41893 40.3363 3.41893C39.9679 3.41893 39.649 3.2843 39.3798 3.01504C39.1105 2.74577 38.9759 2.42691 38.9759 2.05844C38.9759 1.68998 39.1105 1.37111 39.3798 1.10185C39.649 0.832588 39.9679 0.697956 40.3363 0.697956ZM41.4417 14.9831C41.4417 15.5641 41.5622 15.968 41.8031 16.1947C42.044 16.4073 42.4621 16.5136 43.0573 16.5136V16.96C41.7535 16.9033 40.8961 16.875 40.4851 16.875C40.0742 16.875 39.2168 16.9033 37.913 16.96V16.5136C38.5082 16.5136 38.9263 16.4073 39.1672 16.1947C39.4081 15.968 39.5286 15.5641 39.5286 14.9831V8.32944C39.5286 7.67754 39.4081 7.20278 39.1672 6.90518C38.9263 6.60757 38.5082 6.45877 37.913 6.45877V6.01236C38.3665 6.05487 38.8058 6.07613 39.231 6.07613C40.1238 6.07613 40.8607 5.97693 41.4417 5.77852V14.9831ZM53.813 14.6429C53.813 15.2948 53.9335 15.7696 54.1744 16.0672C54.4153 16.3648 54.8334 16.5136 55.4286 16.5136V16.96C54.9893 16.9175 54.5499 16.8962 54.1106 16.8962C53.2178 16.8962 52.4809 16.9955 51.8998 17.1939V15.3019C51.6447 15.9397 51.2621 16.4286 50.7519 16.7687C50.2417 17.0947 49.6182 17.2576 48.8812 17.2576C47.5208 17.2576 46.4508 16.7687 45.6713 15.7909C44.9061 14.813 44.5305 13.3817 44.5447 11.4968C44.5447 10.2639 44.7573 9.21517 45.1824 8.35069C45.6217 7.47205 46.2028 6.81306 46.9255 6.37374C47.6625 5.93441 48.4703 5.71475 49.3489 5.71475C49.8874 5.71475 50.3764 5.82104 50.8157 6.03362C51.2692 6.23202 51.6306 6.5438 51.8998 6.96895V2.84497C51.8998 2.19307 51.7794 1.71832 51.5384 1.42072C51.2975 1.12311 50.8795 0.974305 50.2842 0.974305V0.527895C50.7377 0.570411 51.1771 0.591669 51.6022 0.591669C52.495 0.591669 53.232 0.492466 53.813 0.294062V14.6429ZM49.4977 16.6199C50.0504 16.6199 50.5464 16.4073 50.9857 15.9822C51.4251 15.557 51.7298 14.9547 51.8998 14.1753V7.84051C51.5172 6.74929 50.7236 6.20368 49.519 6.20368C48.6403 6.20368 47.9317 6.65717 47.3932 7.56416C46.8547 8.45698 46.5925 9.76787 46.6067 11.4968C46.5925 13.1974 46.8334 14.48 47.3294 15.3444C47.8254 16.1947 48.5482 16.6199 49.4977 16.6199ZM64.747 11.8582H57.0731V10.6253H64.747V11.8582ZM71.5925 14.7705C71.5925 15.4366 71.7413 15.8971 72.0389 16.1522C72.3507 16.3932 72.8821 16.5136 73.6332 16.5136V16.96C72.1027 16.9033 71.1248 16.875 70.6997 16.875C70.3029 16.875 69.3817 16.8962 67.9362 16.9388L67.426 16.96V16.5136C68.1771 16.5136 68.7369 16.3861 69.1054 16.131C69.488 15.8759 69.6793 15.4224 69.6793 14.7705V9.62615C69.6793 8.94591 69.6085 8.4499 69.4667 8.13812C69.325 7.81217 69.0841 7.59959 68.744 7.50039C68.418 7.38702 67.9078 7.33033 67.2134 7.33033V6.86266C68.248 6.83432 69.0983 6.7422 69.7643 6.58631C70.4446 6.43042 71.054 6.16116 71.5925 5.77852V14.7705ZM79.5453 5.71475C80.9058 5.71475 81.9687 6.21076 82.734 7.20278C83.4992 8.18063 83.8819 9.55529 83.8819 11.3268C83.8819 13.1266 83.4992 14.6571 82.734 15.9184C81.9829 17.1797 81.0546 18.1434 79.9492 18.8094C78.858 19.4897 77.7668 19.9219 76.6756 20.1061L76.5905 19.681C77.8801 19.3125 78.9714 18.7031 79.8642 17.8528C80.757 17.0025 81.3522 15.635 81.6498 13.7501C81.3239 14.3028 80.8846 14.7067 80.3319 14.9618C79.7792 15.2027 79.2335 15.3232 78.695 15.3232C78.0148 15.3232 77.3841 15.139 76.8031 14.7705C76.2221 14.402 75.7544 13.8706 75.4001 13.1762C75.0458 12.4676 74.8687 11.6385 74.8687 10.689C74.8687 9.65449 75.0741 8.76167 75.4851 8.01057C75.9103 7.25947 76.4771 6.6926 77.1857 6.30996C77.8943 5.91315 78.6809 5.71475 79.5453 5.71475ZM79.2265 14.7067C79.7083 14.7067 80.1831 14.5721 80.6507 14.3028C81.1326 14.0336 81.4939 13.6013 81.7349 13.0061C81.7915 12.5526 81.8199 12.007 81.8199 11.3693C81.8199 9.48443 81.579 8.1452 81.0971 7.35159C80.6153 6.5438 80.0272 6.1399 79.3328 6.1399C78.6383 6.1399 78.0644 6.50128 77.6109 7.22404C77.1574 7.9468 76.9306 9.05219 76.9306 10.5402C76.9306 11.9857 77.1432 13.0415 77.5684 13.7076C77.9935 14.3737 78.5462 14.7067 79.2265 14.7067ZM8.75287 29.612C9.589 29.612 10.2763 29.7325 10.8149 29.9734C11.3534 30.2002 11.9415 30.5403 12.5792 30.9938C12.7635 31.1355 12.9052 31.2064 13.0044 31.2064C13.2737 31.2064 13.4508 30.7741 13.5358 29.9096H14.0248C13.9681 30.8308 13.9397 32.4606 13.9397 34.7989H13.4508C13.3233 34.0478 13.1886 33.4313 13.0469 32.9495C12.9052 32.4535 12.6855 32.0212 12.3879 31.6528C11.9769 31.1426 11.4384 30.7387 10.7723 30.4411C10.1204 30.1435 9.43311 29.9947 8.71035 29.9947C7.77502 29.9947 6.95306 30.2994 6.24447 30.9087C5.53588 31.5181 4.99027 32.3897 4.60764 33.5234C4.225 34.643 4.03368 35.9539 4.03368 37.4561C4.03368 40.007 4.43757 41.8777 5.24536 43.0681C6.06732 44.2443 7.34987 44.8325 9.09299 44.8325C9.94329 44.8325 10.6802 44.6128 11.3038 44.1735C11.5589 44.0034 11.7218 43.8405 11.7927 43.6846C11.8777 43.5145 11.9203 43.2878 11.9203 43.0043V40.9636C11.9203 40.3684 11.8636 39.9361 11.7502 39.6669C11.6368 39.3976 11.4384 39.2134 11.155 39.1142C10.8715 39.015 10.411 38.9512 9.77323 38.9229V38.4977C10.5102 38.5402 11.5093 38.5615 12.7706 38.5615C13.7342 38.5615 14.4712 38.5402 14.9813 38.4977V38.9229C14.6554 38.9512 14.4145 39.0079 14.2586 39.0929C14.1169 39.178 14.0177 39.3409 13.961 39.5818C13.9185 39.8228 13.8972 40.2125 13.8972 40.751V44.96H13.4721C13.4579 44.6766 13.4012 44.4073 13.302 44.1522C13.2028 43.883 13.0682 43.7483 12.8981 43.7483C12.8131 43.7483 12.728 43.7696 12.643 43.8121C12.558 43.8546 12.4092 43.9538 12.1966 44.1097C11.7006 44.4924 11.1833 44.7758 10.6448 44.96C10.1204 45.1584 9.53231 45.2576 8.88041 45.2576C7.42073 45.2576 6.16653 44.96 5.11782 44.3648C4.08328 43.7554 3.28966 42.8839 2.73697 41.7501C2.18427 40.6164 1.90792 39.263 1.90792 37.6899C1.90792 36.0743 2.19844 34.6572 2.77948 33.4384C3.37469 32.2055 4.18957 31.263 5.22411 30.6111C6.25864 29.9451 7.4349 29.612 8.75287 29.612ZM21.5313 33.7148C22.9769 33.7148 24.1389 34.1966 25.0176 35.1603C25.9104 36.1098 26.3568 37.5553 26.3568 39.4968C26.3568 41.4383 25.9104 42.8839 25.0176 43.8334C24.1389 44.7829 22.9769 45.2576 21.5313 45.2576C20.0858 45.2576 18.9167 44.7829 18.0238 43.8334C17.1452 42.8839 16.7059 41.4383 16.7059 39.4968C16.7059 37.5553 17.1452 36.1098 18.0238 35.1603C18.9167 34.1966 20.0858 33.7148 21.5313 33.7148ZM21.5313 34.1399C20.681 34.1399 20.0079 34.5792 19.5119 35.4579C19.0159 36.3223 18.7679 37.6687 18.7679 39.4968C18.7679 41.325 19.0159 42.6713 19.5119 43.5358C20.0079 44.4002 20.681 44.8325 21.5313 44.8325C22.3816 44.8325 23.0548 44.4002 23.5508 43.5358C24.0468 42.6713 24.2948 41.325 24.2948 39.4968C24.2948 37.6687 24.0468 36.3223 23.5508 35.4579C23.0548 34.5792 22.3816 34.1399 21.5313 34.1399ZM19.3631 29.1656C19.689 29.1656 19.9725 29.2932 20.2134 29.5483C20.4685 29.7892 20.596 30.0726 20.596 30.3986C20.596 30.7387 20.4685 31.0292 20.2134 31.2701C19.9725 31.511 19.689 31.6315 19.3631 31.6315C19.0229 31.6315 18.7324 31.511 18.4915 31.2701C18.2506 31.0292 18.1301 30.7387 18.1301 30.3986C18.1301 30.0726 18.2506 29.7892 18.4915 29.5483C18.7324 29.2932 19.0229 29.1656 19.3631 29.1656ZM23.8697 29.1656C24.1956 29.1656 24.4791 29.2932 24.72 29.5483C24.9751 29.7892 25.1026 30.0726 25.1026 30.3986C25.1026 30.7387 24.9751 31.0292 24.72 31.2701C24.4791 31.511 24.1956 31.6315 23.8697 31.6315C23.5296 31.6315 23.239 31.511 22.9981 31.2701C22.7572 31.0292 22.6367 30.7387 22.6367 30.3986C22.6367 30.0726 22.7572 29.7892 22.9981 29.5483C23.239 29.2932 23.5296 29.1656 23.8697 29.1656ZM35.1118 33.7148C36.1038 33.7148 36.8549 33.984 37.3651 34.5225C37.6344 34.806 37.8257 35.1603 37.9391 35.5854C38.0524 36.0106 38.1091 36.5845 38.1091 37.3073V42.9831C38.1091 43.5641 38.2296 43.968 38.4705 44.1947C38.7114 44.4073 39.1295 44.5136 39.7247 44.5136V44.96C38.4209 44.9033 37.5706 44.875 37.1738 44.875C36.777 44.875 35.9834 44.9033 34.7929 44.96V44.5136C35.3173 44.5136 35.6787 44.4073 35.8771 44.1947C36.0896 43.968 36.1959 43.5641 36.1959 42.9831V36.8396C36.1959 36.046 36.0826 35.4437 35.8558 35.0327C35.6291 34.6076 35.1685 34.395 34.4741 34.395C33.893 34.395 33.3758 34.5651 32.9223 34.9052C32.4688 35.2453 32.1145 35.713 31.8594 36.3082C31.6185 36.8892 31.498 37.5411 31.498 38.2639V42.9831C31.498 43.5641 31.5972 43.968 31.7956 44.1947C32.0082 44.4073 32.3766 44.5136 32.901 44.5136V44.96C31.7106 44.9033 30.917 44.875 30.5202 44.875C30.1233 44.875 29.273 44.9033 27.9692 44.96V44.5136C28.5645 44.5136 28.9825 44.4073 29.2234 44.1947C29.4644 43.968 29.5848 43.5641 29.5848 42.9831V36.3294C29.5848 35.6775 29.4644 35.2028 29.2234 34.9052C28.9825 34.6076 28.5645 34.4588 27.9692 34.4588V34.0124C28.4227 34.0549 28.8621 34.0761 29.2872 34.0761C30.18 34.0761 30.917 33.9769 31.498 33.7785V36.2869C31.8523 35.3799 32.3412 34.728 32.9648 34.3312C33.6025 33.9202 34.3182 33.7148 35.1118 33.7148ZM50.3042 42.6642C50.3042 43.3161 50.4246 43.7909 50.6656 44.0885C50.9065 44.3861 51.3245 44.5349 51.9197 44.5349V44.9813C51.4804 44.9388 51.0411 44.9175 50.6018 44.9175C49.709 44.9175 48.972 45.0167 48.391 45.2151V42.7067C48.0509 43.5854 47.569 44.2302 46.9455 44.6412C46.3219 45.0521 45.6417 45.2576 44.9047 45.2576C43.9411 45.2576 43.2041 44.9884 42.694 44.4498C42.4389 44.1664 42.2546 43.805 42.1413 43.3657C42.0421 42.9264 41.9925 42.3595 41.9925 41.6651V36.3294C41.9925 35.6775 41.872 35.2028 41.6311 34.9052C41.3902 34.6076 40.9721 34.4588 40.3769 34.4588V34.0124C40.8162 34.0549 41.2555 34.0761 41.6948 34.0761C42.5877 34.0761 43.3246 33.9769 43.9056 33.7785V42.1328C43.9056 42.6713 43.934 43.1106 43.9907 43.4507C44.0615 43.7767 44.2103 44.0459 44.4371 44.2585C44.678 44.4711 45.0394 44.5774 45.5212 44.5774C46.0597 44.5774 46.5487 44.4073 46.988 44.0672C47.4273 43.7271 47.7674 43.2665 48.0084 42.6855C48.2634 42.0902 48.391 41.4383 48.391 40.7298V36.3294C48.391 35.6775 48.2705 35.2028 48.0296 34.9052C47.7887 34.6076 47.3706 34.4588 46.7754 34.4588V34.0124C47.2147 34.0549 47.6541 34.0761 48.0934 34.0761C48.9862 34.0761 49.7231 33.9769 50.3042 33.7785V42.6642ZM43.7568 29.1656C44.0828 29.1656 44.3662 29.2932 44.6071 29.5483C44.8622 29.7892 44.9898 30.0726 44.9898 30.3986C44.9898 30.7387 44.8622 31.0292 44.6071 31.2701C44.3662 31.511 44.0828 31.6315 43.7568 31.6315C43.4167 31.6315 43.1262 31.511 42.8853 31.2701C42.6443 31.0292 42.5239 30.7387 42.5239 30.3986C42.5239 30.0726 42.6443 29.7892 42.8853 29.5483C43.1262 29.2932 43.4167 29.1656 43.7568 29.1656ZM48.2634 29.1656C48.5894 29.1656 48.8728 29.2932 49.1137 29.5483C49.3688 29.7892 49.4964 30.0726 49.4964 30.3986C49.4964 30.7387 49.3688 31.0292 49.1137 31.2701C48.8728 31.511 48.5894 31.6315 48.2634 31.6315C47.9233 31.6315 47.6328 31.511 47.3919 31.2701C47.151 31.0292 47.0305 30.7387 47.0305 30.3986C47.0305 30.0726 47.151 29.7892 47.3919 29.5483C47.6328 29.2932 47.9233 29.1656 48.2634 29.1656ZM56.385 42.9831C56.385 43.5641 56.5055 43.968 56.7464 44.1947C56.9873 44.4073 57.4054 44.5136 58.0006 44.5136V44.96C56.6968 44.9033 55.8394 44.875 55.4284 44.875C55.0174 44.875 54.16 44.9033 52.8562 44.96V44.5136C53.4515 44.5136 53.8695 44.4073 54.1104 44.1947C54.3514 43.968 54.4718 43.5641 54.4718 42.9831V30.845C54.4718 30.1931 54.3514 29.7183 54.1104 29.4207C53.8695 29.1231 53.4515 28.9743 52.8562 28.9743V28.5279C53.2956 28.5704 53.7349 28.5917 54.1742 28.5917C55.067 28.5917 55.804 28.4925 56.385 28.2941V42.9831ZM62.4675 42.9831C62.4675 43.5641 62.588 43.968 62.8289 44.1947C63.0698 44.4073 63.4879 44.5136 64.0831 44.5136V44.96C62.7793 44.9033 61.9219 44.875 61.5109 44.875C61.0999 44.875 60.2425 44.9033 58.9387 44.96V44.5136C59.534 44.5136 59.952 44.4073 60.1929 44.1947C60.4339 43.968 60.5543 43.5641 60.5543 42.9831V30.845C60.5543 30.1931 60.4339 29.7183 60.1929 29.4207C59.952 29.1231 59.534 28.9743 58.9387 28.9743V28.5279C59.3781 28.5704 59.8174 28.5917 60.2567 28.5917C61.1495 28.5917 61.8865 28.4925 62.4675 28.2941V42.9831ZM74.821 42.6642C74.821 43.3161 74.9415 43.7909 75.1824 44.0885C75.4233 44.3861 75.8414 44.5349 76.4366 44.5349V44.9813C75.9972 44.9388 75.5579 44.9175 75.1186 44.9175C74.2258 44.9175 73.4889 45.0167 72.9078 45.2151V42.7067C72.5677 43.5854 72.0859 44.2302 71.4623 44.6412C70.8387 45.0521 70.1585 45.2576 69.4216 45.2576C68.4579 45.2576 67.721 44.9884 67.2108 44.4498C66.9557 44.1664 66.7715 43.805 66.6581 43.3657C66.5589 42.9264 66.5093 42.3595 66.5093 41.6651V36.3294C66.5093 35.6775 66.3888 35.2028 66.1479 34.9052C65.907 34.6076 65.4889 34.4588 64.8937 34.4588V34.0124C65.333 34.0549 65.7723 34.0761 66.2117 34.0761C67.1045 34.0761 67.8414 33.9769 68.4225 33.7785V42.1328C68.4225 42.6713 68.4508 43.1106 68.5075 43.4507C68.5783 43.7767 68.7271 44.0459 68.9539 44.2585C69.1948 44.4711 69.5562 44.5774 70.038 44.5774C70.5766 44.5774 71.0655 44.4073 71.5048 44.0672C71.9441 43.7271 72.2843 43.2665 72.5252 42.6855C72.7803 42.0902 72.9078 41.4383 72.9078 40.7298V36.3294C72.9078 35.6775 72.7874 35.2028 72.5464 34.9052C72.3055 34.6076 71.8874 34.4588 71.2922 34.4588V34.0124C71.7316 34.0549 72.1709 34.0761 72.6102 34.0761C73.503 34.0761 74.24 33.9769 74.821 33.7785V42.6642ZM68.2737 29.1656C68.5996 29.1656 68.883 29.2932 69.124 29.5483C69.379 29.7892 69.5066 30.0726 69.5066 30.3986C69.5066 30.7387 69.379 31.0292 69.124 31.2701C68.883 31.511 68.5996 31.6315 68.2737 31.6315C67.9335 31.6315 67.643 31.511 67.4021 31.2701C67.1612 31.0292 67.0407 30.7387 67.0407 30.3986C67.0407 30.0726 67.1612 29.7892 67.4021 29.5483C67.643 29.2932 67.9335 29.1656 68.2737 29.1656ZM72.7803 29.1656C73.1062 29.1656 73.3897 29.2932 73.6306 29.5483C73.8857 29.7892 74.0132 30.0726 74.0132 30.3986C74.0132 30.7387 73.8857 31.0292 73.6306 31.2701C73.3897 31.511 73.1062 31.6315 72.7803 31.6315C72.4401 31.6315 72.1496 31.511 71.9087 31.2701C71.6678 31.0292 71.5473 30.7387 71.5473 30.3986C71.5473 30.0726 71.6678 29.7892 71.9087 29.5483C72.1496 29.2932 72.4401 29.1656 72.7803 29.1656ZM81.327 33.7148C81.8372 33.7148 82.2907 33.7927 82.6875 33.9486C83.0843 34.1045 83.4031 34.2887 83.6441 34.5013C83.8 34.6147 83.9275 34.6713 84.0267 34.6713C84.2818 34.6713 84.4377 34.3596 84.4944 33.736H84.9833C84.9266 34.4304 84.8983 35.635 84.8983 37.3498H84.4093C84.2534 36.4145 83.9488 35.6421 83.4953 35.0327C83.0559 34.4233 82.397 34.1186 81.5183 34.1186C81.0081 34.1186 80.5901 34.2674 80.2641 34.5651C79.9382 34.8485 79.7752 35.2453 79.7752 35.7555C79.7752 36.2515 79.9452 36.6696 80.2854 37.0097C80.6255 37.3356 81.1711 37.7324 81.9222 38.2001C82.0497 38.271 82.2411 38.3914 82.4962 38.5615C83.1481 38.9866 83.6724 39.3622 84.0692 39.6881C84.466 40.0141 84.7849 40.3896 85.0258 40.8148C85.2809 41.2399 85.4084 41.7289 85.4084 42.2816C85.4084 43.2169 85.0542 43.9467 84.3456 44.4711C83.6511 44.9955 82.7938 45.2576 81.7734 45.2576C81.1357 45.2576 80.5759 45.1584 80.094 44.96C79.7823 44.8041 79.4917 44.6128 79.2225 44.3861C79.1658 44.3294 79.102 44.301 79.0312 44.301C78.932 44.301 78.8398 44.3719 78.7548 44.5136C78.684 44.6553 78.6273 44.8537 78.5848 45.1088H78.0958C78.1525 44.301 78.1809 42.8839 78.1809 40.8573H78.6698C78.8257 42.1894 79.1091 43.1886 79.5201 43.8546C79.9311 44.5065 80.6326 44.8325 81.6246 44.8325C82.1206 44.8325 82.5599 44.6695 82.9426 44.3436C83.3252 44.0176 83.5165 43.5074 83.5165 42.813C83.5165 42.2603 83.3252 41.7926 82.9426 41.41C82.5741 41.0274 81.9647 40.5668 81.1144 40.0283C80.42 39.5889 79.8815 39.2276 79.4988 38.9441C79.1304 38.6607 78.8186 38.3135 78.5635 37.9025C78.3084 37.4915 78.1809 37.0097 78.1809 36.457C78.1809 35.5642 78.4785 34.8839 79.0737 34.4163C79.6689 33.9486 80.42 33.7148 81.327 33.7148ZM96.6806 42.6642C96.6806 43.3161 96.8011 43.7909 97.042 44.0885C97.2829 44.3861 97.701 44.5349 98.2962 44.5349V44.9813C97.8569 44.9388 97.4175 44.9175 96.9782 44.9175C96.0854 44.9175 95.3485 45.0167 94.7674 45.2151V42.7067C94.4273 43.5854 93.9455 44.2302 93.3219 44.6412C92.6984 45.0521 92.0181 45.2576 91.2812 45.2576C90.3175 45.2576 89.5806 44.9884 89.0704 44.4498C88.8153 44.1664 88.6311 43.805 88.5177 43.3657C88.4185 42.9264 88.3689 42.3595 88.3689 41.6651V36.3294C88.3689 35.6775 88.2484 35.2028 88.0075 34.9052C87.7666 34.6076 87.3485 34.4588 86.7533 34.4588V34.0124C87.1926 34.0549 87.632 34.0761 88.0713 34.0761C88.9641 34.0761 89.701 33.9769 90.2821 33.7785V42.1328C90.2821 42.6713 90.3104 43.1106 90.3671 43.4507C90.438 43.7767 90.5868 44.0459 90.8135 44.2585C91.0544 44.4711 91.4158 44.5774 91.8977 44.5774C92.4362 44.5774 92.9251 44.4073 93.3644 44.0672C93.8038 43.7271 94.1439 43.2665 94.3848 42.6855C94.6399 42.0902 94.7674 41.4383 94.7674 40.7298V36.3294C94.7674 35.6775 94.647 35.2028 94.4061 34.9052C94.1651 34.6076 93.7471 34.4588 93.1519 34.4588V34.0124C93.5912 34.0549 94.0305 34.0761 94.4698 34.0761C95.3626 34.0761 96.0996 33.9769 96.6806 33.7785V42.6642ZM90.1333 29.1656C90.4592 29.1656 90.7427 29.2932 90.9836 29.5483C91.2387 29.7892 91.3662 30.0726 91.3662 30.3986C91.3662 30.7387 91.2387 31.0292 90.9836 31.2701C90.7427 31.511 90.4592 31.6315 90.1333 31.6315C89.7932 31.6315 89.5026 31.511 89.2617 31.2701C89.0208 31.0292 88.9003 30.7387 88.9003 30.3986C88.9003 30.0726 89.0208 29.7892 89.2617 29.5483C89.5026 29.2932 89.7932 29.1656 90.1333 29.1656ZM94.6399 29.1656C94.9658 29.1656 95.2493 29.2932 95.4902 29.5483C95.7453 29.7892 95.8728 30.0726 95.8728 30.3986C95.8728 30.7387 95.7453 31.0292 95.4902 31.2701C95.2493 31.511 94.9658 31.6315 94.6399 31.6315C94.2998 31.6315 94.0092 31.511 93.7683 31.2701C93.5274 31.0292 93.4069 30.7387 93.4069 30.3986C93.4069 30.0726 93.5274 29.7892 93.7683 29.5483C94.0092 29.2932 94.2998 29.1656 94.6399 29.1656ZM110.989 33.7148C112.193 33.7148 113.164 34.2108 113.901 35.2028C114.652 36.1948 115.028 37.6261 115.028 39.4968C115.028 40.7298 114.815 41.7785 114.39 42.6429C113.965 43.5074 113.391 44.1593 112.668 44.5986C111.959 45.038 111.166 45.2576 110.287 45.2576C109.763 45.2576 109.253 45.1513 108.757 44.9388C108.275 44.7262 107.85 44.4215 107.481 44.0247L105.972 45.3001L105.61 45.1513C105.71 44.797 105.759 44.3861 105.759 43.9184V30.8662C105.759 30.2143 105.639 29.7396 105.398 29.442C105.157 29.1444 104.739 28.9956 104.144 28.9956V28.5492C104.597 28.5917 105.037 28.6129 105.462 28.6129C106.354 28.6129 107.091 28.5137 107.672 28.3153V35.9893C107.984 35.2666 108.431 34.7068 109.012 34.31C109.607 33.9132 110.266 33.7148 110.989 33.7148ZM110.117 44.7687C111.067 44.7687 111.775 44.3436 112.243 43.4932C112.725 42.6288 112.966 41.2966 112.966 39.4968C112.966 37.7679 112.753 36.4782 112.328 35.6279C111.903 34.7776 111.251 34.3525 110.372 34.3525C109.777 34.3525 109.231 34.5863 108.735 35.054C108.239 35.5075 107.885 36.1523 107.672 36.9884V43.7271C107.998 44.0672 108.374 44.3294 108.799 44.5136C109.224 44.6837 109.664 44.7687 110.117 44.7687ZM119.077 28.698C119.445 28.698 119.764 28.8326 120.033 29.1019C120.303 29.3711 120.437 29.69 120.437 30.0584C120.437 30.4269 120.303 30.7458 120.033 31.015C119.764 31.2843 119.445 31.4189 119.077 31.4189C118.708 31.4189 118.389 31.2843 118.12 31.015C117.851 30.7458 117.716 30.4269 117.716 30.0584C117.716 29.69 117.851 29.3711 118.12 29.1019C118.389 28.8326 118.708 28.698 119.077 28.698ZM120.182 42.9831C120.182 43.5641 120.303 43.968 120.543 44.1947C120.784 44.4073 121.202 44.5136 121.798 44.5136V44.96C120.494 44.9033 119.636 44.875 119.225 44.875C118.814 44.875 117.957 44.9033 116.653 44.96V44.5136C117.249 44.5136 117.667 44.4073 117.907 44.1947C118.148 43.968 118.269 43.5641 118.269 42.9831V36.3294C118.269 35.6775 118.148 35.2028 117.907 34.9052C117.667 34.6076 117.249 34.4588 116.653 34.4588V34.0124C117.107 34.0549 117.546 34.0761 117.971 34.0761C118.864 34.0761 119.601 33.9769 120.182 33.7785V42.9831ZM129.492 33.7148C130.059 33.7148 130.52 33.8777 130.874 34.2037C131.242 34.5296 131.427 34.9264 131.427 35.3941C131.427 35.7626 131.313 36.0814 131.087 36.3507C130.874 36.6058 130.583 36.7333 130.215 36.7333C129.903 36.7333 129.634 36.6341 129.407 36.4357C129.195 36.2373 129.088 35.9681 129.088 35.6279C129.088 35.1603 129.329 34.7776 129.811 34.48C129.712 34.3383 129.563 34.2674 129.365 34.2674C128.812 34.2674 128.309 34.4871 127.855 34.9264C127.402 35.3516 127.048 35.8759 126.793 36.4995C126.537 37.1231 126.41 37.7112 126.41 38.2639V42.7705C126.41 43.4224 126.594 43.8759 126.963 44.131C127.345 44.3861 127.912 44.5136 128.663 44.5136V44.96L128.153 44.9388C126.707 44.8962 125.786 44.875 125.39 44.875C125.021 44.875 124.185 44.9033 122.881 44.96V44.5136C123.476 44.5136 123.894 44.4073 124.135 44.1947C124.376 43.968 124.497 43.5641 124.497 42.9831V36.3294C124.497 35.6775 124.376 35.2028 124.135 34.9052C123.894 34.6076 123.476 34.4588 122.881 34.4588V34.0124C123.335 34.0549 123.774 34.0761 124.199 34.0761C125.092 34.0761 125.829 33.9769 126.41 33.7785V36.4357C126.665 35.7271 127.069 35.0965 127.622 34.5438C128.188 33.9911 128.812 33.7148 129.492 33.7148ZM10.7723 63.9255C10.5172 63.9255 10.2976 63.8405 10.1134 63.6705C9.94329 63.5004 9.85826 63.2524 9.85826 62.9264C9.85826 62.643 9.92912 62.317 10.0708 61.9486C9.70237 62.1045 9.41185 62.2816 9.19928 62.48C8.9867 62.6643 8.79538 62.8981 8.62532 63.1815C8.95127 63.6775 9.11425 64.3082 9.11425 65.0735C9.11425 66.193 8.77413 67.0362 8.09388 67.6031C7.41364 68.1558 6.51373 68.4322 5.39417 68.4322H5.37291C4.90524 68.7014 4.55095 68.9494 4.31003 69.1762C4.06911 69.4029 3.94865 69.658 3.94865 69.9414C3.94865 70.3949 4.28877 70.6217 4.96902 70.6217H7.62622C8.58989 70.6217 9.38351 70.8343 10.0071 71.2594C10.6448 71.6704 10.9637 72.294 10.9637 73.1301C10.9637 73.8103 10.744 74.441 10.3047 75.022C9.86535 75.6031 9.22054 76.0707 8.37023 76.425C7.51993 76.7793 6.49248 76.9565 5.28788 76.9565C4.05494 76.9565 3.0204 76.7651 2.18427 76.3825C1.36231 76.014 0.951328 75.4613 0.951328 74.7244C0.951328 74.2426 1.14265 73.8245 1.52528 73.4702C1.92209 73.1159 2.4677 72.8396 3.16212 72.6412L3.28966 72.9813C2.97789 73.0805 2.72988 73.2789 2.54565 73.5765C2.36142 73.8741 2.2693 74.2071 2.2693 74.5756C2.2693 75.2275 2.55982 75.7235 3.14086 76.0636C3.73607 76.4179 4.52969 76.5951 5.52171 76.5951C6.61294 76.5951 7.54827 76.3825 8.32772 75.9573C9.10716 75.5464 9.49688 74.9015 9.49688 74.0229C9.49688 73.5127 9.31265 73.1159 8.94419 72.8325C8.58989 72.549 7.95217 72.4073 7.031 72.4073H5.45794C4.62181 72.4073 3.94865 72.301 3.43847 72.0885C2.94246 71.8759 2.69445 71.4507 2.69445 70.813C2.69445 70.3737 2.85034 69.9556 3.16212 69.5588C3.48807 69.162 4.01951 68.7723 4.75644 68.3896C3.8211 68.2904 3.07 67.9645 2.50313 67.4118C1.95044 66.8591 1.67409 66.0796 1.67409 65.0735C1.67409 63.9539 2.01421 63.1178 2.69445 62.5651C3.37469 61.9982 4.2746 61.7148 5.39417 61.7148C6.72631 61.7148 7.71125 62.0832 8.34897 62.8201C8.61824 62.4375 8.95836 62.1257 9.36934 61.8848C9.78032 61.6297 10.1913 61.5022 10.6023 61.5022C10.9707 61.5022 11.2684 61.6085 11.4951 61.821C11.7218 62.0336 11.8352 62.3383 11.8352 62.7351C11.8352 63.1319 11.7218 63.4295 11.4951 63.6279C11.2825 63.8263 11.0416 63.9255 10.7723 63.9255ZM5.39417 68.0495C5.96104 68.0495 6.38619 67.8299 6.66962 67.3905C6.96723 66.937 7.11603 66.1647 7.11603 65.0735C7.11603 63.9822 6.96723 63.217 6.66962 62.7776C6.38619 62.3241 5.96104 62.0974 5.39417 62.0974C4.8273 62.0974 4.39506 62.3241 4.09745 62.7776C3.81402 63.217 3.6723 63.9822 3.6723 65.0735C3.6723 66.1647 3.81402 66.937 4.09745 67.3905C4.39506 67.8299 4.8273 68.0495 5.39417 68.0495ZM19.2184 61.7148C19.7853 61.7148 20.2459 61.8777 20.6002 62.2037C20.9686 62.5296 21.1529 62.9264 21.1529 63.3941C21.1529 63.7626 21.0395 64.0814 20.8127 64.3507C20.6002 64.6058 20.3096 64.7333 19.9412 64.7333C19.6294 64.7333 19.3601 64.6341 19.1334 64.4357C18.9208 64.2373 18.8145 63.9681 18.8145 63.6279C18.8145 63.1603 19.0554 62.7776 19.5373 62.48C19.4381 62.3383 19.2893 62.2674 19.0909 62.2674C18.5382 62.2674 18.0351 62.4871 17.5816 62.9264C17.1281 63.3516 16.7738 63.8759 16.5187 64.4995C16.2636 65.1231 16.1361 65.7112 16.1361 66.2639V70.7705C16.1361 71.4224 16.3203 71.8759 16.6888 72.131C17.0714 72.3861 17.6383 72.5136 18.3894 72.5136V72.96L17.8792 72.9388C16.4337 72.8962 15.5125 72.875 15.1157 72.875C14.7472 72.875 13.9111 72.9033 12.6073 72.96V72.5136C13.2025 72.5136 13.6206 72.4073 13.8615 72.1947C14.1024 71.968 14.2229 71.5641 14.2229 70.9831V64.3294C14.2229 63.6775 14.1024 63.2028 13.8615 62.9052C13.6206 62.6076 13.2025 62.4588 12.6073 62.4588V62.0124C13.0608 62.0549 13.5001 62.0761 13.9253 62.0761C14.8181 62.0761 15.555 61.9769 16.1361 61.7785V64.4357C16.3912 63.7271 16.7951 63.0965 17.3477 62.5438C17.9146 61.9911 18.5382 61.7148 19.2184 61.7148ZM31.7245 70.6642C31.7245 71.3161 31.845 71.7909 32.0859 72.0885C32.3268 72.3861 32.7449 72.5349 33.3401 72.5349V72.9813C32.9008 72.9388 32.4615 72.9175 32.0221 72.9175C31.1293 72.9175 30.3924 73.0167 29.8113 73.2151V70.7067C29.4712 71.5854 28.9894 72.2302 28.3658 72.6412C27.7423 73.0521 27.062 73.2576 26.3251 73.2576C25.3614 73.2576 24.6245 72.9884 24.1143 72.4498C23.8592 72.1664 23.675 71.805 23.5616 71.3657C23.4624 70.9264 23.4128 70.3595 23.4128 69.6651V64.3294C23.4128 63.6775 23.2923 63.2028 23.0514 62.9052C22.8105 62.6076 22.3924 62.4588 21.7972 62.4588V62.0124C22.2366 62.0549 22.6759 62.0761 23.1152 62.0761C24.008 62.0761 24.7449 61.9769 25.326 61.7785V70.1328C25.326 70.6713 25.3543 71.1106 25.411 71.4507C25.4819 71.7767 25.6307 72.0459 25.8574 72.2585C26.0984 72.4711 26.4597 72.5774 26.9416 72.5774C27.4801 72.5774 27.969 72.4073 28.4083 72.0672C28.8477 71.7271 29.1878 71.2665 29.4287 70.6855C29.6838 70.0902 29.8113 69.4383 29.8113 68.7298V64.3294C29.8113 63.6775 29.6909 63.2028 29.45 62.9052C29.209 62.6076 28.791 62.4588 28.1958 62.4588V62.0124C28.6351 62.0549 29.0744 62.0761 29.5137 62.0761C30.4066 62.0761 31.1435 61.9769 31.7245 61.7785V70.6642ZM41.2066 61.7148C41.9577 61.7148 42.6308 61.9202 43.2261 62.3312C43.8354 62.7422 44.3102 63.3445 44.6503 64.1381C44.9904 64.9317 45.1605 65.8812 45.1605 66.9866C45.1605 68.0779 44.9833 69.0982 44.6291 70.0477C44.2889 70.9972 43.7504 71.7696 43.0135 72.3648C42.2907 72.96 41.3837 73.2576 40.2925 73.2576C39.754 73.2576 39.2651 73.1513 38.8257 72.9388C38.3864 72.7262 38.0463 72.4498 37.8054 72.1097V74.8307C37.8054 75.4117 37.9754 75.8085 38.3155 76.0211C38.6557 76.2479 39.1659 76.3612 39.8461 76.3612V76.8076L39.3572 76.7864C38.0392 76.7439 37.1818 76.7226 36.785 76.7226C36.4449 76.7226 35.6796 76.751 34.4892 76.8076V76.3612C35.0135 76.3612 35.3749 76.262 35.5733 76.0636C35.7859 75.8794 35.8922 75.5393 35.8922 75.0433V64.3294C35.8922 63.6775 35.7717 63.2028 35.5308 62.9052C35.2899 62.6076 34.8718 62.4588 34.2766 62.4588V62.0124C34.7159 62.0549 35.1553 62.0761 35.5946 62.0761C36.4874 62.0761 37.2243 61.9769 37.8054 61.7785V64.0318C38.1171 63.2949 38.5706 62.728 39.1659 62.3312C39.7611 61.9202 40.4413 61.7148 41.2066 61.7148ZM40.0587 72.7687C42.0852 72.7687 43.0985 70.9405 43.0985 67.2842C43.0985 63.9964 42.2765 62.3525 40.6326 62.3525C39.9949 62.3525 39.4209 62.5863 38.9108 63.054C38.4006 63.5075 38.0321 64.1665 37.8054 65.0309V71.4082C38.0038 71.8192 38.2943 72.1522 38.6769 72.4073C39.0596 72.6482 39.5201 72.7687 40.0587 72.7687ZM61.7431 70.6429C61.7431 71.2948 61.8635 71.7696 62.1045 72.0672C62.3454 72.3648 62.7635 72.5136 63.3587 72.5136V72.96C62.9193 72.9175 62.48 72.8962 62.0407 72.8962C61.1479 72.8962 60.4109 72.9955 59.8299 73.1939V71.3019C59.5748 71.9397 59.1922 72.4286 58.682 72.7687C58.1718 73.0947 57.5483 73.2576 56.8113 73.2576C55.4508 73.2576 54.3809 72.7687 53.6014 71.7909C52.8362 70.813 52.4606 69.3817 52.4748 67.4968C52.4748 66.2639 52.6873 65.2152 53.1125 64.3507C53.5518 63.472 54.1329 62.8131 54.8556 62.3737C55.5926 61.9344 56.4003 61.7148 57.279 61.7148C57.8175 61.7148 58.3064 61.821 58.7458 62.0336C59.1993 62.232 59.5606 62.5438 59.8299 62.9689V58.845C59.8299 58.1931 59.7094 57.7183 59.4685 57.4207C59.2276 57.1231 58.8095 56.9743 58.2143 56.9743V56.5279C58.6678 56.5704 59.1071 56.5917 59.5323 56.5917C60.4251 56.5917 61.162 56.4925 61.7431 56.2941V70.6429ZM57.4278 72.6199C57.9805 72.6199 58.4765 72.4073 58.9158 71.9822C59.3551 71.557 59.6598 70.9547 59.8299 70.1753V63.8405C59.4473 62.7493 58.6536 62.2037 57.4491 62.2037C56.5704 62.2037 55.8618 62.6572 55.3233 63.5642C54.7848 64.457 54.5226 65.7679 54.5368 67.4968C54.5226 69.1974 54.7635 70.48 55.2595 71.3444C55.7555 72.1947 56.4783 72.6199 57.4278 72.6199ZM73.6485 70.4091C73.3934 71.1886 72.9116 71.8617 72.203 72.4286C71.5086 72.9813 70.6654 73.2576 69.6733 73.2576C68.6671 73.2576 67.7956 73.0309 67.0586 72.5774C66.3217 72.1097 65.7548 71.4649 65.358 70.6429C64.9754 69.8068 64.7841 68.8431 64.7841 67.7519C64.7841 66.519 64.9825 65.449 65.3793 64.542C65.7761 63.635 66.3359 62.9406 67.0586 62.4588C67.7814 61.9628 68.6246 61.7148 69.5883 61.7148C70.8638 61.7148 71.8416 62.1045 72.5218 62.8839C73.2163 63.6492 73.5635 64.8184 73.5635 66.3914H66.9098C66.8673 66.7882 66.8461 67.2417 66.8461 67.7519C66.8461 68.6872 66.9949 69.5021 67.2925 70.1965C67.6043 70.8909 68.0082 71.4295 68.5042 71.8121C69.0143 72.1806 69.5458 72.3648 70.0985 72.3648C70.7787 72.3648 71.381 72.2018 71.9054 71.8759C72.4297 71.5499 72.8691 71.0043 73.2233 70.239L73.6485 70.4091ZM69.5033 62.1186C68.8372 62.1186 68.2632 62.4446 67.7814 63.0965C67.2996 63.7484 67.002 64.7121 66.8886 65.9875H71.5227C71.5511 64.8821 71.3881 63.961 71.0338 63.224C70.6937 62.4871 70.1835 62.1186 69.5033 62.1186ZM83.1922 62.0761C83.8157 62.0761 84.3543 62.0549 84.8077 62.0124V62.4375C84.5243 62.4659 84.2692 62.5934 84.0425 62.8201C83.8299 63.0469 83.6244 63.4154 83.426 63.9255L79.9398 73.0663H79.5784L75.667 63.6492C75.4544 63.1674 75.2489 62.8485 75.0505 62.6926C74.8521 62.5367 74.6466 62.4588 74.434 62.4588V62.0124C75.171 62.069 75.7945 62.0974 76.3047 62.0974C77.3959 62.0974 78.3171 62.069 79.0682 62.0124V62.4588C78.5438 62.4588 78.1612 62.5013 77.9203 62.5863C77.6794 62.6572 77.5589 62.8556 77.5589 63.1815C77.5589 63.3799 77.6369 63.6917 77.7927 64.1169L80.4074 70.5792L82.7458 64.4357C82.9017 64.0106 82.9796 63.6775 82.9796 63.4366C82.9796 63.1107 82.852 62.8768 82.597 62.7351C82.356 62.5792 81.9592 62.48 81.4065 62.4375V62.0124C82.1435 62.0549 82.7387 62.0761 83.1922 62.0761ZM94.5324 70.4091C94.2773 71.1886 93.7955 71.8617 93.0869 72.4286C92.3925 72.9813 91.5493 73.2576 90.5573 73.2576C89.5511 73.2576 88.6795 73.0309 87.9426 72.5774C87.2056 72.1097 86.6388 71.4649 86.242 70.6429C85.8593 69.8068 85.668 68.8431 85.668 67.7519C85.668 66.519 85.8664 65.449 86.2632 64.542C86.66 63.635 87.2198 62.9406 87.9426 62.4588C88.6653 61.9628 89.5086 61.7148 90.4722 61.7148C91.7477 61.7148 92.7255 62.1045 93.4058 62.8839C94.1002 63.6492 94.4474 64.8184 94.4474 66.3914H87.7938C87.7513 66.7882 87.73 67.2417 87.73 67.7519C87.73 68.6872 87.8788 69.5021 88.1764 70.1965C88.4882 70.8909 88.8921 71.4295 89.3881 71.8121C89.8983 72.1806 90.4297 72.3648 90.9824 72.3648C91.6627 72.3648 92.265 72.2018 92.7893 71.8759C93.3137 71.5499 93.753 71.0043 94.1073 70.239L94.5324 70.4091ZM90.3872 62.1186C89.7211 62.1186 89.1472 62.4446 88.6653 63.0965C88.1835 63.7484 87.8859 64.7121 87.7725 65.9875H92.4067C92.435 64.8821 92.272 63.961 91.9177 63.224C91.5776 62.4871 91.0674 62.1186 90.3872 62.1186ZM99.4399 70.9831C99.4399 71.5641 99.5604 71.968 99.8013 72.1947C100.042 72.4073 100.46 72.5136 101.056 72.5136V72.96C99.7517 72.9033 98.8943 72.875 98.4834 72.875C98.0724 72.875 97.215 72.9033 95.9112 72.96V72.5136C96.5064 72.5136 96.9245 72.4073 97.1654 72.1947C97.4063 71.968 97.5268 71.5641 97.5268 70.9831V58.845C97.5268 58.1931 97.4063 57.7183 97.1654 57.4207C96.9245 57.1231 96.5064 56.9743 95.9112 56.9743V56.5279C96.3505 56.5704 96.7898 56.5917 97.2292 56.5917C98.122 56.5917 98.8589 56.4925 99.4399 56.2941V70.9831ZM107.143 61.7148C108.589 61.7148 109.751 62.1966 110.629 63.1603C111.522 64.1098 111.968 65.5553 111.968 67.4968C111.968 69.4383 111.522 70.8839 110.629 71.8334C109.751 72.7829 108.589 73.2576 107.143 73.2576C105.697 73.2576 104.528 72.7829 103.636 71.8334C102.757 70.8839 102.318 69.4383 102.318 67.4968C102.318 65.5553 102.757 64.1098 103.636 63.1603C104.528 62.1966 105.697 61.7148 107.143 61.7148ZM107.143 62.1399C106.293 62.1399 105.62 62.5792 105.124 63.4579C104.628 64.3223 104.38 65.6687 104.38 67.4968C104.38 69.325 104.628 70.6713 105.124 71.5358C105.62 72.4002 106.293 72.8325 107.143 72.8325C107.993 72.8325 108.666 72.4002 109.162 71.5358C109.658 70.6713 109.906 69.325 109.906 67.4968C109.906 65.6687 109.658 64.3223 109.162 63.4579C108.666 62.5792 107.993 62.1399 107.143 62.1399ZM120.362 61.7148C121.113 61.7148 121.786 61.9202 122.382 62.3312C122.991 62.7422 123.466 63.3445 123.806 64.1381C124.146 64.9317 124.316 65.8812 124.316 66.9866C124.316 68.0779 124.139 69.0982 123.785 70.0477C123.444 70.9972 122.906 71.7696 122.169 72.3648C121.446 72.96 120.539 73.2576 119.448 73.2576C118.909 73.2576 118.421 73.1513 117.981 72.9388C117.542 72.7262 117.202 72.4498 116.961 72.1097V74.8307C116.961 75.4117 117.131 75.8085 117.471 76.0211C117.811 76.2479 118.321 76.3612 119.002 76.3612V76.8076L118.513 76.7864C117.195 76.7439 116.337 76.7226 115.94 76.7226C115.6 76.7226 114.835 76.751 113.645 76.8076V76.3612C114.169 76.3612 114.53 76.262 114.729 76.0636C114.941 75.8794 115.048 75.5393 115.048 75.0433V64.3294C115.048 63.6775 114.927 63.2028 114.686 62.9052C114.445 62.6076 114.027 62.4588 113.432 62.4588V62.0124C113.871 62.0549 114.311 62.0761 114.75 62.0761C115.643 62.0761 116.38 61.9769 116.961 61.7785V64.0318C117.273 63.2949 117.726 62.728 118.321 62.3312C118.917 61.9202 119.597 61.7148 120.362 61.7148ZM119.214 72.7687C121.241 72.7687 122.254 70.9405 122.254 67.2842C122.254 63.9964 121.432 62.3525 119.788 62.3525C119.15 62.3525 118.576 62.5863 118.066 63.054C117.556 63.5075 117.188 64.1665 116.961 65.0309V71.4082C117.159 71.8192 117.45 72.1522 117.832 72.4073C118.215 72.6482 118.676 72.7687 119.214 72.7687ZM135.159 70.4091C134.903 71.1886 134.422 71.8617 133.713 72.4286C133.019 72.9813 132.175 73.2576 131.183 73.2576C130.177 73.2576 129.306 73.0309 128.569 72.5774C127.832 72.1097 127.265 71.4649 126.868 70.6429C126.485 69.8068 126.294 68.8431 126.294 67.7519C126.294 66.519 126.493 65.449 126.889 64.542C127.286 63.635 127.846 62.9406 128.569 62.4588C129.291 61.9628 130.135 61.7148 131.098 61.7148C132.374 61.7148 133.352 62.1045 134.032 62.8839C134.726 63.6492 135.074 64.8184 135.074 66.3914H128.42C128.377 66.7882 128.356 67.2417 128.356 67.7519C128.356 68.6872 128.505 69.5021 128.803 70.1965C129.114 70.8909 129.518 71.4295 130.014 71.8121C130.524 72.1806 131.056 72.3648 131.609 72.3648C132.289 72.3648 132.891 72.2018 133.415 71.8759C133.94 71.5499 134.379 71.0043 134.733 70.239L135.159 70.4091ZM131.013 62.1186C130.347 62.1186 129.773 62.4446 129.291 63.0965C128.81 63.7484 128.512 64.7121 128.399 65.9875H133.033C133.061 64.8821 132.898 63.961 132.544 63.224C132.204 62.4871 131.694 62.1186 131.013 62.1186ZM143.297 61.7148C143.864 61.7148 144.325 61.8777 144.679 62.2037C145.047 62.5296 145.232 62.9264 145.232 63.3941C145.232 63.7626 145.118 64.0814 144.892 64.3507C144.679 64.6058 144.388 64.7333 144.02 64.7333C143.708 64.7333 143.439 64.6341 143.212 64.4357C143 64.2373 142.893 63.9681 142.893 63.6279C142.893 63.1603 143.134 62.7776 143.616 62.48C143.517 62.3383 143.368 62.2674 143.17 62.2674C142.617 62.2674 142.114 62.4871 141.66 62.9264C141.207 63.3516 140.853 63.8759 140.597 64.4995C140.342 65.1231 140.215 65.7112 140.215 66.2639V70.7705C140.215 71.4224 140.399 71.8759 140.768 72.131C141.15 72.3861 141.717 72.5136 142.468 72.5136V72.96L141.958 72.9388C140.512 72.8962 139.591 72.875 139.194 72.875C138.826 72.875 137.99 72.9033 136.686 72.96V72.5136C137.281 72.5136 137.699 72.4073 137.94 72.1947C138.181 71.968 138.302 71.5641 138.302 70.9831V64.3294C138.302 63.6775 138.181 63.2028 137.94 62.9052C137.699 62.6076 137.281 62.4588 136.686 62.4588V62.0124C137.14 62.0549 137.579 62.0761 138.004 62.0761C138.897 62.0761 139.634 61.9769 140.215 61.7785V64.4357C140.47 63.7271 140.874 63.0965 141.427 62.5438C141.993 61.9911 142.617 61.7148 143.297 61.7148Z" fill="#202F5A"/>
</svg>
