<svg width="95" height="78" viewBox="0 0 95 78" fill="none" xmlns="http://www.w3.org/2000/svg">
<mask id="mask0" mask-type="alpha" maskUnits="userSpaceOnUse" x="0" y="0" width="79" height="69">
<path fill-rule="evenodd" clip-rule="evenodd" d="M0 0.28H78.7331V68.3046H0V0.28Z" fill="white"/>
</mask>
<g mask="url(#mask0)">
<path fill-rule="evenodd" clip-rule="evenodd" d="M15.7492 7.40914C15.7848 7.29742 15.8203 7.18598 15.8562 7.07426C15.099 6.8385 14.4091 6.39078 13.5966 6.33086C13.5694 6.41122 13.5425 6.49158 13.5156 6.57194C14.2602 6.8511 15.0047 7.12998 15.7492 7.40914ZM38.6109 7.21342C39.5016 7.64994 40.1932 7.99798 40.8954 8.32306C40.9876 8.36562 41.1928 8.33062 41.239 8.2609C41.2894 8.18474 41.2564 7.9501 41.1908 7.91566C40.5429 7.57434 39.8858 7.24842 39.2163 6.95274C39.1244 6.91214 38.9489 7.06138 38.6109 7.21342ZM22.474 23.6909C22.5316 23.6307 22.5896 23.5707 22.6473 23.5105C22.4555 23.1997 22.3004 22.857 22.0638 22.5854C21.5948 22.047 21.1143 21.5063 20.5641 21.0583C20.402 20.9261 19.9887 21.1023 19.6908 21.1373C19.7683 21.3918 19.7655 21.7502 19.9374 21.8835C20.757 22.5193 21.6239 23.0942 22.474 23.6909ZM5.88593 10.6499L5.93997 10.7599C9.38201 10.2595 12.8238 9.7589 16.2658 9.25826C14.9064 8.61482 13.5053 8.17466 12.1893 7.55362C11.0838 7.03198 10.2598 7.12186 9.34197 7.96046C8.26761 8.94186 7.04429 9.76058 5.88593 10.6499ZM38.5527 31.4443C38.4491 31.2948 38.3875 31.2047 38.3245 31.1156C37.3028 29.6705 36.211 28.2691 35.2761 26.77C33.9954 24.7173 33.0731 22.4925 32.8838 20.0506C32.6492 17.0238 33.4416 14.4203 36.1802 12.6972C36.9572 12.2083 37.419 11.4512 37.8454 10.7078C37.5321 11.0567 37.1689 11.3538 36.7848 11.6212C36.3835 11.9003 35.961 12.1484 35.5505 12.4141C31.3105 15.1579 29.5283 19.1045 29.8371 24.0778C29.859 24.4278 29.9214 24.6571 30.3288 24.7915C32.0984 25.3759 33.1557 26.6488 33.5309 28.4425C33.7336 29.411 33.7708 30.4139 33.8879 31.4443H38.5527ZM5.75993 26.1428C6.00241 27.7229 6.26057 29.1909 6.43753 30.6687C6.50473 31.2307 6.68757 31.4001 7.25205 31.3934C9.74797 31.3637 12.2444 31.3813 14.7406 31.3788C14.9638 31.3785 15.187 31.3542 15.3998 31.3416C15.8088 26.4335 16.3851 25.6968 20.8827 24.2164C20.5966 24.1139 20.2914 24.0047 20.0072 24.0451C16.9154 24.4847 13.827 24.9478 10.7378 25.4047C9.10453 25.6464 7.47129 25.8891 5.75993 26.1428ZM47.975 45.9195C47.9114 46.3947 47.8285 46.7267 47.828 47.0588C47.819 51.3456 47.8179 55.6321 47.824 59.9187C47.8263 61.3604 48.7735 62.3331 50.1466 62.3373C51.5794 62.3415 52.5409 61.378 52.5423 59.9243C52.5454 56.9425 52.4345 53.9549 52.588 50.9808C52.6675 49.4357 52.2301 48.4835 50.8679 47.7935C49.8935 47.2999 49.0205 46.6072 47.975 45.9195ZM32.4187 31.3424C32.5772 30.2042 32.4518 29.1282 32.0561 28.095C31.5521 26.7795 30.5587 26.0681 29.1671 25.8824C27.8203 25.7027 26.532 25.9519 25.2462 26.3262C24.9192 26.4217 24.474 26.4606 24.1957 26.3131C23.079 25.7211 21.9263 25.5643 20.6859 25.7164C17.9797 26.0479 16.205 28.6343 16.8846 31.3424H32.4187ZM62.269 53.573C62.9443 53.4512 63.5088 53.0015 63.707 52.2864C63.8893 51.6287 63.6496 51.0978 63.0818 50.7229C61.4346 49.6351 59.7837 48.5529 58.137 47.464C54.0918 44.7886 50.0458 42.1146 46.0052 39.4325C43.5876 37.8278 41.181 36.2066 38.7663 34.5974C37.8838 34.0097 37.1927 34.1783 36.6868 35.0877C36.2124 35.9409 36.3961 36.514 37.3702 37.1622C41.0632 39.6195 44.7614 42.0687 48.4518 44.5293C52.6781 47.3475 56.8966 50.178 61.1255 52.9926C61.4788 53.2278 61.8865 53.3815 62.269 53.573ZM39.1743 11.0038C38.4712 12.5007 37.3736 13.6013 35.9974 14.4444C35.863 14.5265 35.7653 14.6726 35.66 14.7969C34.015 16.7432 33.8784 19.0009 34.4263 21.3363C35.2918 25.0256 37.4433 28.0079 39.8289 30.8491C40.1599 31.2433 40.5177 31.3878 41.0315 31.3797C45.3455 31.3116 49.66 31.2699 53.9745 31.2184C54.1812 31.2159 54.3878 31.1968 54.5944 31.1856C54.6353 31.1184 54.6762 31.0509 54.7168 30.9837C54.5107 30.8281 54.3256 30.5931 54.0944 30.5313C53.428 30.3529 52.7159 30.3215 52.0702 30.0939C50.0111 29.3684 47.924 28.6894 45.9413 27.7873C43.7134 26.7734 42.0003 25.0906 41.0343 22.815C39.4394 19.0577 38.0828 15.2365 39.1743 11.0038ZM3.77753 12.513C4.38345 16.6472 4.97705 20.6946 5.58325 24.8305C10.0534 24.1657 14.4511 23.5122 18.9353 22.8455C18.4028 22.1324 17.9192 21.459 18.3832 20.7595C18.7516 20.2046 19.3923 19.8302 20.0307 19.2722C19.6213 16.4599 19.1795 13.4247 18.7306 10.3424C13.7405 11.0668 8.81557 11.7816 3.77753 12.513ZM61.3926 17.9049C62.9855 17.1932 64.5762 16.4834 66.166 15.7713C66.5896 15.5815 66.9758 15.6302 67.1743 16.0665C67.3857 16.531 67.1054 16.8216 66.6815 16.9751C64.1405 17.8954 61.8064 19.1641 59.7834 20.9813C58.2683 22.3424 57.0103 23.8927 56.1162 25.6133C57.6616 24.8218 59.2444 24.0061 60.8326 23.2009C61.2789 22.9743 61.7759 22.8441 62.0181 23.431C62.244 23.9787 61.8086 24.1951 61.3777 24.3987C60.368 24.8764 59.3458 25.3378 58.3789 25.8936C56.8969 26.7454 55.6218 27.8637 54.5309 29.0705C54.9472 29.3883 55.4336 29.6047 55.6668 29.9791C55.9191 30.3837 55.9348 30.9356 56.0681 31.4819C57.9147 31.4819 59.8005 31.4659 61.6854 31.4931C62.16 31.4998 62.447 31.3598 62.6974 30.9501C65.4436 26.4581 68.3192 22.0405 70.9288 17.4709C72.9703 13.8962 74.7486 10.1655 76.5114 6.44118C77.0432 5.31782 77.2254 3.99706 77.3929 2.74322C77.5102 1.8643 77.1498 1.59074 76.2841 1.63834C75.8039 1.66438 75.3004 1.75062 74.86 1.93542C72.0642 3.10862 70.2666 5.38446 68.3606 7.83558C69.2989 7.38926 70.0485 7.03282 70.798 6.67582C71.2217 6.47394 71.6921 6.31294 71.9533 6.83738C72.2342 7.40158 71.8265 7.67038 71.3488 7.87198C66.6988 9.83254 63.7079 13.4591 61.4172 17.7848C61.3886 17.8391 61.3917 17.9103 61.3926 17.9049ZM36.5888 38.4961C36.1083 37.9151 35.5455 37.4282 35.2344 36.8139C34.7125 35.7835 35.1921 34.3143 36.1662 33.4956C37.151 32.6677 38.2349 32.5974 39.3683 33.3439C41.7352 34.9026 44.0765 36.5011 46.4579 38.0372C46.8737 38.3055 47.4343 38.4749 47.9288 38.4771C54.275 38.5059 60.6214 38.4933 66.9676 38.4995C67.8524 38.5003 68.7375 38.572 69.622 38.5619C70.3803 38.553 70.6258 38.2842 70.6317 37.5366C70.6418 36.2769 70.6264 35.0169 70.6373 33.7569C70.6426 33.1493 70.3394 32.8511 69.7604 32.8046C69.505 32.7841 69.2474 32.7928 68.9909 32.7928C46.9891 32.7923 24.987 32.7923 2.98513 32.7923C2.77513 32.7923 2.56485 32.7847 2.35541 32.7953C1.57953 32.8354 1.31493 33.1022 1.30989 33.877C1.30205 35.0437 1.30513 36.2102 1.30849 37.3767C1.31129 38.3155 1.55685 38.5701 2.52425 38.567C3.43257 38.5642 4.34061 38.5001 5.24893 38.4995C15.4213 38.4945 25.594 38.4961 35.7667 38.4961H36.5888ZM53.8622 49.8454V50.7324C53.8625 53.8583 53.872 56.9843 53.8597 60.1102C53.8516 62.1309 52.2234 63.6777 50.1458 63.6737C48.1228 63.6698 46.5195 62.1015 46.517 60.1043C46.512 55.7187 46.5106 51.333 46.5243 46.9474C46.5257 46.5358 46.5713 46.0942 46.7264 45.7204C46.9168 45.2607 46.7558 45.0731 46.3932 44.8342C44.0639 43.3004 41.7567 41.7332 39.4218 40.2081C39.1174 40.0093 38.6972 39.8984 38.3304 39.8978C27.4129 39.8819 16.4957 39.8847 5.57821 39.8847H4.80989C5.10837 42.4811 5.39145 44.9818 5.68461 47.4811C6.41009 53.6623 7.14257 59.8431 7.86637 66.0246C7.97921 66.9892 7.96549 66.9912 8.92729 66.9912C26.8896 66.9912 44.8521 66.9912 62.8144 66.9912C62.9776 66.9912 63.142 66.9794 63.3041 66.9929C63.6782 67.0237 63.8395 66.8755 63.8818 66.4855C64.1013 64.446 64.3446 62.4093 64.5832 60.3717C65.1689 55.3709 65.7572 50.3707 66.3427 45.3696C66.5535 43.5678 66.7585 41.7654 66.9699 39.9328H49.2982C49.6102 40.1498 49.8118 40.2963 50.0195 40.4335C54.5337 43.4191 59.0585 46.3891 63.5508 49.4072C64.1223 49.7911 64.6579 50.3564 64.9749 50.9609C65.4926 51.9479 64.9584 53.4781 63.9957 54.2643C63.0549 55.0324 61.7717 55.0903 60.6898 54.3761C58.8087 53.134 56.9406 51.872 55.0651 50.6207C54.7084 50.3827 54.3444 50.1556 53.8622 49.8454ZM63.956 31.4819C65.7852 31.4819 67.5005 31.4777 69.2158 31.4852C69.5635 31.4869 69.9177 31.4984 70.2577 31.5645C71.2606 31.7591 71.9511 32.5478 71.9715 33.5715C71.9992 34.9707 72.0018 36.3715 71.9712 37.7704C71.9452 38.9777 71.0755 39.8015 69.799 39.8763C69.3353 39.9031 68.8689 39.8805 68.327 39.8805C68.2047 40.8498 68.0779 41.7878 67.9687 42.7281C67.0172 50.9018 66.0691 59.0759 65.1199 67.2499C65.0132 68.1686 64.8648 68.3038 63.919 68.3038C45.2327 68.3049 26.546 68.3049 7.85965 68.3038C6.91157 68.3038 6.78165 68.2027 6.66909 67.2451C6.08445 62.2673 5.51157 57.2883 4.93225 52.3099C4.46073 48.2578 3.98585 44.2059 3.51041 40.1543C3.50257 40.0885 3.46701 40.0261 3.41689 39.8841C3.06773 39.8841 2.70149 39.8919 2.33581 39.883C0.825207 39.8449 0.00844735 39.0197 0.00340735 37.5243C-0.00051265 36.2878 -0.00191265 35.0513 0.00424735 33.8148C0.0109674 32.3546 0.822967 31.5197 2.29185 31.4866C3.24497 31.4651 4.19865 31.4824 5.22905 31.4824C4.96109 29.7019 4.69649 27.9847 4.44505 26.2657C3.76689 21.6309 3.11253 16.9927 2.40245 12.3629C2.28121 11.5741 2.71829 11.3496 3.23377 10.9791C4.82389 9.83618 6.35913 8.61762 7.91593 7.42818C8.02709 7.34334 8.12817 7.23974 8.24997 7.17478C9.45565 6.5333 10.1094 5.6681 9.57717 4.22386C9.42009 3.79798 9.55337 3.33542 10.0982 3.26766C10.6252 3.20186 10.8254 3.57006 10.8685 4.0497C10.8915 4.3045 10.9704 4.5565 10.973 4.81046C10.9808 5.60818 11.3577 6.04974 12.1604 6.11498C12.1966 6.08698 12.2498 6.06542 12.2643 6.02874C12.8414 4.57134 12.8218 4.47978 14.4508 5.13162C15.1424 5.40854 15.8483 5.64934 16.5455 5.91282C17.467 6.26142 17.5406 6.43642 17.1845 7.37162C17.119 7.54326 17.0596 7.71742 16.9666 7.97558C17.7439 8.25558 18.4935 8.5577 19.264 8.79066C19.7185 8.92814 19.9965 9.15046 20.057 9.63066C20.2986 11.5478 20.5369 13.4653 20.7931 15.3805C20.9692 16.6973 21.1678 18.0108 21.3677 19.324C21.4055 19.5721 21.4298 19.8652 21.5746 20.0464C22.4692 21.1661 23.3966 22.2598 24.2864 23.3302C24.7098 22.4381 25.3627 21.5377 26.4542 21.079C26.707 20.9729 27.0503 20.9595 27.3096 21.0401C27.4574 21.086 27.6358 21.4385 27.5932 21.5979C27.531 21.8297 27.3233 22.0949 27.1068 22.201C26 22.7428 25.4546 23.6461 25.2583 24.8635C26.3391 24.7089 27.3852 24.5594 28.3744 24.4177C28.478 23.0721 28.4702 21.6928 28.7082 20.3575C29.4233 16.349 31.5493 13.2589 35.0628 11.1765C35.9386 10.6574 36.6022 9.9927 37.0838 9.11378C37.3604 8.60894 37.606 8.17466 37.4383 7.50098C37.1838 6.47842 38.3729 5.33994 39.3927 5.64122C40.3363 5.91954 41.2807 6.35438 42.0793 6.92418C43.1018 7.65386 42.6944 9.29578 41.4974 9.73118C41.2597 9.81742 40.9988 10.0577 40.9061 10.2898C40.0428 12.4528 39.8438 14.6779 40.4746 16.9342C40.9005 18.4571 41.3507 19.9769 41.8836 21.4649C42.7143 23.7847 44.263 25.5428 46.489 26.5827C48.2127 27.388 50.0128 28.0407 51.8104 28.6715C52.9063 29.0562 53.5394 28.6919 53.8816 27.5795C54.6605 25.0491 56.0157 22.8632 57.8724 21.0121C58.7359 20.1511 59.3351 19.191 59.8209 18.0906C60.9493 15.5333 62.5109 13.2483 64.3905 11.1774C64.7318 10.8011 65.0118 10.3648 65.2921 9.93782C66.985 7.3579 68.7762 4.85498 71.1018 2.79474C72.4937 1.56162 74.0049 0.534576 75.9316 0.309176C77.6609 0.107016 78.68 0.957376 78.7299 2.67798C78.7764 4.2793 78.3228 5.75882 77.6642 7.19326C73.9021 15.3869 69.442 23.1877 64.453 30.6911C64.3034 30.916 64.1651 31.1484 63.956 31.4819Z" fill="#202F5A"/>
</g>
<path fill-rule="evenodd" clip-rule="evenodd" d="M18.0957 53.3904C18.0957 55.629 18.0909 57.8679 18.0971 60.1065C18.1027 62.1009 19.7085 63.6731 21.7267 63.6737C23.7332 63.6742 25.3625 62.0908 25.3665 60.1059C25.3746 55.6284 25.3749 51.151 25.3662 46.6735C25.3623 44.6838 23.7394 43.1088 21.7259 43.1091C19.7043 43.1094 18.1027 44.6768 18.0971 46.6743C18.0909 48.9129 18.0957 51.1518 18.0957 53.3904ZM32.3575 53.394C32.3575 54.49 32.3578 55.5859 32.3575 56.6818C32.3575 57.8012 32.3547 58.9204 32.3578 60.0398C32.3634 62.0995 33.9387 63.6762 35.9841 63.6737C37.9925 63.6712 39.6148 62.1004 39.6207 60.102C39.6344 55.6248 39.635 51.1476 39.6207 46.6704C39.6143 44.672 37.9889 43.1074 35.9759 43.1088C33.9524 43.1102 32.3656 44.669 32.3589 46.6782C32.3513 48.9168 32.3572 51.1554 32.3575 53.394ZM53.8621 49.8453C54.3442 50.1556 54.7085 50.3826 55.0652 50.6206C56.9404 51.872 58.8085 53.1339 60.6899 54.376C61.7718 55.0903 63.055 55.0323 63.9958 54.2643C64.9582 53.4783 65.4924 51.9478 64.975 50.9608C64.6577 50.3563 64.1221 49.791 63.5509 49.4071C59.0586 46.389 54.5335 43.419 50.0193 40.4334C49.8119 40.2962 49.6103 40.1498 49.2981 39.9328H66.9697C66.7586 41.7654 66.5533 43.568 66.3425 45.3695C65.7573 50.3706 65.1687 55.3708 64.5833 60.3716C64.3447 62.4092 64.1014 64.4459 63.8816 66.4854C63.8396 66.8755 63.678 67.0239 63.3039 66.9928C63.1418 66.9796 62.9777 66.9911 62.8142 66.9911C44.8519 66.9911 26.8894 66.9914 8.92709 66.9911C7.96529 66.9911 7.97929 66.9892 7.86645 66.0246C7.14237 59.843 6.40989 53.6623 5.68441 47.481C5.39125 44.9817 5.10845 42.481 4.80969 39.8849H5.57801C16.4955 39.8849 27.413 39.8818 38.3305 39.8978C38.6973 39.8983 39.1175 40.0092 39.4219 40.208C41.7565 41.7332 44.0637 43.3006 46.3931 44.8342C46.7556 45.073 46.9167 45.2606 46.7263 45.7204C46.5714 46.0942 46.5255 46.5357 46.5241 46.9476C46.5107 51.333 46.5121 55.7189 46.5171 60.1042C46.5193 62.1015 48.1226 63.6698 50.1459 63.6737C52.2235 63.6776 53.8514 62.1309 53.8595 60.1101C53.8721 56.9842 53.8623 53.8583 53.8621 50.7324V49.8453Z" fill="#6D7278" fill-opacity="0.17081"/>
<path fill-rule="evenodd" clip-rule="evenodd" d="M36.5886 38.4962H35.7665C25.5941 38.4962 15.4215 38.4943 5.24877 38.4996C4.34045 38.4999 3.43241 38.5643 2.52437 38.5671C1.55697 38.5702 1.31113 38.3154 1.30861 37.3768C1.30525 36.2103 1.30189 35.0436 1.30973 33.8771C1.31477 33.1023 1.57937 32.8352 2.35525 32.7954C2.56469 32.7848 2.77525 32.7924 2.98525 32.7924C24.9871 32.7924 46.9889 32.7924 68.9908 32.7926C69.2472 32.7926 69.5051 32.784 69.7602 32.8047C70.3393 32.8512 70.6425 33.1491 70.6372 33.757C70.6263 35.0167 70.6416 36.2767 70.6316 37.5367C70.6257 38.284 70.3801 38.5531 69.6219 38.5618C68.7374 38.5721 67.8523 38.5004 66.9675 38.4996C60.6213 38.4934 54.2751 38.506 47.9289 38.4772C47.4341 38.475 46.8736 38.3056 46.4578 38.037C44.0764 36.501 41.735 34.9027 39.3682 33.344C38.235 32.5975 37.1511 32.6678 36.1661 33.4957C35.192 34.3142 34.7123 35.7833 35.2343 36.814C35.5453 37.4283 36.1081 37.915 36.5886 38.4962Z" fill="#6D7278" fill-opacity="0.17081"/>
<path fill-rule="evenodd" clip-rule="evenodd" d="M61.3926 17.905C61.3918 17.9101 61.3884 17.839 61.4172 17.7849C63.7076 13.4589 66.6989 9.83265 71.3486 7.87181C71.8262 7.67049 72.2342 7.40141 71.9531 6.83721C71.6918 6.31277 71.2217 6.47405 70.7978 6.67593C70.0485 7.03265 69.2987 7.38937 68.3607 7.83569C70.2666 5.38429 72.0642 3.10873 74.86 1.93525C75.3002 1.75045 75.8039 1.66449 76.2841 1.63817C77.1496 1.59085 77.5102 1.86441 77.3929 2.74333C77.2252 3.99689 77.0432 5.31765 76.5112 6.44129C74.7483 10.1653 72.97 13.8963 70.9288 17.4708C68.3192 22.0406 65.4436 26.4579 62.6974 30.9502C62.4471 31.3599 62.1601 31.4999 61.6852 31.4929C59.8002 31.4657 57.9147 31.4817 56.0678 31.4817C55.9348 30.9357 55.9192 30.3835 55.6669 29.9789C55.4336 29.6048 54.9473 29.3881 54.5306 29.0706C55.6215 27.8638 56.8969 26.7452 58.379 25.8934C59.3455 25.3379 60.3681 24.8765 61.3778 24.3988C61.8084 24.195 62.2441 23.9788 62.0178 23.4308C61.7759 22.8442 61.2786 22.9744 60.8326 23.2007C59.2444 24.0062 57.6613 24.8219 56.116 25.6134C57.0103 23.8926 58.2681 22.3425 59.7834 20.9811C61.8064 19.1639 64.1405 17.8952 66.6815 16.9752C67.1052 16.8214 67.3857 16.5311 67.1743 16.0666C66.9758 15.63 66.5897 15.5816 66.1658 15.7712C64.5762 16.4832 62.9855 17.1933 61.3926 17.905Z" fill="#FBDE8C"/>
<path fill-rule="evenodd" clip-rule="evenodd" d="M3.77747 12.513C8.81551 11.7816 13.7404 11.0668 18.7306 10.3424C19.1794 13.4247 19.6213 16.4599 20.0306 19.2722C19.3922 19.8302 18.7516 20.2046 18.3831 20.7595C17.9191 21.459 18.4027 22.1324 18.9353 22.8455C14.4508 23.5122 10.0534 24.1657 5.58319 24.8305C4.97671 20.6946 4.38339 16.6472 3.77747 12.513Z" fill="#317AFF" fill-opacity="0.267756"/>
<path fill-rule="evenodd" clip-rule="evenodd" d="M39.1742 11.0038C38.0827 15.2365 39.4393 19.0577 41.0342 22.815C42.0002 25.0906 43.7133 26.7734 45.9412 27.7873C47.9242 28.6894 50.011 29.3684 52.0701 30.0939C52.7158 30.3215 53.4279 30.3529 54.0943 30.5313C54.3255 30.5931 54.5106 30.8281 54.717 30.9837C54.6761 31.0509 54.6352 31.1184 54.5943 31.1856C54.3877 31.1968 54.1811 31.2159 53.9744 31.2184C49.6599 31.2699 45.3454 31.3116 41.0314 31.3797C40.5176 31.3878 40.1598 31.2433 39.8288 30.8491C37.4432 28.0079 35.2917 25.0256 34.4262 21.3363C33.8783 19.0009 34.0149 16.7432 35.6599 14.7969C35.7652 14.6726 35.8632 14.5265 35.9973 14.4444C37.3735 13.6013 38.4711 12.5007 39.1742 11.0038Z" fill="#F7B500"/>
<path fill-rule="evenodd" clip-rule="evenodd" d="M62.269 53.5731C61.8865 53.3816 61.4788 53.2278 61.1255 52.9926C56.8963 50.1781 52.6781 47.3476 48.4515 44.5294C44.7611 42.0684 41.0629 39.6196 37.3703 37.1623C36.3959 36.5141 36.2125 35.9406 36.6868 35.0878C37.1925 34.1783 37.8838 34.0098 38.7661 34.5975C41.1811 36.2064 43.5877 37.8276 46.0052 39.4322C50.0459 42.1144 54.0919 44.7886 58.137 47.4638C59.7837 48.553 61.4346 49.6352 63.0818 50.723C63.6494 51.0979 63.8893 51.6285 63.7068 52.2865C63.5085 53.0016 62.9441 53.4513 62.269 53.5731Z" fill="black" fill-opacity="0.1"/>
<path fill-rule="evenodd" clip-rule="evenodd" d="M32.4188 31.3425H16.8844C16.2051 28.6344 17.9795 26.048 20.6857 25.7165C21.9261 25.5644 23.0791 25.7212 24.1957 26.3132C24.4741 26.4607 24.919 26.4215 25.246 26.3263C26.5318 25.9517 27.8203 25.7028 29.1671 25.8825C30.5585 26.0679 31.5522 26.7794 32.0559 28.0951C32.4515 29.1283 32.5773 30.2043 32.4188 31.3425Z" fill="#C5EE9A"/>
<path fill-rule="evenodd" clip-rule="evenodd" d="M47.975 45.9196C49.0205 46.6072 49.8935 47.3 50.8679 47.7936C52.2301 48.4835 52.6675 49.4358 52.588 50.9808C52.4345 53.955 52.5454 56.9423 52.5423 59.9243C52.5409 61.3778 51.5794 62.3416 50.1467 62.3371C48.7735 62.3332 47.8263 61.3604 47.8241 59.9184C47.8179 55.6322 47.819 51.3454 47.828 47.0589C47.8285 46.7268 47.9111 46.3947 47.975 45.9196Z" fill="white"/>
<path fill-rule="evenodd" clip-rule="evenodd" d="M5.75977 26.1428C7.47113 25.8891 9.10437 25.6464 10.7379 25.4047C13.8271 24.9478 16.9155 24.4847 20.0073 24.0451C20.2912 24.0047 20.5967 24.1139 20.8826 24.2164C16.3852 25.6968 15.8087 26.4335 15.3996 31.3416C15.1871 31.3542 14.9639 31.3785 14.7405 31.3788C12.2443 31.3813 9.74781 31.3637 7.25189 31.3934C6.68769 31.4001 6.50457 31.2307 6.43737 30.6687C6.26069 29.1909 6.00225 27.7229 5.75977 26.1428Z" fill="#317AFF" fill-opacity="0.267756"/>
<path fill-rule="evenodd" clip-rule="evenodd" d="M38.5526 31.4444H33.8878C33.771 30.414 33.7335 29.4108 33.5308 28.4422C33.1556 26.6488 32.0983 25.376 30.3287 24.7916C29.9216 24.6572 29.8588 24.4276 29.8373 24.0779C29.5284 19.1045 31.3106 15.1579 35.5504 12.4142C35.9609 12.1485 36.3837 11.9004 36.7849 11.6212C37.1688 11.3538 37.5322 11.0568 37.8456 10.7076C37.4188 11.451 36.9571 12.2084 36.1801 12.6973C33.4417 14.4201 32.649 17.0238 32.8837 20.0504C33.073 22.4925 33.9953 24.7174 35.276 26.7701C36.2112 28.2692 37.3026 29.6706 38.3244 31.1157C38.3874 31.2047 38.449 31.2949 38.5526 31.4444Z" fill="#F7B500"/>
<path fill-rule="evenodd" clip-rule="evenodd" d="M5.88574 10.6498C7.04438 9.76055 8.26742 8.94211 9.34178 7.96043C10.2599 7.12183 11.0839 7.03195 12.1891 7.55359C13.5051 8.17463 14.9065 8.61479 16.2659 9.25823C12.8239 9.75887 9.38182 10.2595 5.93978 10.7599L5.88574 10.6498Z" fill="white"/>
<path fill-rule="evenodd" clip-rule="evenodd" d="M22.4739 23.6909C21.6238 23.0942 20.7569 22.5193 19.9374 21.8835C19.7654 21.7499 19.7682 21.3918 19.6907 21.1373C19.9889 21.1023 20.4019 20.9261 20.564 21.0583C21.1145 21.5063 21.5947 22.047 22.0637 22.5854C22.3003 22.857 22.4554 23.1997 22.6475 23.5105C22.5895 23.5707 22.5318 23.6307 22.4739 23.6909Z" fill="#C5EE9A"/>
<path fill-rule="evenodd" clip-rule="evenodd" d="M38.611 7.21336C38.9489 7.0616 39.1245 6.91208 39.216 6.95268C39.8858 7.24836 40.5427 7.57428 41.1906 7.9156C41.2564 7.95004 41.2894 8.18468 41.2388 8.26084C41.1926 8.33056 40.9876 8.36556 40.8952 8.323C40.1932 7.99792 39.5014 7.64988 38.611 7.21336Z" fill="#C53B30"/>
<path fill-rule="evenodd" clip-rule="evenodd" d="M15.7492 7.40914C15.0047 7.12998 14.2601 6.8511 13.5156 6.57194C13.5425 6.49158 13.5694 6.41122 13.5965 6.33086C14.4091 6.39078 15.099 6.8385 15.8561 7.07426C15.8203 7.18598 15.7847 7.29742 15.7492 7.40914Z" fill="white"/>
<path fill-rule="evenodd" clip-rule="evenodd" d="M38.281 53.4258C38.281 51.2337 38.284 49.0416 38.2798 46.8495C38.277 45.4024 37.3326 44.4247 35.9626 44.4373C34.5992 44.4499 33.6596 45.4391 33.6582 46.8817C33.6545 51.2194 33.6548 55.5569 33.6582 59.8944C33.6593 61.342 34.5942 62.327 35.9598 62.3379C37.3385 62.3491 38.2768 61.3815 38.2798 59.9322C38.284 57.7633 38.281 55.5947 38.281 53.4258ZM32.3573 53.3939C32.3573 51.1553 32.3514 48.9167 32.359 46.6784C32.3657 44.6691 33.9524 43.1103 35.976 43.1089C37.9889 43.1075 39.614 44.6722 39.6205 46.6705C39.635 51.1475 39.6342 55.6249 39.6208 60.1019C39.6149 62.1002 37.9923 63.6713 35.9841 63.6738C33.9387 63.6763 32.3634 62.0994 32.3578 60.0397C32.3548 58.9205 32.3576 57.8011 32.3576 56.6819C32.3576 55.586 32.3576 54.4901 32.3573 53.3939Z" fill="#202F5A"/>
<path fill-rule="evenodd" clip-rule="evenodd" d="M24.0307 53.4467C24.0307 51.2548 24.0408 49.0627 24.0212 46.8709C24.0176 46.4856 23.9618 46.0673 23.8034 45.7226C23.3302 44.6941 22.283 44.2498 21.1047 44.5077C20.1314 44.7205 19.4076 45.668 19.4057 46.7916C19.3978 51.1521 19.3995 55.5128 19.404 59.8732C19.4057 61.3628 20.3591 62.3521 21.7554 62.3367C23.1291 62.3215 24.0254 61.3609 24.0293 59.8825C24.0349 57.7374 24.0307 55.592 24.0307 53.4467ZM18.0956 53.3904C18.0956 51.1518 18.0911 48.9129 18.0972 46.6743C18.1026 44.6768 19.7042 43.1093 21.726 43.1091C23.7392 43.1088 25.3624 44.6838 25.3663 46.6737C25.375 51.1509 25.3747 55.6284 25.3663 60.1059C25.3627 62.0908 23.7331 63.6742 21.7266 63.6737C19.7084 63.6731 18.1026 62.1009 18.0972 60.1067C18.0911 57.8679 18.0956 55.6293 18.0956 53.3904Z" fill="#202F5A"/>
<path fill-rule="evenodd" clip-rule="evenodd" d="M38.2809 53.4258C38.2809 55.5947 38.284 57.7633 38.2798 59.9322C38.2767 61.3815 37.3385 62.3491 35.9597 62.3379C34.5942 62.327 33.6593 61.342 33.6581 59.8944C33.6548 55.5569 33.6545 51.2194 33.6581 46.8817C33.6595 45.4391 34.5992 44.4499 35.9625 44.4373C37.3326 44.4247 38.277 45.4024 38.2798 46.8495C38.284 49.0416 38.2809 51.2337 38.2809 53.4258Z" fill="white"/>
<path fill-rule="evenodd" clip-rule="evenodd" d="M24.0308 53.4467C24.0308 55.592 24.035 57.7374 24.0294 59.8825C24.0254 61.3609 23.1292 62.3215 21.7555 62.3367C20.3591 62.3521 19.4057 61.3628 19.404 59.8732C19.3996 55.5128 19.3979 51.1521 19.4057 46.7916C19.4077 45.668 20.1315 44.7205 21.1048 44.5077C22.283 44.2498 23.3302 44.6941 23.8034 45.7226C23.9619 46.0673 24.0176 46.4856 24.0212 46.8709C24.0408 49.0627 24.0308 51.2548 24.0308 53.4467Z" fill="white"/>
<g filter="url(#filter0_d)">
<mask id="mask1" mask-type="alpha" maskUnits="userSpaceOnUse" x="55" y="38" width="39" height="36">
<path fill-rule="evenodd" clip-rule="evenodd" d="M55 38.1581H93.6376V73.3271H55V38.1581Z" fill="white"/>
</mask>
<g mask="url(#mask1)">
<path fill-rule="evenodd" clip-rule="evenodd" d="M67.8175 45.1961C67.8175 44.1612 67.8164 43.1751 67.8178 42.1892C67.8192 41.2865 68.1852 40.9218 69.0897 40.9217C71.4719 40.9209 73.854 40.9214 76.2362 40.9214C77.4207 40.9214 78.6053 40.9144 79.7896 40.9244C80.5009 40.9304 80.9064 41.3546 80.9124 42.0653C80.9147 42.3549 80.9128 42.6444 80.9128 42.934V45.1943H81.8831C81.9008 45.1371 81.9218 45.1008 81.9218 45.0645C81.9244 43.6826 81.9321 42.3007 81.9215 40.9188C81.9184 40.4998 81.5964 40.1385 81.1859 40.054C80.9944 40.0145 80.7945 40.0013 80.5984 40.0012C76.4264 39.9983 72.2543 39.999 68.0821 39.9993C67.9769 39.9993 67.8711 39.9963 67.7666 40.0069C67.1443 40.071 66.8281 40.4159 66.826 41.0478C66.8219 42.3243 66.8241 43.6009 66.826 44.8775C66.8262 44.9787 66.8436 45.0798 66.8545 45.1961H67.8175ZM69.6884 45.192H79.0674V42.7712H69.6884V45.192ZM74.3231 47.0605C68.9654 47.0605 63.6076 47.0605 58.2498 47.0605C57.143 47.0606 56.8316 47.3763 56.8316 48.4976V67.0195C56.8316 68.1648 56.8276 69.31 56.8333 70.4554C56.8363 71.0359 57.1485 71.3917 57.7199 71.4797C57.8618 71.5016 58.0084 71.4972 58.1529 71.4972C68.9344 71.4979 79.7157 71.498 90.4971 71.496C90.6799 71.496 90.8673 71.489 91.0448 71.4498C91.538 71.3413 91.8077 71.0025 91.8079 70.493C91.8096 63.042 91.8098 55.5912 91.8076 48.1402C91.8074 47.5076 91.4168 47.1022 90.7913 47.0647C90.6469 47.0562 90.5019 47.0606 90.357 47.0606C85.0125 47.0605 79.6678 47.0605 74.3231 47.0605ZM64.9823 45.2171V44.7402C64.9823 43.5292 64.9784 42.3181 64.9834 41.107C64.9906 39.387 66.1157 38.1851 67.8233 38.1758C72.1672 38.152 76.5116 38.1527 80.8557 38.1749C82.603 38.1839 83.7521 39.3981 83.7532 41.1372C83.7542 42.4775 83.7535 43.8178 83.7535 45.2171H84.2397C86.3591 45.2171 88.4785 45.2117 90.5979 45.219C92.1544 45.2243 93.2765 46.0892 93.5808 47.5142C93.6323 47.7558 93.6352 48.0108 93.6353 48.2595C93.638 55.6313 93.638 63.0033 93.6371 70.3751C93.6369 72.1392 92.4663 73.3215 90.6972 73.3239C86.3003 73.3297 81.9037 73.3258 77.5068 73.3259C71.0039 73.3259 64.5008 73.327 57.9978 73.3248C56.5617 73.3243 55.4824 72.5757 55.1235 71.3162C55.0385 71.0175 55.0054 70.6944 55.0051 70.3825C54.9988 63.0107 54.9997 55.6389 55.0007 48.267C55.0008 46.4387 56.202 45.2278 58.0425 45.2194C60.175 45.2097 62.3076 45.2171 64.4402 45.2171H64.9823Z" fill="#202F5A"/>
</g>
<path fill-rule="evenodd" clip-rule="evenodd" d="M71.4915 62.1676V62.643C71.4915 63.8669 71.4901 65.0906 71.492 66.3143C71.4933 67.0278 71.832 67.3765 72.5553 67.3822C73.6737 67.3912 74.7923 67.3912 75.9108 67.3824C76.6348 67.3765 76.9719 67.0294 76.9732 66.3137C76.9754 65.0768 76.9738 63.8398 76.9738 62.6029V62.1676C77.1846 62.1676 77.3284 62.1676 77.4723 62.1676C78.7091 62.1676 79.9461 62.172 81.1829 62.1658C81.9508 62.162 82.2897 61.8174 82.2915 61.0549C82.294 59.9496 82.2929 58.8442 82.2918 57.7388C82.2912 56.8999 81.965 56.5734 81.1202 56.5717C79.8832 56.5693 78.6464 56.5717 77.4094 56.5701C77.2715 56.5699 77.1336 56.5575 76.9738 56.5496C76.9738 55.137 76.9756 53.77 76.9729 52.403C76.9716 51.7394 76.6532 51.3717 76.008 51.361C74.8241 51.3413 73.6394 51.3416 72.4553 51.3612C71.8237 51.3716 71.4945 51.7374 71.4926 52.3654C71.4888 53.6155 71.4915 54.8656 71.4915 56.1157V56.5711H71.0158C69.7657 56.5711 68.5156 56.566 67.2655 56.5731C66.518 56.5772 66.1799 56.9209 66.1778 57.6611C66.1748 58.7401 66.177 59.8191 66.177 60.898C66.1772 61.8814 66.4614 62.1671 67.442 62.1674C68.7701 62.1679 70.0984 62.1676 71.4915 62.1676ZM74.3231 47.0606C79.6677 47.0606 85.0124 47.0604 90.3569 47.0606C90.5018 47.0606 90.647 47.0561 90.7912 47.0648C91.4168 47.1023 91.8073 47.5075 91.8075 48.1402C91.8097 55.5911 91.8095 63.0419 91.8078 70.4929C91.8077 71.0026 91.5379 71.3412 91.0447 71.4499C90.8672 71.4889 90.6798 71.4959 90.497 71.496C79.7158 71.4979 68.9343 71.4979 58.1529 71.4972C58.0084 71.4972 57.8617 71.5016 57.7198 71.4798C57.1485 71.3918 56.8362 71.0358 56.8334 70.4553C56.8276 69.3101 56.8315 68.1648 56.8315 67.0194V48.4976C56.8315 47.3764 57.1429 47.0606 58.2497 47.0606C63.6075 47.0604 68.9653 47.0606 74.3231 47.0606Z" fill="white"/>
<path fill-rule="evenodd" clip-rule="evenodd" d="M67.8175 45.1961H66.8545C66.8436 45.0798 66.8262 44.9787 66.8261 44.8775C66.8242 43.6009 66.8219 42.3243 66.8261 41.0478C66.8281 40.4159 67.1443 40.071 67.7666 40.0069C67.8711 39.9963 67.9769 39.9993 68.0822 39.9993C72.2543 39.999 76.4264 39.9983 80.5984 40.0012C80.7945 40.0013 80.9944 40.0145 81.1859 40.054C81.5964 40.1385 81.9184 40.4998 81.9215 40.9188C81.9321 42.3007 81.9244 43.6826 81.9218 45.0644C81.9218 45.1008 81.9008 45.1371 81.8831 45.1943H80.9129V42.934C80.9129 42.6444 80.9148 42.3549 80.9124 42.0653C80.9064 41.3546 80.501 40.9304 79.7896 40.9244C78.6053 40.9144 77.4207 40.9214 76.2362 40.9214C73.8541 40.9214 71.4719 40.9209 69.0897 40.9217C68.1852 40.9218 67.8192 41.2865 67.8178 42.1892C67.8164 43.1751 67.8175 44.1612 67.8175 45.1961Z" fill="white"/>
<path fill-rule="evenodd" clip-rule="evenodd" d="M68.036 60.3349C68.1978 60.3349 68.3389 60.3349 68.48 60.3349C69.7175 60.3349 70.9549 60.3324 72.1924 60.3359C72.9991 60.3382 73.3197 60.6603 73.32 61.4566C73.3207 62.6283 73.3202 63.7999 73.3202 64.9714V65.5265H75.1065C75.123 65.4737 75.1377 65.4489 75.1377 65.4241C75.1404 64.1209 75.1419 62.8176 75.1434 61.5144C75.1443 60.6424 75.4507 60.3367 76.3337 60.3354C77.5581 60.3337 78.7824 60.3356 80.0068 60.3341C80.1455 60.334 80.2842 60.3228 80.4206 60.3168V58.4015H79.9639C78.7265 58.4015 77.4889 58.404 76.2514 58.4004C75.4766 58.3982 75.1445 58.0645 75.1437 57.298C75.1426 56.0737 75.144 54.8493 75.1426 53.6251C75.1424 53.4863 75.1312 53.3474 75.125 53.2049H73.3202V53.6493C73.3202 54.8473 73.3205 56.0452 73.3202 57.2433C73.32 58.0915 73.01 58.3999 72.1504 58.401C70.926 58.4027 69.7017 58.4015 68.4775 58.4015H68.036V60.3349ZM71.4917 62.1676C70.0984 62.1676 68.7703 62.1679 67.442 62.1674C66.4614 62.1671 66.1772 61.8814 66.1772 60.898C66.177 59.8191 66.1748 58.7401 66.178 57.6611C66.18 56.9209 66.518 56.5772 67.2656 56.5731C68.5156 56.566 69.7657 56.5711 71.0158 56.5711H71.4917V56.1157C71.4917 54.8656 71.489 53.6155 71.4928 52.3654C71.4947 51.7374 71.8236 51.3716 72.4555 51.3612C73.6394 51.3416 74.8242 51.3413 76.0081 51.361C76.6534 51.3717 76.9717 51.7394 76.973 52.403C76.9757 53.77 76.9738 55.137 76.9738 56.5496C77.1335 56.5575 77.2715 56.5699 77.4094 56.5701C78.6464 56.5717 79.8834 56.5693 81.1203 56.5717C81.9652 56.5734 82.2911 56.8999 82.2919 57.7388C82.293 58.8442 82.294 59.9496 82.2916 61.0549C82.2899 61.8174 81.9508 62.162 81.1831 62.1658C79.9461 62.172 78.7093 62.1676 77.4723 62.1676C77.3285 62.1676 77.1846 62.1676 76.9738 62.1676V62.6029C76.9738 63.8398 76.9754 65.0768 76.9732 66.3137C76.9719 67.0294 76.6349 67.3765 75.9108 67.3824C74.7924 67.3912 73.6738 67.3912 72.5553 67.3822C71.832 67.3765 71.4932 67.0278 71.4921 66.3143C71.4901 65.0906 71.4917 63.8669 71.4917 62.643V62.1676Z" fill="#E02020"/>
<path fill-rule="evenodd" clip-rule="evenodd" d="M68.036 60.3349V58.4015H68.4775C69.7016 58.4015 70.926 58.4027 72.1503 58.401C73.01 58.3999 73.32 58.0915 73.3202 57.2433C73.3205 56.0452 73.3202 54.8473 73.3202 53.6493V53.2049H75.125C75.1312 53.3474 75.1424 53.4863 75.1425 53.6251C75.144 54.8493 75.1425 56.0737 75.1436 57.298C75.1444 58.0645 75.4765 58.3982 76.2514 58.4004C77.4888 58.404 78.7264 58.4015 79.9639 58.4015H80.4205V60.3168C80.2842 60.3228 80.1454 60.334 80.0067 60.3341C78.7824 60.3356 77.558 60.3337 76.3337 60.3354C75.4506 60.3367 75.1443 60.6424 75.1433 61.5144C75.1419 62.8176 75.1403 64.1209 75.1376 65.4241C75.1376 65.4489 75.1229 65.4737 75.1065 65.5265H73.3202V64.9714C73.3202 63.7999 73.3206 62.6283 73.32 61.4566C73.3197 60.6602 72.9991 60.3382 72.1924 60.3359C70.9549 60.3324 69.7174 60.3349 68.48 60.3349C68.3389 60.3349 68.1978 60.3349 68.036 60.3349Z" fill="white"/>
</g>
<defs>
<filter id="filter0_d" x="48" y="34.1581" width="46.6376" height="43.169" filterUnits="userSpaceOnUse" color-interpolation-filters="sRGB">
<feFlood flood-opacity="0" result="BackgroundImageFix"/>
<feColorMatrix in="SourceAlpha" type="matrix" values="0 0 0 0 0 0 0 0 0 0 0 0 0 0 0 0 0 0 127 0"/>
<feOffset dx="-3"/>
<feGaussianBlur stdDeviation="2"/>
<feColorMatrix type="matrix" values="0 0 0 0 0 0 0 0 0 0 0 0 0 0 0 0 0 0 0.149557 0"/>
<feBlend mode="normal" in2="BackgroundImageFix" result="effect1_dropShadow"/>
<feBlend mode="normal" in="SourceGraphic" in2="effect1_dropShadow" result="shape"/>
</filter>
</defs>
</svg>
