<svg width="76" height="81" viewBox="0 0 76 81" fill="none" xmlns="http://www.w3.org/2000/svg">
<mask id="mask0" mask-type="alpha" maskUnits="userSpaceOnUse" x="17" y="0" width="59" height="27">
<path fill-rule="evenodd" clip-rule="evenodd" d="M17.9598 0.234101H75.778V26.3811H17.9598V0.234101Z" fill="white"/>
</mask>
<g mask="url(#mask0)">
<path fill-rule="evenodd" clip-rule="evenodd" d="M30.3191 6.40502C30.3287 8.74526 30.3381 11.0497 30.3467 13.1847C29.8132 13.5327 29.2972 13.7437 28.9649 14.1179C28.5461 14.5894 28.8351 15.1412 29.1561 15.7276C25.75 15.7519 22.4099 15.7756 19.0148 15.7997C18.9986 12.6594 18.983 9.58602 18.9673 6.44691C22.7918 6.43287 26.5309 6.41883 30.3191 6.40502ZM23.5853 3.6457C24.3563 3.11849 24.979 3.13815 25.7463 3.64242C26.6598 4.24286 27.6559 4.71765 28.5994 5.33939C25.9864 5.34968 23.3733 5.35998 20.7602 5.37028C20.7506 5.34103 20.741 5.31178 20.7314 5.28253C21.6868 4.74292 22.6827 4.26275 23.5853 3.6457ZM26.9217 2.88075C27.52 3.01085 27.9861 3.41638 28.5243 3.67144C28.4862 3.75076 28.448 3.83009 28.4097 3.90941C27.8853 3.62347 27.3606 3.33752 26.836 3.0518C26.8646 2.99471 26.8931 2.93785 26.9217 2.88075ZM30.5557 14.5695C30.9179 14.9608 31.2184 15.4136 31.5106 15.8633C31.6583 16.0903 31.7374 16.3615 31.8476 16.6128C31.7982 16.6514 31.7488 16.6903 31.6995 16.7286C31.1299 16.1954 30.5456 15.6766 30.0027 15.1173C29.889 15.0001 29.9288 14.7338 29.8977 14.5363C30.1232 14.5417 30.449 14.4542 30.5557 14.5695ZM45.9147 6.03835C46.3818 6.32874 46.8362 6.64019 47.2822 6.96241C47.3276 6.99494 47.3274 7.17278 47.2818 7.22426C47.2401 7.27129 47.0838 7.27574 47.0199 7.23432C46.5316 6.91865 46.0537 6.58708 45.4371 6.16868C45.7046 6.09123 45.8508 5.99857 45.9147 6.03835ZM18.017 16.7476C18.0222 17.8329 18.0341 18.9198 18.0451 20.0325C18.3755 20.0783 18.7061 20.1251 19.0366 20.171C19.0579 19.0736 19.0218 17.9735 19.008 16.7946C20.3079 16.7857 21.5483 16.7773 22.7887 16.7694C25.1351 16.7541 27.4811 16.7347 29.8272 16.7328C30.043 16.7326 30.2585 16.8461 30.4607 16.9523C27.1545 17.5455 26.5185 18.0145 25.7673 21.1019C26.0874 21.1459 26.4076 21.1901 26.7277 21.2343C26.8365 19.4257 28.3083 18.0133 30.1562 18.0475C31.0948 18.0648 31.936 18.3028 32.7045 18.8606C32.8961 18.9996 33.2312 19.0174 33.4847 18.9809C34.4806 18.8374 35.465 18.7876 36.448 19.063C37.4636 19.3476 38.1279 19.9812 38.3645 21.0129C38.5037 21.6213 38.5274 22.2318 38.4298 22.8496C38.7548 22.8948 39.0798 22.9399 39.4049 22.9851C39.4318 22.4574 39.4589 21.9396 39.425 21.4264C39.3344 20.0528 38.682 18.9947 37.4271 18.3739C37.1381 18.2309 37.1156 18.0538 37.1365 17.7912C37.4297 14.0589 39.1706 11.3106 42.6132 9.71542C42.9467 9.56098 43.2871 9.42105 43.615 9.25538C43.9288 9.09696 44.2302 8.91421 44.5002 8.68746C44.1047 9.19571 43.6814 9.71051 43.0522 9.99225C40.8337 10.986 39.9702 12.8396 39.8263 15.1157C39.7105 16.9521 40.1623 18.7043 40.8992 20.3662C41.3597 21.4049 41.9112 22.4029 42.4424 23.4103C42.8535 23.4681 43.2644 23.5273 43.6754 23.5853C42.2772 21.3115 41.0838 18.9528 40.8386 16.2344C40.6766 14.4396 41.0159 12.7745 42.444 11.4997C42.5355 11.4182 42.6238 11.32 42.7323 11.2729C43.8448 10.7904 44.777 10.087 45.4575 9.04759C44.2004 12.0814 44.8074 15.0668 45.5988 18.0294C46.0781 19.824 47.1753 21.2561 48.726 22.2445C50.1061 23.1243 51.5871 23.8488 53.0428 24.6053C53.4991 24.8424 54.0254 24.9406 54.5025 25.1435C54.5084 25.1461 54.5138 25.1498 54.5199 25.1529C54.5652 25.1594 54.6111 25.166 54.6565 25.1728C55.0485 25.2313 55.4402 25.2907 55.8319 25.3506C55.8176 25.1887 55.7912 25.0356 55.7303 24.898C55.5962 24.595 55.2572 24.383 54.9808 24.1027C55.9194 23.3197 56.9855 22.6219 58.1775 22.1441C58.9551 21.8324 59.7643 21.5968 60.5657 21.3478C60.9076 21.2416 61.2541 21.1262 61.1437 20.6949C61.0253 20.233 60.6418 20.2777 60.2861 20.3992C59.0199 20.8314 57.7565 21.2715 56.5238 21.6976C57.37 20.5117 58.4688 19.4908 59.739 18.6376C61.4352 17.4985 63.3049 16.8005 65.292 16.383C65.6234 16.3135 65.8625 16.1268 65.7542 15.7592C65.6524 15.4136 65.3702 15.3368 65.0351 15.4332C63.7776 15.7957 62.5196 16.1565 61.2598 16.5185C61.2586 16.5222 61.2635 16.4691 61.2906 16.4317C63.4498 13.4545 66.0563 11.0717 69.7214 10.1022C70.0979 10.0025 70.4297 9.84529 70.28 9.39625C70.1408 8.97856 69.7741 9.04876 69.4376 9.15453C68.8425 9.34102 68.2472 9.52752 67.5024 9.76082C69.1781 8.13803 70.755 6.63411 72.9581 6.05543C73.3049 5.96417 73.6889 5.95317 74.0488 5.98406C74.6977 6.03998 74.937 6.28124 74.7573 6.92263C74.5006 7.83781 74.2264 8.80118 73.7125 9.58111C72.0092 12.1659 70.294 14.7541 68.3993 17.1985C66.0249 20.2623 63.4762 23.1905 61.0068 26.1811C61.3934 26.2466 61.7797 26.3137 62.166 26.3811C62.1745 26.3715 62.1829 26.3615 62.1913 26.3521C66.6921 21.2949 70.8306 15.9611 74.4908 10.2616C75.1317 9.2638 75.6248 8.2108 75.7589 7.01483C75.9025 5.7297 75.2338 4.98979 73.9262 4.95844C72.4693 4.9231 71.237 5.52823 70.072 6.29926C68.1251 7.58719 66.5294 9.26076 64.9986 11.002C64.7452 11.29 64.4913 11.5851 64.1976 11.8291C62.5816 13.1721 61.1795 14.7076 60.071 16.4911C59.5939 17.2586 59.0473 17.9099 58.3144 18.4595C56.7384 19.6412 55.5003 21.1248 54.6549 22.9252C54.283 23.7168 53.7739 23.9213 52.9991 23.5198C51.7282 22.8613 50.4578 22.1865 49.2602 21.4061C47.7135 20.3985 46.7466 18.9275 46.3724 17.1145C46.1326 15.9518 45.9576 14.7736 45.801 13.5958C45.5689 11.8511 45.951 10.2169 46.821 8.69846C46.9141 8.53559 47.1336 8.38443 47.3194 8.34512C48.2557 8.14715 48.7316 6.96873 48.0476 6.31844C47.5137 5.81043 46.8566 5.38759 46.1841 5.08129C45.457 4.74994 44.4529 5.47183 44.5346 6.25901C44.5884 6.77802 44.36 7.0752 44.101 7.42152C43.6503 8.02501 43.0868 8.44948 42.3806 8.74362C39.5481 9.92298 37.6414 11.9981 36.6879 14.9048C36.3703 15.8731 36.2311 16.8999 36.0126 17.8902C35.2616 17.8914 34.4677 17.8928 33.6475 17.894C33.9218 17.0087 34.4225 16.3943 35.3026 16.1076C35.4748 16.0514 35.6573 15.8762 35.7278 15.7103C35.7762 15.5963 35.6807 15.3153 35.5757 15.2654C35.3913 15.1782 35.1344 15.1519 34.9355 15.2044C34.075 15.4309 33.4945 16.032 33.0857 16.6509C32.5365 15.7613 31.9618 14.8501 31.4138 13.923C31.3253 13.7732 31.3382 13.5523 31.3361 13.364C31.3255 12.3659 31.3159 11.3679 31.3234 10.3699C31.3342 8.91818 31.3588 7.46668 31.3808 6.01495C31.3864 5.65154 31.2027 5.45686 30.8791 5.30686C30.3303 5.0525 29.8045 4.74877 29.2558 4.45885C29.352 4.27656 29.4145 4.15324 29.4814 4.0325C29.8448 3.37426 29.8083 3.2362 29.1594 2.88005C28.6687 2.61071 28.1686 2.35729 27.6833 2.0786C26.54 1.42246 26.5451 1.49243 25.9625 2.51594C25.9477 2.54168 25.9059 2.55221 25.8761 2.5693C25.2858 2.43638 25.052 2.06807 25.1299 1.47394C25.1547 1.28487 25.1224 1.08878 25.1323 0.896899C25.1507 0.535603 25.0405 0.240529 24.6416 0.234211C24.229 0.227191 24.0814 0.557365 24.1534 0.890581C24.3975 2.02103 23.8202 2.59574 22.8557 2.94627C22.7581 2.98184 22.672 3.04806 22.5805 3.09954C21.2975 3.82049 20.0271 4.56578 18.7239 5.2486C18.3016 5.46996 17.9529 5.59117 17.9599 6.19045C18.0013 9.70934 18.0002 13.2285 18.017 16.7476Z" fill="#202F5A"/>
</g>
<path fill-rule="evenodd" clip-rule="evenodd" d="M61.2597 16.5186C61.2586 16.5223 61.2635 16.4689 61.2906 16.4317C63.4495 13.4546 66.0563 11.0717 69.7214 10.102C70.0979 10.0026 70.4297 9.84534 70.28 9.39606C70.1407 8.9786 69.7738 9.0488 69.4376 9.15457C68.8425 9.34107 68.2472 9.52757 67.5024 9.76087C69.1781 8.13784 70.7548 6.63416 72.9579 6.05524C73.3049 5.96422 73.6887 5.95322 74.0485 5.98411C74.6974 6.0398 74.9368 6.28129 74.7571 6.92268C74.5006 7.83785 74.2262 8.801 73.7125 9.58092C72.0092 12.1659 70.294 14.7542 68.3993 17.1986C65.9774 20.3234 63.3735 23.3071 60.8582 26.3601C60.6289 26.6384 60.4005 26.7123 60.0481 26.6573C58.6488 26.439 57.2443 26.2525 55.8705 26.0583C55.8288 25.6378 55.8754 25.2257 55.7303 24.8981C55.5962 24.5951 55.2572 24.3828 54.9806 24.1027C55.9192 23.3198 56.9855 22.622 58.1775 22.1441C58.9551 21.8325 59.7643 21.5968 60.5655 21.3476C60.9073 21.2414 61.2541 21.1262 61.1437 20.695C61.0253 20.2331 60.6418 20.2778 60.2861 20.399C59.0199 20.8312 57.7565 21.2716 56.5236 21.6977C57.3697 20.5118 58.4686 19.4908 59.739 18.6377C61.435 17.4985 63.3049 16.8003 65.2918 16.3831C65.6234 16.3136 65.8625 16.1268 65.7542 15.759C65.6524 15.4136 65.3702 15.3366 65.0351 15.4333C63.7776 15.7957 62.5196 16.1566 61.2597 16.5186Z" fill="#FBDE8C"/>
<path fill-rule="evenodd" clip-rule="evenodd" d="M18.967 6.44686C22.7918 6.43282 26.5306 6.41902 30.3188 6.40498C30.3284 8.74521 30.338 11.0496 30.3467 13.1847C29.8132 13.5329 29.2972 13.7437 28.9647 14.1179C28.5461 14.5894 28.8348 15.1411 29.1561 15.7275C25.75 15.7519 22.4099 15.7755 19.0145 15.7996C18.9986 12.6593 18.983 9.58597 18.967 6.44686Z" fill="#317AFF" fill-opacity="0.329627"/>
<path fill-rule="evenodd" clip-rule="evenodd" d="M45.4574 9.04756C44.2001 12.0814 44.8073 15.0667 45.5987 18.0297C46.0779 19.824 47.1752 21.256 48.7259 22.2445C50.106 23.1243 51.587 23.849 53.0427 24.6053C53.4988 24.8423 54.0253 24.9406 54.5024 25.1435C54.6678 25.2139 54.7809 25.4079 54.9178 25.5457C54.8806 25.5914 54.8431 25.637 54.8054 25.6829C54.6505 25.6695 54.4949 25.6618 54.3409 25.6419C51.126 25.2263 47.912 24.8037 44.6957 24.4005C44.3126 24.3526 44.0616 24.2075 43.8568 23.8794C42.381 21.5148 41.0942 19.07 40.8384 16.2346C40.6765 14.4396 41.0158 12.7745 42.4442 11.4996C42.5354 11.4182 42.6236 11.3199 42.7322 11.2729C43.8446 10.7906 44.7769 10.0872 45.4574 9.04756Z" fill="#F7B500"/>
<path fill-rule="evenodd" clip-rule="evenodd" d="M38.2926 23.4669C34.4129 22.9185 30.5722 22.3753 26.7365 21.8329C26.5161 19.7468 28.1082 18.0094 30.1562 18.0475C31.0947 18.0648 31.936 18.3028 32.7044 18.8607C32.8961 18.9997 33.2312 19.0174 33.4843 18.9809C34.4802 18.8375 35.4649 18.7879 36.448 19.0631C37.4635 19.3476 38.1278 19.9813 38.3642 21.013C38.55 21.8231 38.5301 22.6369 38.2926 23.4669Z" fill="#C53B30"/>
<path fill-rule="evenodd" clip-rule="evenodd" d="M19.0079 16.7946C20.3078 16.7859 21.5482 16.7773 22.7887 16.7693C25.1348 16.7541 27.4811 16.7347 29.8272 16.7328C30.0427 16.7326 30.2584 16.8461 30.4604 16.9523C26.959 17.5806 26.4526 18.068 25.6322 21.6758C25.4727 21.663 25.3039 21.6576 25.138 21.6342C23.2808 21.3737 21.4256 21.0979 19.5658 20.8575C19.1451 20.8033 19.0269 20.6579 19.036 20.2328C19.0599 19.1149 19.0222 17.9955 19.0079 16.7946Z" fill="white"/>
<path fill-rule="evenodd" clip-rule="evenodd" d="M42.8447 24.1879C41.6336 24.0166 40.4853 23.8542 39.3745 23.6972C39.396 22.9185 39.4737 22.1683 39.4248 21.4265C39.3343 20.0527 38.6819 18.9948 37.4269 18.374C37.1379 18.231 37.1157 18.0538 37.1363 17.7913C37.4297 14.059 39.1707 11.3107 42.6131 9.71549C42.9465 9.56105 43.2872 9.42089 43.6148 9.25545C43.9286 9.09703 44.2302 8.91428 44.5001 8.68753C44.1046 9.19578 43.6813 9.71034 43.0518 9.99231C40.8335 10.9861 39.97 12.8394 39.8261 15.1157C39.7103 16.9522 40.1622 18.7044 40.899 20.366C41.437 21.5795 42.1016 22.7369 42.7097 23.9193C42.7472 23.9923 42.7834 24.0658 42.8447 24.1879Z" fill="#F7B500"/>
<path fill-rule="evenodd" clip-rule="evenodd" d="M20.7313 5.28264C21.6867 4.74304 22.6826 4.26264 23.5852 3.64558C24.3562 3.11838 24.9787 3.13803 25.7462 3.6423C26.6597 4.24275 27.6559 4.71777 28.5993 5.33951C25.9863 5.34957 23.3732 5.3601 20.7601 5.37039C20.7505 5.34114 20.7409 5.31189 20.7313 5.28264Z" fill="white"/>
<path fill-rule="evenodd" clip-rule="evenodd" d="M31.6995 16.7288C31.1299 16.1955 30.5454 15.6767 30.0028 15.1175C29.8888 15 29.9286 14.734 29.8977 14.5362C30.123 14.5416 30.449 14.4541 30.5557 14.5694C30.9179 14.9607 31.2184 15.4135 31.5107 15.8632C31.6581 16.0902 31.7374 16.3617 31.8476 16.6127C31.7983 16.6516 31.7489 16.6902 31.6995 16.7288Z" fill="#C5EE9A"/>
<path fill-rule="evenodd" clip-rule="evenodd" d="M45.4371 6.16859C45.7044 6.09114 45.8506 5.99847 45.9147 6.03825C46.3818 6.32865 46.8362 6.64034 47.2822 6.96232C47.3274 6.99485 47.3274 7.17292 47.2818 7.22417C47.2401 7.2712 47.0838 7.27565 47.0197 7.23423C46.5316 6.91856 46.0537 6.58698 45.4371 6.16859Z" fill="white"/>
<path fill-rule="evenodd" clip-rule="evenodd" d="M28.4096 3.90941C27.8852 3.62347 27.3606 3.33775 26.8359 3.0518C26.8645 2.99471 26.893 2.93785 26.9216 2.88075C27.5199 3.01085 27.986 3.41638 28.5242 3.67144C28.4861 3.75076 28.4477 3.83009 28.4096 3.90941Z" fill="white"/>
<path fill-rule="evenodd" clip-rule="evenodd" d="M26.1071 72.0341C26.1071 72.4789 26.1096 72.8793 26.1066 73.2797C26.0986 74.3219 25.4015 75.07 24.4412 75.0702C23.4848 75.0707 22.7857 74.3268 22.7665 73.2815C22.7592 72.8894 22.7653 72.4969 22.7653 72.0023C21.6732 73.0831 21.7139 74.5777 22.7494 75.5659C23.7146 76.4871 25.3969 76.4209 26.2622 75.4278C27.2062 74.3441 27.164 72.909 26.1071 72.0341ZM50.645 71.9618C49.5136 73.1526 49.5978 74.7394 50.7292 75.6665C51.8613 76.5941 53.5412 76.3423 54.3661 75.1215C55.0702 74.0795 54.8907 72.6144 53.9715 72.0858C53.9715 72.4878 53.9743 72.8758 53.9708 73.2638C53.9617 74.3189 53.285 75.0583 52.3214 75.07C51.365 75.0817 50.6567 74.331 50.6455 73.2902C50.6413 72.8882 50.645 72.4862 50.645 71.9618ZM51.5665 50.3725H57.6683C57.7764 49.2708 57.8796 48.2185 57.9917 47.0747H51.5665V50.3725ZM51.6935 44.3409H58.2828C58.3871 43.3101 58.4936 42.2564 58.6047 41.158C56.2774 41.0172 54.0174 40.8807 51.6935 40.7401V44.3409ZM58.8792 38.4836C58.9993 37.3026 59.1139 36.1736 59.2335 34.9973C56.7341 34.7752 54.3097 34.5597 51.7656 34.3337C51.7656 35.5254 51.7778 36.6123 51.7593 37.6988C51.7525 38.0877 51.9905 38.0805 52.2516 38.0959C53.6107 38.1762 54.9698 38.2604 56.3291 38.3407C57.1603 38.3898 57.9917 38.434 58.8792 38.4836ZM59.8433 29.0073C57.172 28.6879 54.6047 28.3809 51.9748 28.0664V31.6616C54.4877 31.883 56.9775 32.1025 59.5108 32.3255C59.6257 31.1779 59.7317 30.1216 59.8433 29.0073ZM40.9761 46.723C41.0884 47.999 41.1933 49.1901 41.2995 50.3959H48.8287V46.9065C46.2332 46.8459 43.6339 46.785 40.9761 46.723ZM30.3034 46.4567C30.5495 47.8146 30.7842 49.1082 31.0171 50.3933H38.6092C38.4948 49.1222 38.3857 47.9078 38.2729 46.6528C35.603 46.5871 32.982 46.5225 30.3034 46.4567ZM28.2882 50.409C28.0712 49.209 27.8408 48.0507 27.6634 46.8845C27.6032 46.4876 27.4467 46.3828 27.0686 46.3753C24.8481 46.3313 22.6282 46.2634 20.408 46.2066C20.3034 46.2038 20.1981 46.2281 20.0453 46.2452C20.4197 47.5682 20.791 48.8358 21.1303 50.1118C21.2193 50.4462 21.4168 50.4647 21.6882 50.4635C23.7144 50.4558 25.7408 50.4563 27.767 50.4511C27.9182 50.4506 28.0691 50.4272 28.2882 50.409ZM48.9707 40.569C46.1248 40.3959 43.2943 40.2234 40.4028 40.0475C40.524 41.4253 40.6368 42.7106 40.7531 44.0334C43.5174 44.0975 46.2147 44.16 48.9707 44.2239V40.569ZM29.0253 39.3508C29.2728 40.7272 29.5174 41.988 29.7172 43.2561C29.7785 43.6452 29.9269 43.7695 30.313 43.7772C32.7494 43.8247 35.1851 43.8956 37.6213 43.9555C37.7514 43.9588 37.8824 43.9314 38.0481 43.9148C37.9257 42.5538 37.8064 41.2249 37.6854 39.8787C34.777 39.7016 31.9428 39.5287 29.0253 39.3508ZM49.1036 34.0936C46.0223 33.8203 42.9478 33.5474 39.8157 33.2694C39.9245 34.4925 40.06 35.6122 40.1077 36.7357C40.1297 37.2512 40.3109 37.3803 40.7917 37.4033C42.6796 37.4931 44.5654 37.6256 46.4524 37.7379C47.3177 37.7894 48.1835 37.8305 49.1036 37.8792V34.0936ZM17.9117 38.6769C18.3282 40.1626 18.7384 41.5776 19.1149 43.0015C19.2165 43.3852 19.3779 43.516 19.7876 43.5226C22.0266 43.5579 24.2648 43.6314 26.5034 43.6906C26.6719 43.6951 26.8409 43.6911 27.0845 43.6911C26.8285 42.2812 26.5711 40.9479 26.3535 39.6082C26.2978 39.2657 26.1719 39.1679 25.8375 39.1501C24.1852 39.0614 22.5346 38.9418 20.8828 38.84C19.9145 38.7801 18.945 38.7331 17.9117 38.6769ZM39.5852 30.5499C42.7934 30.8361 45.9811 31.1206 49.2307 31.4108V27.74C45.9016 27.341 42.6057 26.9463 39.2415 26.5431C39.3582 27.9026 39.4689 29.1941 39.5852 30.5499ZM27.7371 32.19C27.9823 33.5483 28.2311 34.8066 28.426 36.0732C28.4922 36.5035 28.6565 36.6594 29.0856 36.6816C31.2632 36.7949 33.4392 36.9339 35.6159 37.0644C36.2114 37.1 36.8072 37.1372 37.4649 37.1775C37.3398 35.7587 37.2209 34.4102 37.0987 33.0228C33.9783 32.7453 30.9031 32.4715 27.7371 32.19ZM25.7764 36.4525C25.5134 34.9762 25.2707 33.5624 24.9927 32.1553C24.9714 32.0477 24.7077 31.9321 24.5472 31.9164C22.5126 31.7171 20.4765 31.5327 18.4405 31.3504C17.5749 31.2729 16.708 31.2088 15.7731 31.133C16.188 32.6058 16.598 34.0021 16.9672 35.4091C17.0742 35.817 17.2651 35.9644 17.6791 35.9859C19.721 36.0919 21.7614 36.2265 23.8026 36.3482C24.4379 36.3861 25.0739 36.4155 25.7764 36.4525ZM26.4471 25.009C26.7197 26.5267 26.9794 27.9726 27.2443 29.4484C30.4524 29.7355 33.6252 30.0196 36.8718 30.3103C36.7468 28.9011 36.6293 27.5741 36.5091 26.215C33.1479 25.8121 29.833 25.4147 26.4471 25.009ZM23.6559 24.6772C20.2996 24.2752 16.9855 23.8783 13.6035 23.4732C14.0355 24.9933 14.4588 26.4273 14.8425 27.8717C14.9455 28.2592 15.1163 28.383 15.5134 28.4139C17.5305 28.5714 19.5443 28.7696 21.5595 28.9488C22.5145 29.0336 23.4706 29.1073 24.4758 29.1903C24.1929 27.6326 23.9262 26.1654 23.6559 24.6772ZM54.0448 67.1437C53.8197 67.8806 54.0336 68.2105 54.6979 68.4813C56.981 69.4119 58.4442 72.0088 58.118 74.3816C57.7497 77.0625 55.8021 79.1468 53.2344 79.4994C49.9208 79.9545 47.4109 77.937 46.6796 75.2867C45.8894 72.4225 47.3395 69.5158 50.1337 68.3701C50.7159 68.1312 50.7159 68.1312 50.5881 67.1842H26.1817C26.0022 68.1017 26.0022 68.1017 26.7924 68.4389C29.0969 69.4224 30.5523 71.9384 30.2346 74.3888C29.8885 77.0581 27.9198 79.1243 25.3561 79.5095C22.3836 79.9559 19.6168 78.1626 18.8154 75.2703C18.0317 72.4415 19.4837 69.5146 22.2308 68.3849C22.832 68.1375 22.832 68.1375 22.7024 67.1437C22.4929 67.1437 22.2695 67.1491 22.0462 67.1428C20.6256 67.1016 19.1933 67.1575 17.7872 66.9919C15.5319 66.7265 13.8038 65.1657 13.3976 63.1161C13.0845 61.5357 13.41 60.0156 14.0862 58.5681C14.9602 56.6987 15.8536 54.8381 16.7026 52.9575C16.8315 52.6725 16.861 52.2726 16.7761 51.9709C13.815 41.4402 10.8367 30.9144 7.85295 20.3903C7.68353 19.7924 7.46146 19.2086 7.24174 18.6264C6.63778 17.0256 5.51552 15.9782 3.87331 15.4775C3.12872 15.2505 2.39209 14.9957 1.6606 14.7294C0.357224 14.2546 -0.265684 13.0687 0.10661 11.8079C0.459014 10.6145 1.63323 9.87995 2.91508 10.2754C4.50651 10.7663 6.10637 11.3179 7.58197 12.0774C9.89577 13.2685 11.1198 15.4173 11.9299 17.7969C12.1468 18.4345 12.4609 18.6362 13.1055 18.7081C17.1907 19.1641 21.2707 19.6705 25.3524 20.1598C29.3952 20.6444 33.4385 21.1288 37.4816 21.6134C41.5826 22.105 45.6835 22.5974 49.7846 23.0881C53.847 23.5741 57.9098 24.0585 61.9722 24.5445C62.2626 24.5794 62.5542 24.6098 62.8408 24.665C64.0516 24.8983 64.8598 25.9267 64.7393 27.1573C64.3686 30.939 63.9746 34.7183 63.5889 38.4986C63.1834 42.4726 62.7767 46.4467 62.3717 50.4207C62.2827 51.2933 62.213 52.1677 62.1103 53.0384C61.9778 54.1588 61.0992 54.9909 59.968 55.0859C59.6966 55.1086 59.4226 55.1044 59.1497 55.1047C46.6319 55.1206 34.1141 55.1388 21.596 55.1393C21.0587 55.1393 20.7763 55.2809 20.5503 55.7964C19.8389 57.4182 19.0183 58.9926 18.3167 60.6184C17.5972 62.2857 17.94 62.4537 19.4685 62.4544C32.7468 62.46 46.0251 62.4651 59.3035 62.4455C60.4723 62.4438 61.3676 62.7934 62.067 63.7528C62.6976 64.6177 63.4235 65.4128 64.0981 66.2461C65.0622 67.4367 64.9684 68.8077 63.8702 69.7198C62.8699 70.5505 61.3793 70.3217 60.4625 69.2041C59.9062 68.5264 59.4631 67.6 58.744 67.2563C58.0261 66.913 57.0276 67.1531 56.152 67.1449C55.4532 67.1386 54.7545 67.1437 54.0448 67.1437Z" fill="#202F5A"/>
</svg>
