<svg width="42" height="42" viewBox="0 0 42 42" fill="none" xmlns="http://www.w3.org/2000/svg">
<path fill-rule="evenodd" clip-rule="evenodd" d="M21.0305 41.061C32.093 41.061 41.061 32.093 41.061 21.0305C41.061 9.96796 32.093 1 21.0305 1C9.96796 1 1 9.96796 1 21.0305C1 32.093 9.96796 41.061 21.0305 41.061Z" stroke="#817DC0" stroke-width="1.1446"/>
<mask id="mask0" mask-type="alpha" maskUnits="userSpaceOnUse" x="11" y="11" width="19" height="19">
<path fill-rule="evenodd" clip-rule="evenodd" d="M11.9634 11.2369H29.9573V29.6833H11.9634V11.2369Z" fill="white"/>
</mask>
<g mask="url(#mask0)">
<path fill-rule="evenodd" clip-rule="evenodd" d="M25.5764 29.6832C23.8188 29.6765 22.1624 29.2218 20.6019 28.4235C17.0317 26.5973 14.4292 23.8128 12.8574 20.0397C12.3202 18.7512 12.0208 17.3981 11.969 15.9953C11.9273 14.8768 12.1094 13.8103 12.7713 12.8805C13.257 12.1984 13.8883 11.6997 14.6452 11.3741C15.1744 11.1465 15.6935 11.1943 16.1344 11.5755C16.5136 11.9036 16.8765 12.2605 17.2018 12.6446C17.8464 13.4049 18.3839 14.2444 18.8341 15.1425C19.1229 15.7194 19.1195 16.2654 18.7042 16.773C18.441 17.095 18.162 17.4041 17.8837 17.7129C17.7047 17.9114 17.5085 18.0941 17.3295 18.2927C17.0333 18.6207 16.9395 19.0068 17.0907 19.4286C17.1851 19.692 17.2996 19.9533 17.4428 20.192C18.4067 21.7998 19.6864 23.088 21.245 24.0848C21.5529 24.2821 21.8751 24.4553 22.2494 24.493C22.5002 24.5183 22.7307 24.4693 22.9298 24.3144C23.0881 24.1915 23.2331 24.05 23.3794 23.9113C23.7703 23.5398 24.1496 23.1545 24.551 22.795C25.049 22.3492 25.594 22.3514 26.1682 22.6522C26.8869 23.0291 27.5657 23.4702 28.1888 23.992C28.6461 24.3752 29.0799 24.7923 29.4915 25.227C29.7995 25.5526 30.0177 25.9598 29.9424 26.4335C29.8936 26.7417 29.7952 27.058 29.6483 27.3303C28.805 28.8975 27.4935 29.6708 25.7523 29.6832C25.6936 29.6835 25.635 29.6832 25.5764 29.6832Z" fill="#202F5A"/>
</g>
</svg>
