<svg width="56" height="66" viewBox="0 0 56 66" fill="none" xmlns="http://www.w3.org/2000/svg">
<mask id="mask0" mask-type="alpha" maskUnits="userSpaceOnUse" x="0" y="0" width="56" height="66">
<path fill-rule="evenodd" clip-rule="evenodd" d="M0 0.600115H55.9506V65.1556H0V0.600115Z" fill="white"/>
</mask>
<g mask="url(#mask0)">
<path fill-rule="evenodd" clip-rule="evenodd" d="M25.8329 57.1093C28.6175 54.4231 31.4435 51.7777 33.8465 48.7393C34.6325 47.7457 35.3369 46.6309 35.8169 45.4639C36.9503 42.7069 35.9363 40.3345 33.2447 39.0541C30.7457 37.8655 28.4297 38.3365 26.6117 40.4125C26.3219 40.7431 26.0621 41.1001 25.7675 41.4715C25.4723 41.0989 25.2137 40.7413 24.9233 40.4113C22.4375 37.5883 18.1283 37.8211 16.0037 40.9411C15.6155 41.5105 15.3899 42.2575 15.3005 42.9499C15.1019 44.4805 15.7043 45.8287 16.5377 47.0737C19.0835 50.8759 22.4633 53.9155 25.7087 57.0769C25.7195 57.0877 25.7423 57.0865 25.8329 57.1093ZM26.7095 65.1373C24.8711 65.1595 22.6733 64.9753 20.5613 64.2277C14.6711 62.1415 10.8053 58.0207 8.85891 52.1671C6.05571 43.7347 3.40071 35.2531 0.68151 26.7931C0.51171 26.2633 0.30471 25.7443 0.16071 25.2073C-0.51609 22.6795 1.03371 21.1315 3.08511 20.6929C4.86171 20.3137 6.20331 21.1861 6.90651 22.8739C7.97571 25.4407 9.10431 27.9841 10.2641 30.5113C10.5851 31.2103 11.0729 31.8427 11.5445 32.4601C11.9135 32.9443 12.4067 32.8519 12.4853 32.2507C12.5765 31.5535 12.5645 30.8023 12.4055 30.1195C11.0345 24.2473 9.61311 18.3865 8.22411 12.5179C7.95291 11.3707 7.87191 10.2031 8.15991 9.03906C8.49231 7.69386 9.34371 6.88746 10.7069 6.63246C12.1535 6.36246 13.2545 6.92646 14.0579 8.09886C14.3147 8.47446 14.5103 8.91366 14.6417 9.35166C16.3901 15.1801 18.1181 21.0151 19.8653 26.8441C20.0399 27.4267 20.2619 28.0051 20.5499 28.5379C20.6597 28.7419 21.0269 28.9291 21.2573 28.9081C21.4493 28.8901 21.7283 28.5763 21.7649 28.3591C21.8573 27.8173 21.8909 27.2515 21.8477 26.7025C21.4691 21.9061 21.0713 17.1109 20.6723 12.3163C20.4893 10.1131 20.2427 7.91466 20.1155 5.70906C20.0099 3.87786 20.4119 2.16186 22.1879 1.22586C23.9951 0.27366 25.9997 0.31866 27.3383 1.98606C27.8693 2.64786 28.1219 3.41046 28.1987 4.24026C28.6601 9.23466 29.1143 14.2291 29.5805 19.2229C29.8253 21.8485 30.0743 24.4741 30.3599 27.0949C30.3953 27.4177 30.6161 27.9229 30.8429 27.9799C31.2959 28.0939 31.6643 27.6841 31.7687 27.2647C32.0087 26.2969 32.2061 25.3129 32.3375 24.3247C32.9387 19.8151 33.5087 15.3013 34.0937 10.7899C34.2131 9.87066 34.2911 8.94066 34.4885 8.03826C34.7123 7.01766 35.1857 6.09366 36.1433 5.56266C37.5161 4.80246 38.9069 4.99566 40.1531 5.80926C41.3063 6.56226 41.5583 7.75386 41.4119 9.09546C41.1089 11.8651 40.8701 14.6413 40.6055 17.4151C40.2503 21.1507 39.8807 24.8845 39.5477 28.6219C39.4115 30.1537 39.3155 31.6921 39.2837 33.2293C39.2723 33.7879 39.4427 34.3723 39.6335 34.9087C40.0547 36.0931 40.9673 36.5047 42.1109 35.9575C42.6359 35.7061 43.1399 35.2705 43.4777 34.7935C45.2591 32.2771 46.9535 29.6995 48.7409 27.1873C49.6955 25.8463 51.0179 25.0111 52.7333 25.1995C54.7025 25.4155 56.0579 27.2617 55.9439 29.4247C55.8893 30.4573 55.6319 31.4209 55.1327 32.3449C50.9867 40.0219 46.8893 47.7241 42.7163 55.3861C40.8107 58.8859 38.1377 61.6831 34.5755 63.5605C32.2325 64.7953 29.7221 65.2573 26.7095 65.1373Z" fill="#FBDE8C"/>
</g>
<path fill-rule="evenodd" clip-rule="evenodd" d="M25.8329 57.1093C25.7423 57.0865 25.7195 57.0877 25.7087 57.0769C22.4633 53.9155 19.0835 50.8759 16.5377 47.0737C15.7043 45.8287 15.1019 44.4805 15.3005 42.9499C15.3899 42.2575 15.6155 41.5105 16.0037 40.9411C18.1283 37.8211 22.4375 37.5883 24.9233 40.4113C25.2137 40.7413 25.4723 41.0989 25.7675 41.4715C26.0621 41.1001 26.3219 40.7431 26.6117 40.4125C28.4297 38.3365 30.7457 37.8655 33.2447 39.0541C35.9363 40.3345 36.9503 42.7069 35.8169 45.4639C35.3369 46.6309 34.6325 47.7457 33.8465 48.7393C31.4435 51.7777 28.6175 54.4231 25.8329 57.1093Z" fill="#C53B30"/>
</svg>
