<svg width="87" height="94" viewBox="0 0 87 94" fill="none" xmlns="http://www.w3.org/2000/svg">
<path fill-rule="evenodd" clip-rule="evenodd" d="M55.0327 9.92365L52.8727 4.88401L49.6327 9.92365L47.1127 4.88401L44.2327 8.12401L41.3527 4.88401L37.7527 8.12401V88.0436L41.3527 93.0837L43.8727 89.8437L47.1127 93.0837L49.9927 88.0436L52.8727 93.0837L55.0327 89.8437L58.2727 93.0837L60.7927 88.0436L63.6723 93.0837L66.5527 90.2037L69.7927 93.0837L71.9527 90.2037L74.8327 93.0837L77.7127 90.2037L80.2327 93.0837L83.8327 88.404V38.7236L82.3927 31.5237L79.1527 22.5237L73.3923 14.604L64.0327 8.84365L60.7927 7.40401L58.6327 4.88401L55.0327 9.92365Z" fill="#FBDE8C" fill-opacity="0.345635"/>
<path fill-rule="evenodd" clip-rule="evenodd" d="M11.8326 30.8038L64.7526 12.8038L70.5126 37.6438L19.0326 53.8438L11.8326 30.8038Z" fill="#8FC557"/>
<mask id="mask0" mask-type="alpha" maskUnits="userSpaceOnUse" x="0" y="0" width="87" height="93">
<path fill-rule="evenodd" clip-rule="evenodd" d="M0.00012207 0.36H86.7761V92.9588H0.00012207V0.36Z" fill="white"/>
</mask>
<g mask="url(#mask0)">
<path fill-rule="evenodd" clip-rule="evenodd" d="M83.8387 41.4428C83.8099 41.4428 83.7811 41.4428 83.7526 41.4428V46.1668C83.7811 46.1668 83.8099 46.1668 83.8387 46.1668V41.4428ZM27.0559 52.7728C27.5592 53.7898 28.5636 54.176 29.5377 53.7844C30.4471 53.419 30.8758 52.5913 30.6062 51.6355C29.425 52.0139 28.2457 52.3915 27.0559 52.7728ZM8.51443 41.3428C9.93751 40.5281 11.1871 39.8315 12.41 39.0906C12.5713 38.9927 12.7048 38.6453 12.6634 38.4541C12.531 37.8432 12.414 37.1855 12.0889 36.6746C11.857 36.3103 11.3134 35.9939 10.8829 35.9564C10.5567 35.9284 9.98323 36.3042 9.87595 36.621C9.37195 38.11 8.99143 39.6407 8.51443 41.3428ZM21.5968 54.4946C22.6581 56.3807 23.6218 58.1951 24.69 59.9461C25.2033 60.7885 26.4 60.9689 27.2553 60.5052C28.1607 60.0149 28.6327 58.9165 28.1701 57.9784C27.381 56.3782 26.4756 54.8352 25.5928 53.2199C24.2464 53.6497 22.9821 54.0529 21.5968 54.4946ZM15.5802 47.5531C14.9743 47.9012 14.4818 48.1835 13.9904 48.4668C13.8867 48.5266 13.7827 48.587 13.6848 48.6554C12.7524 49.3081 12.6523 49.7268 13.1916 50.7017C13.6113 51.4606 14.0307 52.2194 14.4512 52.978C15.5391 54.9389 16.6112 56.9092 17.7225 58.8571C18.3453 59.9479 19.5484 60.273 20.5773 59.6945C21.5587 59.1422 21.8672 57.9823 21.2962 56.8786C20.9568 56.2216 20.5723 55.5876 20.2112 54.9497C19.489 55.1614 18.8407 55.3518 18.1394 55.5574C17.2768 52.8602 16.4416 50.247 15.5802 47.5531ZM21.5504 44.1335C23.7417 44.8459 25.0737 46.2701 25.9813 48.1446C30.545 46.688 35.0324 45.2563 39.531 43.8206C34.2638 39.3815 32.5988 33.9124 34.3304 27.2866C29.8372 28.7154 25.4488 30.1057 21.0691 31.5227C20.8916 31.5799 20.6914 31.8812 20.6796 32.0792C20.6346 32.8464 20.6612 33.6175 20.6612 34.4207C20.884 34.295 21.1832 34.1168 21.491 33.9541C22.6326 33.3493 23.8292 33.2352 25.0478 33.6517C26.77 34.2403 27.7856 35.4888 28.011 37.264C28.2464 39.1219 27.5127 40.6152 25.8974 41.6012C24.5283 42.4375 23.1261 43.2187 21.5504 44.1335ZM37.9038 83.8966V71.1706H13.5134C20.2922 78.2161 28.327 82.4303 37.9038 83.8966ZM4.95331 56.677C5.45083 56.137 5.85187 55.7399 6.20935 55.3068C8.00323 53.1331 9.76255 50.9303 11.5863 48.7825C12.1177 48.1568 12.7563 47.5664 13.4587 47.1517C17.1217 44.9874 20.8218 42.8868 24.5064 40.7588C24.8689 40.5497 25.2303 40.3312 25.5608 40.0766C26.4889 39.3624 26.7751 38.3738 26.5818 37.2712C26.3928 36.194 25.7466 35.4193 24.7069 35.0384C23.7154 34.6752 22.7816 34.8538 21.869 35.3758C17.005 38.1568 12.1314 40.9205 7.26055 43.6892C6.98875 43.8437 6.71299 43.9909 6.24427 44.249C6.93943 41.7265 7.57555 39.4272 8.20663 37.1268C8.78371 35.0226 9.18944 34.6579 11.3808 34.3699C10.93 32.9162 10.4836 31.4759 10.025 29.9963C11.0856 29.6471 12.0745 29.3216 13.2391 28.9379C11.9586 28.3298 10.835 27.7898 9.70603 27.261C8.00827 26.4658 6.36991 27.117 5.68519 28.8554C4.12567 32.8154 3.17095 36.9151 2.90815 41.1649C2.58487 46.3964 3.25339 51.503 4.95331 56.677ZM37.9088 69.6427V49.3153C35.9565 49.9374 34.0852 50.5332 32.2226 51.1265C32.413 53.8322 31.0677 55.1855 28.6899 55.4605C29.0632 56.6284 29.5986 57.7048 29.7134 58.8244C29.8394 60.0516 29.1705 61.1554 28.0246 61.6709C27.2762 62.0075 26.3391 62.1634 25.5259 62.0665C24.0978 61.8966 23.3432 60.7514 22.7622 59.499C20.4607 62.2843 17.8496 62.0305 16.1342 58.9446C14.8098 56.5625 13.4846 54.1807 12.1551 51.8011C12.0187 51.5563 11.8513 51.3288 11.7105 51.1117C9.79315 53.3142 7.95175 55.4803 6.04231 57.5856C5.57971 58.0957 5.54479 58.4762 5.78707 59.0746C7.27315 62.7448 9.33163 66.0708 11.8203 69.1319C12.0655 69.4332 12.6249 69.62 13.0389 69.6218C21.0151 69.6499 28.9912 69.6427 36.967 69.6427H37.9088ZM7.20979 25.659C8.90935 25.1406 10.2442 25.9596 11.623 26.6101C12.6253 27.0832 13.6178 27.5818 14.6449 27.9936C15.0207 28.1444 15.5244 28.2085 15.9002 28.0908C23.0138 25.8599 30.1148 23.5876 37.2277 21.3534C37.8289 21.1648 38.0064 20.8958 38.0017 20.2828C37.9732 16.5935 37.9812 12.9038 37.9988 9.2142C38.0002 8.87832 38.046 8.43516 38.2551 8.22492C39.3312 7.146 40.4673 6.12684 41.6978 4.97916C42.4556 5.79384 43.3275 6.73092 44.2632 7.73676C45.2143 6.741 46.0952 5.81868 47.0964 4.77108C48.0489 5.76972 48.9295 6.69312 49.9155 7.72704C50.8303 6.78636 51.718 5.87304 52.5738 4.9932C53.5011 5.88456 54.4065 6.75504 55.115 7.43616C55.8073 6.84792 56.4938 6.26436 57.1972 5.66676C37.9254 -1.53828 15.8156 7.61832 7.20979 25.659ZM25.0834 49.9136C23.134 45.1782 20.3908 44.186 16.8693 46.912C17.5908 49.1796 18.319 51.4692 19.0585 53.793C36.3025 48.3221 53.4162 42.8929 70.6238 37.4335C68.1801 29.7551 65.7649 22.1641 63.3378 14.5375C46.0851 20.0214 28.9761 25.4596 11.7919 30.9215C12.5623 33.3443 13.3096 35.6944 14.0923 38.1546C15.564 37.3187 16.9474 36.5537 18.3028 35.7415C18.5293 35.6058 18.6744 35.2818 18.7856 35.015C19.3699 33.61 19.3612 32.1678 18.9242 30.6626C25.2426 28.6549 31.5076 26.6641 37.7727 24.6733C37.8393 24.7097 37.9063 24.7457 37.9729 24.782C34.7444 27.9857 34.4438 31.7876 35.6901 35.806C36.9444 39.8509 39.3243 42.8796 43.7433 43.9495C37.5373 45.9331 31.3309 47.9171 25.0834 49.9136ZM80.3301 90.904C80.7092 90.4626 80.9918 90.023 81.3766 89.708C82.1413 89.0831 82.3393 88.3289 82.3378 87.3558C82.3105 69.358 82.3202 51.3598 82.3072 33.3619C82.3065 32.7733 82.232 32.1581 82.0513 31.6008C78.8736 21.7847 72.8666 14.2009 64.0351 8.86176C62.589 7.98768 62.585 7.9974 61.4265 9.171C61.2469 9.3528 61.0525 9.5202 60.7321 9.81756C59.7939 8.87004 58.8964 7.96392 57.9644 7.02288C57.1058 7.89768 56.226 8.7948 55.2694 9.76968C54.3594 8.8254 53.4741 7.90668 52.5126 6.90876C51.5899 7.88328 50.71 8.8128 49.738 9.83952C48.7534 8.84484 47.8567 7.93944 46.8472 6.91992C45.9523 7.80804 45.049 8.70444 44.1069 9.63936C43.248 8.78184 42.3606 7.89588 41.4066 6.94368C40.9926 7.3836 40.621 7.8588 40.1696 8.23968C39.5378 8.77212 39.3708 9.39996 39.3823 10.2107C39.4269 13.3294 39.4003 16.4495 39.4003 19.5692V20.6424C47.78 17.9798 56.0046 15.3662 64.2734 12.7386C67.0029 21.3332 69.6907 29.7976 72.3997 38.3274C71.9518 38.4797 71.5918 38.6089 71.2271 38.7248C60.8962 42.0062 50.5653 45.2866 40.234 48.5647C39.7786 48.7091 39.3794 48.7645 39.3808 49.4651C39.4078 62.3635 39.3992 75.262 39.4114 88.1604C39.4118 88.4326 39.5022 88.7699 39.6764 88.9639C40.2351 89.5853 40.8529 90.1537 41.5066 90.801C42.4005 89.8808 43.2912 88.9636 44.2329 87.9937C45.184 88.9654 46.0779 89.8783 47.055 90.8762C48.0021 89.914 48.8971 89.0042 49.8619 88.024C50.7867 88.9276 51.7004 89.8204 52.7188 90.8154C53.5944 89.9298 54.489 89.0248 55.5175 87.9847C56.3995 88.8786 57.2944 89.7858 58.2099 90.7139C59.0707 89.8517 59.9584 88.9632 60.9045 88.0157C61.8103 88.943 62.7024 89.8564 63.6711 90.8485C64.5974 89.8798 65.4812 88.956 66.4276 87.966C67.4076 88.9196 68.3216 89.8088 69.3587 90.8176C70.2058 89.9251 71.0828 89.001 72.0526 87.9786C73.0012 88.8966 73.9153 89.7811 74.847 90.6826C75.68 89.8499 76.567 88.9636 77.5383 87.993C78.4358 88.9286 79.321 89.852 80.3301 90.904ZM80.189 92.7533C79.3286 91.8698 78.4549 90.9727 77.6218 90.1177C76.6405 91.0685 75.7271 91.953 74.8113 92.8404C73.8339 91.8781 72.9238 90.9821 71.995 90.068C71.041 91.0537 70.1533 91.9706 69.2886 92.8638C68.2802 91.9033 67.3716 91.0382 66.3636 90.0785C65.5086 91.0346 64.642 92.0034 63.7874 92.9588C62.6836 91.9055 61.7739 91.0375 60.8397 90.1458C59.9736 91.0084 59.0703 91.9084 58.1408 92.8343C57.2005 91.8436 56.321 90.9173 55.4062 89.9536C54.359 90.9608 53.4385 91.8457 52.4373 92.8087C51.5712 91.9087 50.6838 90.9868 49.8018 90.0702C48.8334 90.9994 47.9272 91.8691 47.0013 92.7576C46.138 91.8832 45.2442 90.977 44.2952 90.0155C43.33 91.0447 42.4567 91.976 41.718 92.7641C40.4486 91.5966 39.2685 90.5782 38.186 89.4647C37.938 89.2098 38.001 88.6291 37.9686 88.195C37.9354 87.7522 37.9614 87.305 37.9614 86.8151C36.9598 86.629 36.0228 86.4587 35.0871 86.2805C17.7506 82.975 3.77467 69.3227 0.781994 51.8908C-2.27801 34.0679 3.67243 19.4364 18.1311 8.532C26.2574 2.40336 35.6491 -0.08928 45.7831 0.42552C65.7919 1.4418 82.7569 16.6111 86.1391 36.4183C87.4441 44.0618 86.732 51.5261 84.1133 58.8222C83.8671 59.5084 83.735 60.2744 83.7332 61.0042C83.708 70.1237 83.7098 79.2432 83.7303 88.3627C83.7318 89.046 83.56 89.5536 83.0517 90.0144C82.097 90.8791 81.1869 91.7932 80.189 92.7533Z" fill="#202F5A"/>
</g>
<path fill-rule="evenodd" clip-rule="evenodd" d="M57.1972 5.66683C56.4937 6.26443 55.8076 6.84763 55.1149 7.43623C54.4064 6.75511 53.501 5.88427 52.5737 4.99327C51.718 5.87311 50.8302 6.78643 49.9154 7.72675C48.9294 6.69319 48.0488 5.76979 47.0963 4.77079C46.0951 5.81875 45.2142 6.74107 44.2631 7.73683C43.3274 6.73099 42.4555 5.79355 41.6977 4.97887C40.4672 6.12655 39.3311 7.14571 38.255 8.22499C38.0459 8.43487 38.0002 8.87803 37.9987 9.21427C37.9811 12.9036 37.9732 16.5932 38.0016 20.2825C38.0063 20.8959 37.8288 21.1648 37.2276 21.3535C30.1147 23.5873 23.0141 25.86 15.9001 28.0909C15.5243 28.2086 15.0206 28.1445 14.6448 27.9937C13.6177 27.5818 12.6252 27.0832 11.623 26.6102C10.2442 25.9593 8.90928 25.1407 7.20972 25.6591C15.8155 7.61803 37.9253 -1.53857 57.1972 5.66683Z" fill="#3F61ED" fill-opacity="0.186052"/>
<path fill-rule="evenodd" clip-rule="evenodd" d="M37.9087 69.6426H36.967C28.9912 69.6426 21.015 69.6498 13.0388 69.6217C12.6248 69.6203 12.0654 69.4331 11.8202 69.1318C9.33155 66.0707 7.27307 62.7446 5.78699 59.0745C5.54471 58.4761 5.57963 58.0956 6.04223 57.5855C7.95167 55.4806 9.79307 53.3141 11.7104 51.112C11.8512 51.3287 12.0186 51.5566 12.155 51.8014C13.4845 54.1806 14.8097 56.5624 16.1341 58.9445C17.8495 62.0304 20.4606 62.2842 22.7621 59.4989C23.3431 60.7513 24.0977 61.8965 25.5258 62.0668C26.339 62.1633 27.2761 62.0074 28.0246 61.6708C29.1704 61.1553 29.8393 60.0515 29.7133 58.8243C29.5985 57.7047 29.0632 56.6283 28.6898 55.4608C31.0676 55.1854 32.413 53.8325 32.2225 51.1264C34.0852 50.5331 35.9564 49.9373 37.9087 49.3156V69.6426Z" fill="#DCE2FC"/>
<path fill-rule="evenodd" clip-rule="evenodd" d="M4.95324 56.6769C3.25332 51.503 2.5848 46.3964 2.90808 41.1649C3.17088 36.9154 4.1256 32.8158 5.68512 28.8554C6.36984 27.117 8.0082 26.4657 9.70596 27.261C10.8349 27.7898 11.9581 28.3298 13.239 28.9382C12.0744 29.3216 11.0855 29.647 10.0249 29.9962C10.4836 31.4758 10.93 32.9162 11.3807 34.3699C9.18936 34.6579 8.78364 35.0226 8.20656 37.1268C7.57548 39.4272 6.93936 41.7265 6.2442 44.249C6.71292 43.9912 6.98868 43.8436 7.26048 43.6892C12.1313 40.9204 17.005 38.1567 21.8689 35.3757C22.7815 34.8537 23.7154 34.6755 24.7068 35.0384C25.7465 35.4193 26.3927 36.194 26.5817 37.2711C26.775 38.3738 26.4888 39.3624 25.5607 40.0766C25.2299 40.3311 24.8688 40.5496 24.5063 40.7592C20.8217 42.8868 17.1216 44.9874 13.4586 47.1517C12.7562 47.5668 12.1176 48.1568 11.5862 48.7825C9.76248 50.9302 8.00316 53.1331 6.20928 55.3068C5.8518 55.7398 5.45076 56.1369 4.95324 56.6769Z" fill="#FBDE8C"/>
<path fill-rule="evenodd" clip-rule="evenodd" d="M37.9037 83.8964C28.3269 82.4302 20.2921 78.216 13.5133 71.1704H37.9037V83.8964Z" fill="#FCCAE2"/>
<path fill-rule="evenodd" clip-rule="evenodd" d="M21.5505 44.1334C23.1259 43.219 24.5284 42.4374 25.8975 41.6015C27.5128 40.6151 28.2465 39.1218 28.0107 37.2639C27.7857 35.4887 26.7701 34.2402 25.0479 33.652C23.8289 33.2351 22.6327 33.3492 21.4907 33.954C21.1833 34.1167 20.8838 34.2949 20.6613 34.4209C20.6613 33.6174 20.6343 32.8463 20.6797 32.0791C20.6915 31.8811 20.8917 31.5798 21.0692 31.5226C25.4489 30.1056 29.8373 28.7153 34.3305 27.2865C32.5985 33.9123 34.2635 39.3817 39.5311 43.8205C35.0321 45.2562 30.5447 46.6883 25.9814 48.1445C25.0738 46.2703 23.7418 44.8458 21.5505 44.1334Z" fill="#C5EE9A"/>
<path fill-rule="evenodd" clip-rule="evenodd" d="M18.1394 55.5575C18.8407 55.3516 19.4887 55.1615 20.2112 54.9495C20.5719 55.5877 20.9564 56.2217 21.2963 56.8787C21.8669 57.9821 21.5587 59.1424 20.577 59.6943C19.5481 60.2731 18.345 59.9481 17.7225 58.8569C16.6112 56.9093 15.5391 54.939 14.4512 52.9777C14.0304 52.2196 13.6113 51.4603 13.1916 50.7015C12.6519 49.7269 12.7524 49.3083 13.6848 48.6556C13.7827 48.5868 13.8867 48.5267 13.9901 48.4669C14.4818 48.1833 14.9739 47.9014 15.5802 47.5533C16.4413 50.2471 17.2769 52.86 18.1394 55.5575Z" fill="#FBDE8C"/>
<path fill-rule="evenodd" clip-rule="evenodd" d="M25.5929 53.2202C26.4756 54.8352 27.3807 56.3785 28.1698 57.9783C28.6324 58.9165 28.1604 60.0148 27.2554 60.5052C26.4 60.9688 25.2034 60.7885 24.6897 59.9461C23.6219 58.195 22.6582 56.3806 21.5969 54.4946C22.9822 54.0529 24.2462 53.6497 25.5929 53.2202Z" fill="#FBDE8C"/>
<path fill-rule="evenodd" clip-rule="evenodd" d="M8.5144 41.3429C8.9914 39.6408 9.37192 38.1101 9.87592 36.6208C9.9832 36.3043 10.5567 35.9281 10.8828 35.9566C11.3134 35.994 11.857 36.3105 12.0888 36.6744C12.4139 37.1856 12.5309 37.8433 12.663 38.4543C12.7044 38.6454 12.5712 38.9928 12.41 39.0904C11.187 39.8316 9.93748 40.5282 8.5144 41.3429Z" fill="#FBDE8C"/>
<path fill-rule="evenodd" clip-rule="evenodd" d="M27.0557 52.7727C28.2458 52.3915 29.4248 52.0138 30.606 51.6355C30.876 52.5913 30.4472 53.4189 29.5379 53.7843C28.5633 54.176 27.5589 53.7897 27.0557 52.7727Z" fill="#FBDE8C"/>
<path fill-rule="evenodd" clip-rule="evenodd" d="M83.8387 46.1668C83.8099 46.1668 83.7811 46.1668 83.7526 46.1668V41.4428C83.7811 41.4428 83.8099 41.4428 83.8387 41.4428V46.1668Z" fill="white"/>
<mask id="mask1" mask-type="alpha" maskUnits="userSpaceOnUse" x="0" y="0" width="87" height="94">
<path fill-rule="evenodd" clip-rule="evenodd" d="M0 93.0838H86.7762V0.36H0V93.0838Z" fill="white"/>
</mask>
<g mask="url(#mask1)">
<path fill-rule="evenodd" clip-rule="evenodd" d="M45.4111 56.1424H64.8184V54.8147H45.4111V56.1424Z" fill="#202F5A"/>
<path fill-rule="evenodd" clip-rule="evenodd" d="M45.4075 49.6534H64.8201V48.3239H45.4075V49.6534Z" fill="#202F5A"/>
<path fill-rule="evenodd" clip-rule="evenodd" d="M45.4093 62.6278H64.8101V61.3134H45.4093V62.6278Z" fill="#202F5A"/>
<path fill-rule="evenodd" clip-rule="evenodd" d="M45.4017 69.117V67.8282H64.8277C64.8511 68.0183 64.8867 68.19 64.8893 68.3617C64.8925 68.5954 64.8698 68.8294 64.8558 69.117H45.4017Z" fill="#202F5A"/>
<path fill-rule="evenodd" clip-rule="evenodd" d="M69.8512 49.6282H78.3447V48.3329H69.8512V49.6282Z" fill="#202F5A"/>
<path fill-rule="evenodd" clip-rule="evenodd" d="M69.8486 56.1438H78.3378V54.8276H69.8486V56.1438Z" fill="#202F5A"/>
<path fill-rule="evenodd" clip-rule="evenodd" d="M69.8857 62.6224H78.3565V61.303H69.8857V62.6224Z" fill="#202F5A"/>
<path fill-rule="evenodd" clip-rule="evenodd" d="M69.8911 69.142H78.3511V67.801H69.8911V69.142Z" fill="#202F5A"/>
<path fill-rule="evenodd" clip-rule="evenodd" d="M43.7506 24.2644C49.0682 28.6539 50.7864 34.1104 49.1272 40.7513C53.3694 39.3956 57.5411 38.0621 61.6545 36.7478C61.679 36.5796 61.6901 36.5498 61.6869 36.5217C61.3661 33.7803 62.0505 31.4727 64.5075 29.9103C64.64 29.826 64.7717 29.5467 64.7303 29.4113C64.19 27.6502 63.6186 25.8984 63.0642 24.173C60.3563 24.3278 58.2816 23.4681 56.374 20.2378C52.189 21.5727 47.9878 22.913 43.7506 24.2644ZM57.2697 18.45C59.1975 22.4262 60.3128 23.0861 64.0168 22.4471C64.8732 25.109 65.7326 27.7816 66.6149 30.5255C63.1017 31.7812 62.5016 34.352 63.4649 37.673C57.5706 39.554 51.6929 41.4296 45.8148 43.3052C45.7598 43.2569 45.7047 43.2087 45.6496 43.1604C48.7442 39.8618 48.9389 36.0371 47.6206 32.049C46.3019 28.0602 43.9058 25.0726 39.441 24.1398C45.3688 22.248 51.2966 20.3562 57.2697 18.45Z" fill="#202F5A"/>
<path fill-rule="evenodd" clip-rule="evenodd" d="M43.7506 24.2644C47.9878 22.913 52.189 21.5727 56.374 20.2378C58.2817 23.4681 60.3563 24.3278 63.0643 24.173C63.6187 25.8984 64.19 27.6502 64.7303 29.4113C64.7717 29.5467 64.64 29.826 64.5075 29.9103C62.0505 31.4727 61.3661 33.7803 61.6869 36.5217C61.6901 36.5498 61.679 36.5796 61.6545 36.7478C57.5411 38.0621 53.3694 39.3956 49.1272 40.7513C50.7865 34.1104 49.0682 28.6539 43.7506 24.2644Z" fill="#C5EE9A"/>
<path fill-rule="evenodd" clip-rule="evenodd" d="M79.3904 78.2618C79.3713 81.7257 77.6106 84.1946 73.2279 84.1946C72.9601 84.1946 72.5965 84.1755 72.3092 84.1374V78.4724L70.6251 79.0848V78.0706L72.3092 77.4579V76.482L70.6251 77.0943V76.0802L72.3092 75.4678V71.6976H73.8975V74.8936L77.266 73.6876V74.7021L73.8975 75.9078V76.8837L77.247 75.6781V76.6926L73.8975 77.8982V82.8169C76.0028 82.7211 77.8021 81.477 77.8784 78.2618H79.3904Z" fill="#202F5A"/>
<path fill-rule="evenodd" clip-rule="evenodd" d="M68.5904 78.2618C68.5713 81.7257 66.8105 84.1946 62.4279 84.1946C62.16 84.1946 61.7964 84.1755 61.5092 84.1374V78.4724L59.8251 79.0848V78.0706L61.5092 77.4579V76.482L59.8251 77.0943V76.0802L61.5092 75.4678V71.6976H63.0975V74.8936L66.466 73.6876V74.7021L63.0975 75.9078V76.8837L66.4469 75.6781V76.6926L63.0975 77.8982V82.8169C65.2028 82.7211 67.002 81.477 67.0784 78.2618H68.5904Z" fill="#202F5A"/>
<path fill-rule="evenodd" clip-rule="evenodd" d="M45.9243 32.0198C47.0741 35.2876 46.2486 38.2054 42.1227 39.6828C41.8703 39.7732 41.5215 39.8779 41.2385 39.9384L39.3287 34.6054L37.9496 35.7494L37.6076 34.7947L38.9867 33.6503L38.6577 32.7316L37.2785 33.8756L36.9365 32.9209L38.3157 31.7765L37.0445 28.2269L38.5403 27.6916L39.6174 30.7004L42.3822 28.4299L42.7242 29.3846L39.9594 31.6555L40.2885 32.5742L43.0353 30.3102L43.3773 31.2649L40.6305 33.5293L42.2886 38.16C44.2384 37.3601 45.5128 35.5824 44.5008 32.5296L45.9243 32.0198Z" fill="#202F5A"/>
</g>
</svg>
