<svg width="21" height="21" viewBox="0 0 21 21" fill="none" xmlns="http://www.w3.org/2000/svg">
<mask id="path-1-inside-1" fill="white">
<path fill-rule="evenodd" clip-rule="evenodd" d="M16.4204 3.07769H4.46241C3.70103 3.07769 3.07769 3.70083 3.07769 4.46241V16.4204C3.07769 17.182 3.70103 17.8051 4.46241 17.8051H16.4204C17.1818 17.8051 17.8051 17.182 17.8051 16.4204V4.46241C17.8051 3.70083 17.1818 3.07769 16.4204 3.07769ZM4.46241 0.695312H16.4204C18.4971 0.695312 20.1875 2.38461 20.1875 4.46241V16.4204C20.1875 18.4982 18.4971 20.1875 16.4204 20.1875H4.46241C2.38575 20.1875 0.695312 18.4982 0.695312 16.4204V4.46241C0.695312 2.38461 2.38575 0.695312 4.46241 0.695312ZM14.6351 5.33313L14.6268 2.95076L15.5497 2.94818L17.0092 2.94411L17.5011 2.94274L17.9321 2.94045V5.32286V6.24454L14.6383 6.25485L14.6351 5.33313ZM11.2909 9.83439L11.2909 9.83432C11.0911 9.55745 10.7806 9.39249 10.4414 9.39249C10.1027 9.39249 9.79262 9.55696 9.59283 9.83309C9.46335 10.0136 9.39363 10.2208 9.39363 10.4414C9.39363 11.0167 9.86616 11.4892 10.4414 11.4892C11.0183 11.4892 11.4903 11.0161 11.4903 10.4414C11.4903 10.2204 11.4204 10.0139 11.2909 9.83439ZM10.4414 7.01011C9.2965 7.01011 8.28338 7.57626 7.65992 8.44039C7.25422 9.00425 7.01125 9.69418 7.01125 10.4414C7.01125 12.3324 8.55041 13.8716 10.4414 13.8716C12.3336 13.8716 13.8727 12.3324 13.8727 10.4414C13.8727 9.69418 13.6298 9.00425 13.2229 8.44039C12.5994 7.57626 11.5863 7.01011 10.4414 7.01011ZM15.9061 15.9061V15.8805C15.8976 15.8891 15.8891 15.8976 15.8805 15.9061H15.9061ZM5.00331 15.9061C4.99443 15.8973 4.98556 15.8884 4.97672 15.8795V15.9061H5.00331ZM5.12573 10.8228C5.32189 13.5841 7.63112 15.7717 10.4414 15.7717C13.2528 15.7717 15.5621 13.5841 15.7582 10.8228C15.7672 10.6968 15.7717 10.5696 15.7717 10.4414C15.7717 9.73429 15.6285 9.05926 15.3786 8.44039H15.9061H17.8874H18.2885V10.8228V16.4204C18.2885 17.4507 17.4507 18.2885 16.4204 18.2885H4.46241C3.43211 18.2885 2.59433 17.4507 2.59433 16.4204V10.8228V8.44039H2.99556H4.97672H5.50533C5.2532 9.05926 5.11223 9.73429 5.11223 10.4414C5.11223 10.5696 5.11678 10.6968 5.12573 10.8228Z"/>
</mask>
<path d="M14.6351 5.33313L17.0175 5.32486L14.6351 5.33313ZM14.6268 2.95076L14.6202 0.568389L12.2362 0.575043L12.2445 2.95902L14.6268 2.95076ZM15.5497 2.94818L15.5563 5.33055L15.5497 2.94818ZM17.0092 2.94411L17.0025 0.56174L17.0092 2.94411ZM17.5011 2.94274L17.5078 5.32512L17.5138 5.32508L17.5011 2.94274ZM17.9321 2.94045H20.3144V0.545359L17.9194 0.558099L17.9321 2.94045ZM17.9321 6.24454L17.9395 8.62691L20.3144 8.61947V6.24454H17.9321ZM14.6383 6.25485L12.2559 6.26312L12.2642 8.64468L14.6457 8.63722L14.6383 6.25485ZM11.2909 9.83432L9.35886 11.2282L9.35889 11.2283L11.2909 9.83432ZM11.2909 9.83439L9.35894 11.2284L9.35897 11.2284L11.2909 9.83439ZM9.59283 9.83309L7.66267 8.43656L7.6571 8.44432L9.59283 9.83309ZM7.65992 8.44039L5.7279 7.04646L5.72609 7.04898L7.65992 8.44039ZM13.2229 8.44039L11.2909 9.83432L11.2909 9.83439L13.2229 8.44039ZM15.9061 15.8805H18.2885V10.1098L14.2176 14.1999L15.9061 15.8805ZM15.9061 15.9061V18.2885H18.2885V15.9061H15.9061ZM15.8805 15.9061L14.1998 14.2176L10.11 18.2885H15.8805V15.9061ZM4.97672 15.8795L6.66568 14.1993L2.59433 10.1068V15.8795H4.97672ZM5.00331 15.9061V18.2885H10.7732L6.68412 14.2177L5.00331 15.9061ZM4.97672 15.9061H2.59433V18.2885H4.97672V15.9061ZM5.12573 10.8228L7.50212 10.654V10.654L5.12573 10.8228ZM15.7582 10.8228L18.1346 10.9916V10.9916L15.7582 10.8228ZM15.3786 8.44039V6.05801H11.8477L13.1695 9.33223L15.3786 8.44039ZM18.2885 8.44039H20.6709V6.05801H18.2885V8.44039ZM2.59433 8.44039V6.05801H0.211955V8.44039H2.59433ZM5.50533 8.44039L7.71163 9.33926L9.04844 6.05801H5.50533V8.44039ZM4.46241 5.46007H16.4204V0.695312H4.46241V5.46007ZM5.46007 4.46241C5.46007 5.01681 5.01656 5.46007 4.46241 5.46007V0.695312C2.38551 0.695312 0.695312 2.38485 0.695312 4.46241H5.46007ZM5.46007 16.4204V4.46241H0.695312V16.4204H5.46007ZM4.46241 15.4228C5.01656 15.4228 5.46007 15.866 5.46007 16.4204H0.695312C0.695312 18.498 2.3855 20.1875 4.46241 20.1875V15.4228ZM16.4204 15.4228H4.46241V20.1875H16.4204V15.4228ZM15.4228 16.4204C15.4228 15.866 15.8663 15.4228 16.4204 15.4228V20.1875C18.4973 20.1875 20.1875 18.498 20.1875 16.4204H15.4228ZM15.4228 4.46241V16.4204H20.1875V4.46241H15.4228ZM16.4204 5.46007C15.8663 5.46007 15.4228 5.01681 15.4228 4.46241H20.1875C20.1875 2.38485 18.4973 0.695312 16.4204 0.695312V5.46007ZM16.4204 -1.68707H4.46241V3.07769H16.4204V-1.68707ZM22.5699 4.46241C22.5699 1.06838 19.8124 -1.68707 16.4204 -1.68707V3.07769C17.1818 3.07769 17.8051 3.70083 17.8051 4.46241H22.5699ZM22.5699 16.4204V4.46241H17.8051V16.4204H22.5699ZM16.4204 22.5699C19.8124 22.5699 22.5699 19.8144 22.5699 16.4204H17.8051C17.8051 17.182 17.1818 17.8051 16.4204 17.8051V22.5699ZM4.46241 22.5699H16.4204V17.8051H4.46241V22.5699ZM-1.68707 16.4204C-1.68707 19.8144 1.07047 22.5699 4.46241 22.5699V17.8051C3.70103 17.8051 3.07769 17.182 3.07769 16.4204H-1.68707ZM-1.68707 4.46241V16.4204H3.07769V4.46241H-1.68707ZM4.46241 -1.68707C1.07047 -1.68707 -1.68707 1.06838 -1.68707 4.46241H3.07769C3.07769 3.70083 3.70103 3.07769 4.46241 3.07769V-1.68707ZM17.0175 5.32486L17.0092 2.9425L12.2445 2.95902L12.2527 5.34139L17.0175 5.32486ZM14.6335 5.33313L15.5563 5.33055L15.543 0.565813L14.6202 0.568389L14.6335 5.33313ZM15.5563 5.33055L17.0158 5.32648L17.0025 0.56174L15.543 0.565813L15.5563 5.33055ZM17.0158 5.32648L17.5078 5.32511L17.4945 0.560367L17.0025 0.56174L17.0158 5.32648ZM17.5138 5.32508L17.9447 5.32279L17.9194 0.558099L17.4885 0.560391L17.5138 5.32508ZM15.5497 2.94045V5.32286H20.3144V2.94045H15.5497ZM15.5497 5.32286V6.24454H20.3144V5.32286H15.5497ZM17.9246 3.86217L14.6308 3.87248L14.6457 8.63722L17.9395 8.62691L17.9246 3.86217ZM17.0207 6.24659L17.0175 5.32486L12.2527 5.34139L12.2559 6.26312L17.0207 6.24659ZM9.35889 11.2283L9.35894 11.2284L13.2229 8.44042L13.2229 8.44035L9.35889 11.2283ZM10.4414 11.7749C9.98316 11.7749 9.58786 11.5456 9.35886 11.2282L13.2229 8.44039C12.5944 7.56926 11.578 7.01011 10.4414 7.01011V11.7749ZM11.523 11.2296C11.2938 11.5464 10.8989 11.7749 10.4414 11.7749V7.01011C9.30653 7.01011 8.29143 7.56758 7.66268 8.43657L11.523 11.2296ZM11.776 10.4414C11.776 10.7433 11.6751 11.0176 11.5286 11.2219L7.6571 8.44432C7.25164 9.00947 7.01125 9.6983 7.01125 10.4414H11.776ZM10.4414 9.10681C11.1819 9.10681 11.776 9.70091 11.776 10.4414H7.01125C7.01125 12.3324 8.55041 13.8716 10.4414 13.8716V9.10681ZM9.10796 10.4414C9.10796 9.70023 9.70273 9.10681 10.4414 9.10681V13.8716C12.3339 13.8716 13.8727 12.3321 13.8727 10.4414H9.10796ZM9.35897 11.2284C9.20975 11.0216 9.10796 10.7444 9.10796 10.4414H13.8727C13.8727 9.6964 13.6311 9.00614 13.2229 8.44039L9.35897 11.2284ZM9.59194 9.83432C9.7917 9.55745 10.1022 9.39249 10.4414 9.39249V4.62773C8.49077 4.62773 6.77506 5.59507 5.7279 7.04646L9.59194 9.83432ZM9.39363 10.4414C9.39363 10.2203 9.46369 10.0126 9.59375 9.83181L5.72609 7.04898C5.04475 7.99593 4.62887 9.1681 4.62887 10.4414H9.39363ZM10.4414 11.4892C9.86616 11.4892 9.39363 11.0167 9.39363 10.4414H4.62887C4.62887 13.6482 7.23466 16.254 10.4414 16.254V11.4892ZM11.4903 10.4414C11.4903 11.0161 11.0183 11.4892 10.4414 11.4892V16.254C13.6488 16.254 16.2551 13.6487 16.2551 10.4414H11.4903ZM11.2909 9.83439C11.4204 10.0139 11.4903 10.2204 11.4903 10.4414H16.2551C16.2551 9.16794 15.8391 7.99464 15.1549 7.04639L11.2909 9.83439ZM10.4414 9.39249C10.7806 9.39249 11.0911 9.55745 11.2909 9.83432L15.1549 7.04646C14.1078 5.59507 12.3921 4.62773 10.4414 4.62773V9.39249ZM13.5237 15.8805V15.9061H18.2885V15.8805H13.5237ZM17.5612 17.5946C17.5724 17.5835 17.5835 17.5723 17.5947 17.5611L14.2176 14.1999C14.2116 14.2058 14.2057 14.2117 14.1998 14.2176L17.5612 17.5946ZM15.9061 13.5237H15.8805V18.2885H15.9061V13.5237ZM3.28775 17.5597C3.29934 17.5714 3.31092 17.583 3.3225 17.5945L6.68412 14.2177C6.67793 14.2116 6.67178 14.2054 6.66568 14.1993L3.28775 17.5597ZM7.3591 15.9061V15.8795H2.59433V15.9061H7.3591ZM5.00331 13.5237H4.97672V18.2885H5.00331V13.5237ZM2.74934 10.9916C3.03336 14.9896 6.3705 18.1541 10.4414 18.1541V13.3894C8.89175 13.3894 7.61043 12.1785 7.50212 10.654L2.74934 10.9916ZM10.4414 18.1541C14.5131 18.1541 17.8506 14.99 18.1346 10.9916L13.3818 10.654C13.2736 12.1782 11.9925 13.3894 10.4414 13.3894V18.1541ZM18.1346 10.9916C18.1476 10.8095 18.1541 10.626 18.1541 10.4414H13.3894C13.3894 10.5132 13.3868 10.5841 13.3818 10.654L18.1346 10.9916ZM18.1541 10.4414C18.1541 9.40966 17.9447 8.43268 17.5878 7.54855L13.1695 9.33223C13.3122 9.68585 13.3894 10.0589 13.3894 10.4414H18.1541ZM15.3786 10.8228H15.9061V6.05801H15.3786V10.8228ZM15.9061 10.8228H17.8874V6.05801H15.9061V10.8228ZM17.8874 10.8228H18.2885V6.05801H17.8874V10.8228ZM15.9061 8.44039V10.8228H20.6709V8.44039H15.9061ZM15.9061 10.8228V16.4204H20.6709V10.8228H15.9061ZM15.9061 16.4204C15.9061 16.135 16.135 15.9061 16.4204 15.9061V20.6709C18.7665 20.6709 20.6709 18.7665 20.6709 16.4204H15.9061ZM16.4204 15.9061H4.46241V20.6709H16.4204V15.9061ZM4.46241 15.9061C4.74786 15.9061 4.97672 16.135 4.97672 16.4204H0.211955C0.211955 18.7665 2.11635 20.6709 4.46241 20.6709V15.9061ZM4.97672 16.4204V10.8228H0.211955V16.4204H4.97672ZM4.97672 10.8228V8.44039H0.211955V10.8228H4.97672ZM2.59433 10.8228H2.99556V6.05801H2.59433V10.8228ZM2.99556 10.8228H4.97672V6.05801H2.99556V10.8228ZM4.97672 10.8228H5.50533V6.05801H4.97672V10.8228ZM3.29903 7.54153C2.93498 8.43509 2.72985 9.41473 2.72985 10.4414H7.49461C7.49461 10.0539 7.57141 9.68344 7.71163 9.33926L3.29903 7.54153ZM2.72985 10.4414C2.72985 10.626 2.7364 10.8095 2.74934 10.9916L7.50212 10.654C7.49716 10.5841 7.49461 10.5132 7.49461 10.4414H2.72985Z" fill="#202F5A" mask="url(#path-1-inside-1)"/>
</svg>
