<svg width="80" height="80" viewBox="0 0 80 80" fill="none" xmlns="http://www.w3.org/2000/svg">
<mask id="mask0" mask-type="alpha" maskUnits="userSpaceOnUse" x="0" y="28" width="22" height="23">
<path fill-rule="evenodd" clip-rule="evenodd" d="M0 28.7955H21.5996V50.3751H0V28.7955Z" fill="white"/>
</mask>
<g mask="url(#mask0)">
<path fill-rule="evenodd" clip-rule="evenodd" d="M12.5818 35.9738C12.5794 34.9906 11.7905 34.1964 10.8076 34.1876C9.8124 34.1785 8.97251 35.0248 8.99412 36.0149C9.01573 36.9871 9.83294 37.7704 10.8153 37.7598C11.8105 37.7491 12.5842 36.9668 12.5818 35.9738ZM10.8073 48.5601C12.4681 48.5606 14.1001 48.071 15.5611 47.2349C16.0998 46.9265 16.2207 46.5564 16.1438 45.9852C15.7965 43.4023 13.3819 41.3253 10.7531 41.3776C7.95787 41.4331 5.64071 43.5739 5.42301 46.2696C5.38859 46.697 5.55054 46.9265 5.88457 47.1311C7.39679 48.0564 9.02614 48.566 10.8073 48.5601ZM10.1792 39.5735C7.68307 38.8752 6.98779 36.8996 7.22711 35.3735C7.49497 33.6636 9.04055 32.3917 10.8126 32.3965C12.573 32.4016 14.0743 33.6668 14.3701 35.4071C14.6143 36.8417 13.8899 38.903 11.3748 39.5769C12.9364 39.784 14.3002 40.3013 15.4648 41.2957C16.6411 42.2999 17.3828 43.5771 17.8167 45.0759C20.164 42.5371 21.1114 36.7491 16.7681 32.856C12.9545 29.4372 7.10758 29.9526 3.86169 33.8495C0.588856 37.7792 1.75371 43.1302 3.78325 45.014C4.76801 41.8551 6.90375 40.0486 10.1792 39.5735ZM10.8025 50.3751C4.86726 50.3874 0.00936669 45.5498 2.86909e-05 39.618C-0.00957611 33.6222 4.79789 28.7998 10.7886 28.7955C16.7468 28.7915 21.5858 33.599 21.5996 39.5369C21.6138 45.509 16.7785 50.3629 10.8025 50.3751Z" fill="#202F5A"/>
</g>
<path fill-rule="evenodd" clip-rule="evenodd" d="M39.6092 8.96987C40.6094 8.95653 41.3717 8.18041 41.3669 7.18044C41.3618 6.19221 40.5761 5.41636 39.5798 5.41583C38.5713 5.41529 37.7429 6.25305 37.7728 7.24341C37.8024 8.2239 38.61 8.98321 39.6092 8.96987ZM39.5454 19.763C41.2308 19.8214 42.7798 19.2913 44.2737 18.4933C44.895 18.1614 45.0378 17.7409 44.9118 17.0937C44.3919 14.4227 42.1313 12.5306 39.5094 12.601C36.7414 12.6755 34.6166 14.5993 34.2108 17.3653C34.1425 17.8316 34.2713 18.1158 34.6689 18.3508C36.1664 19.2374 37.7544 19.7971 39.5454 19.763ZM38.9409 10.7897C36.5373 10.0504 35.7398 8.18548 36.0333 6.49397C36.3121 4.88756 37.82 3.64267 39.4961 3.60345C41.2468 3.56237 42.7838 4.80219 43.1243 6.52972C43.4847 8.3597 42.4725 9.90073 40.2631 10.7972C43.5693 11.3102 45.6592 13.1664 46.6244 16.3207C49.5987 12.7998 49.0833 7.19592 45.5532 4.04501C42.0421 0.910909 36.3574 1.15103 33.159 4.48336C29.5124 8.28259 30.1821 13.6909 32.5486 16.2807C33.5064 13.1701 35.5741 11.3343 38.9409 10.7897ZM28.7947 10.7545C28.8067 4.80539 33.6329 -0.00448224 39.5855 5.336e-05C45.5572 0.00458896 50.4085 4.87102 50.3839 10.8324C50.3596 16.7655 45.5031 21.601 39.5742 21.5951C33.6017 21.589 28.7825 16.7426 28.7947 10.7545Z" fill="#202F5A"/>
<path fill-rule="evenodd" clip-rule="evenodd" d="M70.1639 35.9481C70.1471 34.9842 69.3155 34.176 68.3505 34.1856C67.3495 34.1958 66.5384 35.0405 66.5683 36.0418C66.5974 37.0164 67.422 37.7853 68.4105 37.7597C69.3969 37.7341 70.181 36.9238 70.1639 35.9481ZM68.24 48.5571C70.114 48.5707 71.7394 48.0528 73.2628 47.146C73.6953 46.8885 73.8063 46.586 73.7321 46.1071C73.3063 43.3558 71.0905 41.3884 68.3734 41.3762C65.6948 41.3639 63.4715 43.299 63.0078 46.0212C62.9179 46.5494 63.0484 46.9032 63.5246 47.1825C65.0128 48.0544 66.5979 48.5619 68.24 48.5571ZM75.3916 45.0668C77.6463 42.6445 78.6581 37.1063 74.5656 33.0381C71.3285 29.8205 65.3922 29.824 62.1575 33.0416C58.0744 37.1031 59.0781 42.6485 61.3342 45.0673C62.3107 41.8842 64.4451 40.0499 67.7755 39.5699C65.6566 38.9195 64.5441 37.379 64.7919 35.4892C65.0147 33.7913 66.497 32.4488 68.2022 32.4005C70.0119 32.3493 71.5726 33.5411 71.9 35.2352C72.2068 36.8243 71.5244 38.8232 69.0186 39.5707C72.3002 40.0801 74.4269 41.9002 75.3916 45.0668ZM79.1087 39.6166C79.3376 44.7184 75.0152 50.3489 68.3572 50.3697C62.3774 50.3884 57.552 45.5145 57.5734 39.5382C57.5945 33.5749 62.4003 28.8091 68.3689 28.7904C74.6299 28.7712 79.3547 34.1261 79.1087 39.6166Z" fill="#202F5A"/>
<path fill-rule="evenodd" clip-rule="evenodd" d="M41.367 64.7573C41.3643 63.7715 40.5775 62.9833 39.5885 62.9761C38.6267 62.9689 37.7897 63.7813 37.7732 64.7378C37.7564 65.7164 38.6165 66.5699 39.6021 66.5523C40.5927 66.5345 41.3696 65.7445 41.367 64.7573ZM39.5807 77.3481C41.1895 77.3575 42.8021 76.869 44.2788 76.0605C44.9034 75.7185 45.04 75.3106 44.9111 74.6585C44.381 71.9742 42.1476 70.1109 39.4879 70.1699C36.7905 70.2294 34.6708 72.1322 34.2247 74.841C34.1324 75.4016 34.3125 75.7121 34.7685 75.9816C36.2545 76.8601 37.8484 77.3412 39.5807 77.3481ZM38.8526 68.3762C36.4747 67.1617 35.5862 65.7399 36.0675 63.9009C36.4907 62.2841 37.9325 61.1715 39.5946 61.1798C41.2917 61.1883 42.7389 62.3494 43.1046 63.9961C43.5216 65.8755 42.6215 67.262 40.2504 68.3866C41.7682 68.5629 43.119 69.1128 44.2839 70.1106C45.4525 71.1117 46.1712 72.3958 46.6147 73.8904C49.5732 70.4879 49.1111 65.0196 45.6502 61.7072C42.4264 58.6217 36.7377 58.6241 33.4958 61.7142C29.5307 65.4934 30.0226 70.9238 32.5404 73.8848C33.5028 70.7085 35.6092 68.8711 38.8526 68.3762ZM39.5482 79.1071C34.0228 79.2987 28.7647 74.5457 28.7895 68.3636C28.8135 62.3705 33.6378 57.5412 39.6106 57.5793C45.5912 57.6175 50.4003 62.4111 50.3789 68.3596C50.356 74.8685 44.865 79.3422 39.5482 79.1071Z" fill="#202F5A"/>
<path fill-rule="evenodd" clip-rule="evenodd" d="M43.1467 40.473C42.4202 40.473 41.7542 40.5047 41.0931 40.4628C40.5761 40.4303 40.4387 40.6288 40.4653 41.1141C40.5019 41.7747 40.4744 42.4388 40.4744 43.1444H38.7039V40.4842H36.0327V38.6985H38.6703V36.0294H40.4571V38.667H43.1467V40.473Z" fill="#202F5A"/>
<mask id="mask1" mask-type="alpha" maskUnits="userSpaceOnUse" x="0" y="0" width="80" height="80">
<path fill-rule="evenodd" clip-rule="evenodd" d="M0 79.1161H79.1179V0H0V79.1161Z" fill="white"/>
</mask>
<g mask="url(#mask1)">
<path fill-rule="evenodd" clip-rule="evenodd" d="M45.0151 40.4359H50.3418V38.7351H45.0151V40.4359Z" fill="black"/>
<path fill-rule="evenodd" clip-rule="evenodd" d="M38.7104 50.3833V45.0137H40.4169C40.4348 45.1853 40.4708 45.3728 40.4713 45.5607C40.4764 46.9579 40.4551 48.3554 40.4844 49.7521C40.4948 50.2449 40.3529 50.4434 39.8478 50.3903C39.4994 50.3537 39.1437 50.3833 38.7104 50.3833Z" fill="#202F5A"/>
<path fill-rule="evenodd" clip-rule="evenodd" d="M28.8435 40.4237H34.1454V38.7343H28.8435V40.4237Z" fill="#202F5A"/>
<path fill-rule="evenodd" clip-rule="evenodd" d="M38.7078 34.1277H40.431V28.8486H38.7078V34.1277Z" fill="#202F5A"/>
<path fill-rule="evenodd" clip-rule="evenodd" d="M23.3958 40.4319H26.9405V38.7266H23.3958V40.4319Z" fill="#202F5A"/>
<path fill-rule="evenodd" clip-rule="evenodd" d="M52.2034 40.4327H55.7331V38.7025H52.2034V40.4327Z" fill="#202F5A"/>
<path fill-rule="evenodd" clip-rule="evenodd" d="M38.7192 55.7503H40.4172V52.2048H38.7192V55.7503Z" fill="#202F5A"/>
<path fill-rule="evenodd" clip-rule="evenodd" d="M38.7244 26.9385H40.4338V23.4016H38.7244V26.9385Z" fill="#202F5A"/>
<path fill-rule="evenodd" clip-rule="evenodd" d="M10.179 39.5734C6.9038 40.0486 4.7678 41.8551 3.7833 45.014C1.75349 43.1301 0.588641 37.7792 3.86148 33.8498C7.10737 29.9526 12.9543 29.4372 16.7679 32.8559C21.1112 36.7491 20.1638 42.537 17.8165 45.0759C17.3826 43.577 16.6409 42.2999 15.4646 41.2956C14.3 40.3013 12.9361 39.7839 11.3748 39.5772C13.89 38.903 14.614 36.8417 14.3699 35.4071C14.074 33.6667 12.573 32.4016 10.8124 32.3965C9.04033 32.3917 7.49503 33.6635 7.22689 35.3737C6.98757 36.8996 7.68285 38.8752 10.179 39.5734Z" fill="#3F61ED" fill-opacity="0.105878"/>
<path fill-rule="evenodd" clip-rule="evenodd" d="M10.807 48.56C9.02588 48.5658 7.39653 48.0563 5.88458 47.131C5.55055 46.9266 5.38833 46.6969 5.42275 46.2698C5.64046 43.5737 7.95761 41.4329 10.7529 41.3775C13.3819 41.3254 15.7965 43.4022 16.1436 45.9854C16.2204 46.5563 16.0996 46.9266 15.5611 47.2348C14.1002 48.0709 12.4679 48.5608 10.807 48.56Z" fill="#317AFF" fill-opacity="0.300071"/>
<path fill-rule="evenodd" clip-rule="evenodd" d="M12.5817 35.9738C12.5841 36.9668 11.8104 37.7491 10.8152 37.7597C9.83288 37.7704 9.01567 36.9871 8.99406 36.0149C8.97245 35.0248 9.81234 34.1785 10.8075 34.1876C11.7904 34.1964 12.5793 34.9906 12.5817 35.9738Z" fill="#317AFF" fill-opacity="0.300071"/>
<path fill-rule="evenodd" clip-rule="evenodd" d="M38.9409 10.7896C35.5744 11.3341 33.5065 13.17 32.5486 16.2809C30.1824 13.691 29.5127 8.28246 33.1594 4.48349C36.3578 1.15116 42.0425 0.910775 45.5533 4.04487C49.0836 7.19578 49.5988 12.7996 46.6245 16.3209C45.6592 13.1665 43.5694 11.3101 40.2632 10.7973C42.4728 9.9006 43.485 8.35956 43.1243 6.52958C42.7839 4.80205 41.2469 3.5625 39.4964 3.60332C37.8201 3.64254 36.3124 4.88743 36.0336 6.4941C35.7398 8.18561 36.5373 10.0503 38.9409 10.7896Z" fill="#3F61ED" fill-opacity="0.105878"/>
<path fill-rule="evenodd" clip-rule="evenodd" d="M39.5454 19.763C37.7544 19.7971 36.1664 19.2374 34.6688 18.3511C34.2713 18.1158 34.1424 17.8316 34.2107 17.3653C34.6166 14.5993 36.7413 12.6755 39.5094 12.601C42.1312 12.5306 44.3918 14.4227 44.9118 17.0937C45.0378 17.7409 44.895 18.1614 44.2736 18.4933C42.7798 19.2913 41.2308 19.8214 39.5454 19.763Z" fill="#317AFF" fill-opacity="0.300071"/>
<path fill-rule="evenodd" clip-rule="evenodd" d="M39.6094 8.96987C38.6102 8.98321 37.8026 8.2239 37.773 7.24341C37.7431 6.25305 38.5715 5.41529 39.58 5.41583C40.5763 5.41636 41.362 6.19221 41.3671 7.18044C41.3719 8.18041 40.6096 8.95653 39.6094 8.96987Z" fill="#317AFF" fill-opacity="0.300071"/>
<path fill-rule="evenodd" clip-rule="evenodd" d="M75.3916 45.0667C74.4268 41.9003 72.3002 40.08 69.0185 39.5706C71.5243 38.8231 72.2068 36.8242 71.9 35.2351C71.5726 33.5412 70.0118 32.3492 68.2021 32.4006C66.497 32.4489 65.0147 33.7912 64.7919 35.4891C64.544 37.3789 65.6566 38.9196 67.7755 39.5698C64.445 40.0498 62.3106 41.8841 61.3342 45.0672C59.0781 42.6487 58.0744 37.1033 62.1575 33.0415C65.3922 29.8242 71.3285 29.8204 74.5656 33.038C78.658 37.1065 77.6463 42.6444 75.3916 45.0667Z" fill="#3F61ED" fill-opacity="0.105878"/>
<path fill-rule="evenodd" clip-rule="evenodd" d="M68.2402 48.557C66.5978 48.5618 65.013 48.0543 63.5248 47.1824C63.0483 46.9033 62.9178 46.5493 63.0077 46.021C63.4717 43.2991 65.6949 41.364 68.3733 41.376C71.0907 41.3883 73.3065 43.3557 73.7323 46.1069C73.8065 46.5861 73.6955 46.8884 73.263 47.1459C71.7396 48.053 70.1139 48.5708 68.2402 48.557Z" fill="#317AFF" fill-opacity="0.300071"/>
<path fill-rule="evenodd" clip-rule="evenodd" d="M70.1638 35.9481C70.1809 36.9238 69.3968 37.7341 68.4104 37.7597C67.4219 37.7853 66.5973 37.0164 66.5682 36.0418C66.5383 35.0405 67.3494 34.1958 68.3504 34.1856C69.3154 34.176 70.147 34.9842 70.1638 35.9481Z" fill="#317AFF" fill-opacity="0.300071"/>
<path fill-rule="evenodd" clip-rule="evenodd" d="M38.8525 68.3761C35.609 68.8711 33.5026 70.7085 32.5403 73.8848C30.0225 70.9238 29.5305 65.4934 33.4957 61.7141C36.7376 58.6241 42.4263 58.6217 45.65 61.7072C49.111 65.0195 49.5733 70.4879 46.6148 73.8904C46.1711 72.3958 45.4523 71.1116 44.2837 70.1106C43.1189 69.1128 41.7681 68.5629 40.2503 68.3865C42.6213 67.262 43.5215 65.8754 43.1045 63.9961C42.739 62.3494 41.2916 61.1883 39.5945 61.1797C37.9326 61.1715 36.4905 62.284 36.0674 63.9008C35.5861 65.7399 36.4748 67.1617 38.8525 68.3761Z" fill="#3F61ED" fill-opacity="0.105878"/>
<path fill-rule="evenodd" clip-rule="evenodd" d="M39.5809 77.348C37.8483 77.3411 36.2544 76.8603 34.7683 75.9815C34.3126 75.712 34.1326 75.4014 34.2249 74.8409C34.671 72.1323 36.7904 70.2295 39.4878 70.1698C42.1478 70.1111 44.3809 71.9741 44.9113 74.6584C45.0401 75.3107 44.9035 75.7187 44.279 76.0604C42.8019 76.8688 41.1894 77.3574 39.5809 77.348Z" fill="#317AFF" fill-opacity="0.300071"/>
<path fill-rule="evenodd" clip-rule="evenodd" d="M41.367 64.7573C41.3697 65.7445 40.5927 66.5345 39.6021 66.5523C38.6165 66.5699 37.7564 65.7164 37.7732 64.7378C37.7897 63.7813 38.6267 62.9689 39.5885 62.9761C40.5775 62.9833 41.3643 63.7715 41.367 64.7573Z" fill="#317AFF" fill-opacity="0.300071"/>
</g>
</svg>
