<svg width="21" height="18" viewBox="0 0 21 18" fill="none" xmlns="http://www.w3.org/2000/svg">
<path fill-rule="evenodd" clip-rule="evenodd" d="M18.5854 2.92793C19.4436 2.37044 20.1021 1.48647 20.4111 0.433449C19.6076 0.950927 18.7197 1.32516 17.7724 1.52777C17.0165 0.650248 15.936 0.103088 14.7403 0.103088C12.4463 0.103088 10.5873 2.12267 10.5873 4.61328C10.5873 4.96687 10.6218 5.31143 10.6931 5.6405C7.24138 5.45209 4.18073 3.65833 2.13039 0.927699C1.77262 1.59616 1.56818 2.37044 1.56818 3.19635C1.56818 4.7604 2.30155 6.1412 3.41645 6.95161C2.73539 6.92838 2.09473 6.7232 1.53371 6.38768V6.44317C1.53371 8.62922 2.96479 10.4527 4.86774 10.8656C4.51829 10.9714 4.1522 11.0243 3.77185 11.0243C3.50441 11.0243 3.24292 10.9972 2.99093 10.9443C3.51867 12.7355 5.05316 14.0415 6.87172 14.0763C5.44897 15.2868 3.65774 16.0068 1.712 16.0068C1.37681 16.0068 1.04519 15.9875 0.720703 15.9449C2.55947 17.2238 4.74294 17.9709 7.08924 17.9709C14.732 17.9709 18.9087 11.0979 18.9087 5.13721C18.9087 4.94106 18.9063 4.7462 18.898 4.55392C19.7098 3.91772 20.4159 3.12279 20.9709 2.21817C20.2257 2.57692 19.4246 2.81953 18.5854 2.92793Z" fill="#202F5A"/>
</svg>
