<svg width="25" height="26" viewBox="0 0 25 26" fill="none" xmlns="http://www.w3.org/2000/svg">
<path fill-rule="evenodd" clip-rule="evenodd" d="M20.1805 17.6355C20.1805 16.6635 19.8671 16.0945 19.1561 15.8135C18.1401 15.4125 17.1171 15.026 16.0876 14.66C15.4726 14.441 14.9121 14.595 14.4311 15.0325C14.2776 15.172 14.1321 15.3205 13.9781 15.459C13.6975 15.711 13.4041 15.732 13.0941 15.519C11.7176 14.574 10.5761 13.394 9.61955 12.031C9.38555 11.698 9.41155 11.414 9.68855 11.1105C9.80555 10.9815 9.92855 10.858 10.0486 10.732C10.5566 10.1975 10.6761 9.58296 10.4195 8.89546C10.0546 7.91846 9.69855 6.93746 9.31305 5.96796C9.08155 5.38546 8.63055 5.03596 8.00055 4.96396C7.72255 4.93246 7.43805 4.94796 7.15705 4.96046C6.78605 4.97746 6.46505 5.13546 6.20305 5.38996C5.76305 5.81746 5.33655 6.25896 4.90655 6.69746C4.63655 6.97296 4.44805 7.30046 4.44605 7.68896C4.44405 8.13496 4.46255 8.58546 4.52355 9.02696C4.89655 11.726 5.96355 14.1185 7.78355 16.151C10.2736 18.932 13.3916 20.4485 17.1231 20.684C17.6371 20.7165 18.0841 20.5535 18.452 20.1825C18.8085 19.8235 19.1676 19.467 19.5326 19.1165C19.9731 18.694 20.2511 18.2075 20.1805 17.6355ZM12.5791 25.1185C10.1021 25.1095 8.03605 24.5605 6.12205 23.451C5.98105 23.369 5.86405 23.3545 5.70805 23.407C4.06855 23.959 2.42605 24.5025 0.785051 25.0515C0.551051 25.1295 0.327551 25.159 0.139051 24.964C-0.0229494 24.7965 -0.0224494 24.603 0.0505506 24.387C0.608051 22.7315 1.15755 21.0735 1.71505 19.418C1.76655 19.265 1.76055 19.146 1.67755 19.0005C-1.98695 12.6085 0.562051 4.61696 7.28005 1.59296C14.2371 -1.53854 22.2706 2.33346 24.2091 9.71996C25.7446 15.569 22.8286 21.5635 17.2621 24.075C15.7791 24.744 14.0301 25.113 12.5791 25.1185Z" fill="#202F5A"/>
</svg>
